<svg id="_ëîé_1" data-name="‘ëîé_1" xmlns="http://www.w3.org/2000/svg" viewBox="0 0 2000 2000">
  <defs>
    <style>
      .cls-1 {
        fill: #dfe5e8;
        opacity: 0.5;
      }

      .cls-2 {
        fill: #fbc517;
      }

      .cls-3 {
        fill: #e96455;
      }

      .cls-4 {
        fill: #303f46;
      }

      .cls-5 {
        fill: none;
      }

      .cls-6 {
        fill: #9d5900;
      }

      .cls-7 {
        fill: #9e4a65;
      }

      .cls-8 {
        fill: #fdf5e0;
      }

      .cls-9 {
        fill: #ffd1b9;
      }

      .cls-10 {
        fill: #f2a299;
      }

      .cls-11 {
        fill: #607d8b;
      }

      .cls-12 {
        fill: #d8b7c1;
      }
    </style>
  </defs>
  <title>abstract_bg_3</title>
  <rect class="cls-1" width="2000" height="2000"/>
  <path class="cls-2" d="M67,1543.79l-.52.73C66.8,1544.47,67.05,1544.32,67,1543.79Z"/>
  <path class="cls-2" d="M67.94,53.18a.17.17,0,0,0,0-.07C67.77,53.09,67.78,53.12,67.94,53.18Z"/>
  <path class="cls-2" d="M53.22,14.81c-.11,0-.17,0-.19.06Z"/>
  <g>
    <path class="cls-3" d="M1492.87,1092.63q.84-54.64,2.09-109.29L1379,768.25q-79.77,436.59-159.53,873.16l144.75,222,135.36-62Q1487.46,1446.88,1492.87,1092.63Z"/>
    <g>
      <path class="cls-4" d="M447.36,1919.5c-32.6-94.7,4.44-335.07,4.44-335.07l-281,42.82L0,1654.26V2007.7H531.29L579.13,1906Z"/>
      <path class="cls-5" d="M274.39,1636.46c27-2,36.88-2.62,65.55-10.88C303.1,1632.1,311.22,1622.21,274.39,1636.46Z"/>
      <path class="cls-5" d="M1014.22,685.37c1-1.83,2-3.73,3.17-5.73-1,1.46-2.45,3.51-3.6,5.22Z"/>
      <path class="cls-6" d="M0,757.36V762l3.88-2.33C2.59,758.89,1.29,758.13,0,757.36Z"/>
      <g>
        <path class="cls-7" d="M49.79,1654.1c53.2-1.8,73.61-12.52,118.48-15.59.19-1.27.54-3.14.85-4.53-24.45-25.64-37-26-82-61.47-28.68-22.6-58-53-87.16-87.82v109.23C49.74,1663.05,21.21,1623.51,49.79,1654.1Z"/>
        <path class="cls-7" d="M170.79,1627.25c3.05-11.07,7.78-21.87,10.65-36.66C172.51,1573.15,168,1560,158,1543.76c-12.57-20.57-27.55-34.93-46.69-64.91C69.43,1413.17,44.66,1364.33,0,1303.5v170.87C107.33,1603.44,92.4,1561.43,170.79,1627.25Z"/>
        <path class="cls-7" d="M.65,1656.18c35.29-1.48-5.73-.54,43.74-1.9-35.6-38-9.77-4.53-44.39-53.63V1655A2.05,2.05,0,0,1,.65,1656.18Z"/>
        <path class="cls-7" d="M182.8,1581.15c2.93-37.78,13.66-51.55,23.48-93.72-3.23,1.64-3.71-2.57-8.5-12.94-13.27-28.75-27.05-31.29-42.5-52.36-8.56-11.66-70.19-117-116.39-166.26-13.12-14-24.94-25.32-38.89-39.65v83.17c60.39,81.32,80.75,134.48,132,201.22C163.51,1541,160.23,1534.88,182.8,1581.15Z"/>
        <path class="cls-7" d="M346.76,795.72l0-.05S346.75,795.71,346.76,795.72Z"/>
        <path class="cls-7" d="M133.46,1268c29.31,33.25,18.78,9.88,90.72,89.88,8.5-21.28,9-16.41,13-45.42,14.92-107.55,44.55-136.43,38.9-178-6.62-48.86,8.46-62.75,13.24-76.79,2.7-7.8,10.1-53.12,11.3-63.56,3.49-30.79,12.71-41.79,13.4-54.83.27-14.27,6.81-22.14,6.15-32.44-.27-4.42-2.78-7.12-.23-15.09,7.13-22.21,14-17.75,13.62-45.92-.47-10.49-2.88.54,9.78-33.73,1.19-3.27,4-11.29,3.9-14.75a5,5,0,0,0-.44-1.65l0,.1c-1.87-3.09-5.05-2.08,1.79-14.73,3.68-6.81,5.1-9.71,4.74-12v.08c-2.26-9.84,2.33-12.8,13.38-30.92,6.3-10.09,3.56-9.18,9.26-19.26,1.84-3.25,7.53-12.82,10-18.33.22-.48.43-1,.66-1.44l0,0c5.29-12.67,11.43-41.62,10.7-38.74a20.47,20.47,0,0,0,.47-7.84c-1-7.55-6.32-13.88-12.62-18.67-13-9.93-24.09-8.77-39.33-5.45C333.44,631.27,315,633.22,304,640c-11.42,7.06-16.67,14.79-30.39,17.15-13.34,2.29-26.68,5.34-40.11,7.09C161.21,673.56,68.42,719.58,0,761v346.77C63.05,1178.81,133.78,1268.38,133.46,1268ZM281.6,657.7h0l-1.06.12Z"/>
        <path class="cls-7" d="M87.87,1312.67c29.77,43.93,27.28,34.28,62,93.15,23,38.87,37.05,29.35,57.34,77.27,2.72-12.52,3.45-20.79,6.63-40.22,3.39-20.87,6-26.95,7.32-37.41,2.35-18.91-2.6-30,1-42-21.2-22.84-41.06-47.38-63.08-65.42C127.79,1272.38,63.06,1184.52,0,1111.72v99.86C34.08,1246.81,51,1258.29,87.87,1312.67Z"/>
        <path class="cls-7" d="M409.05,657.63c.69,1,1.39,2,2.11,3A4.45,4.45,0,0,0,409.05,657.63Z"/>
      </g>
      <path class="cls-8" d="M426.42,697.73c1.5,4,2.89,7.63,6.66,17.56.16-.35.31-.7.48-1-2.54-6.29-6.4-16.93-6.57-17.43C426.79,697.12,426.61,697.43,426.42,697.73Z"/>
      <path class="cls-8" d="M243.24,1639.35c.91-.37,1.71-.62,2.49-.86l-2.5.09C243.23,1638.84,243.23,1639.1,243.24,1639.35Z"/>
      <path class="cls-8" d="M429.3,1598.59c1.7-.42,3.39-.82,5.09-1.22.2-5,3.87-9.87,11.26-10,.1-.51.21-1,.31-1.51-6.4,1.62-14.92,4.57-15.42,4.76C430.07,1593.26,429.67,1595.92,429.3,1598.59Z"/>
      <path class="cls-8" d="M637.93,1298.22c1.94-26.76,1.54-26.06.15-28.08C638.06,1273.84,638,1284.36,637.93,1298.22Z"/>
      <path class="cls-8" d="M588.81,1552.71a10.73,10.73,0,0,1,3-2.76l-2.85.79C588.88,1551.4,588.84,1552.06,588.81,1552.71Z"/>
      <path class="cls-9" d="M346.76,795.72l0-.05S346.75,795.71,346.76,795.72Z"/>
      <path class="cls-10" d="M406.44,653.54a34.33,34.33,0,0,1-8.19-.51c-.3,1.49-.55,4.42-.95,7.54.79-3.16-5.55,26.39-10.69,38.7l0,0c-5.23,11.22-9.42,17-12.89,23.87-4.49,9,3.41-1.56-16.22,29.49-7.74,12.22-4.68,14.5-4.2,16.59v-.08c.76,4.76-7.53,14.49-8.84,21.77-.43,2.92.85,2.52,2.31,4.93l0-.1s0,0,0-.05,0,0,0,.05a5,5,0,0,1,.44,1.65h0c.16,3.88-3.41,13.49-4.79,17.14-12.9,34.35-8.67,19.2-8.89,33.82-.85,23.29,3.24,2.89-11.74,38.45-1.93,4.58-3.78,9.75-2.67,14.74,2.32,10.43.7,11-3.56,26.43-3.36,12,.69,7.61-4.32,23.67-15.4,48.87-7.06,28.68-13.25,60.81-7.78,40.69-5.31,39.3-12.85,55-21.14,43.72-3.16,60.47-10,91.7-15.31,70.82-22.36,50.85-36.41,142.35-6.67,43.25-3.22,28-14.58,56.46-6.58,16.44-1.21,24.07-2.42,42-1.06,14.52-3.82,18.31-8,44-12.73,77.62-27.36,101.28-30.22,128.5-.83,7.53-.21,11.51-3.68,25.43-3.31,13.5-9.53,27.35-11.55,40.65,61.69-4.24,47.32,1.09,75,.07-.2-87,42.67-158.17,79.21-401.4,4.7-31.26,12.39-95.58,14.68-114.09,17.58-142,31.35-155.15,49.49-241,23.59-111.51,19.29-152,39.81-184.33-6.16-16.23-6.13-16.15-12.79-33.72A116.35,116.35,0,0,1,406.44,653.54Z"/>
      <path class="cls-9" d="M512.82,927.89v0Z"/>
      <path class="cls-10" d="M516.65,934.19a10.68,10.68,0,0,1-3-3.34.49.49,0,0,0,0,.11,8.83,8.83,0,0,1-.89-3.07v0h0c-1.09-18.52,8.71-26.14-6.74-36.65a.23.23,0,0,0,.09.08,10.91,10.91,0,0,1-2.33-2.12l0,0c-5.93-7.4.54-29-15-44.23-13.11-12.76-11.91-17-17.36-34.08-3.56-11.27-13.2-22-15.75-26.72l0,.09a8.8,8.8,0,0,1-.67-2.56v0a8.33,8.33,0,0,1,0-1.58c-.21-.5-3.08-8.72-2.48-13.6-5.47-14.3-3.94-10.16-19.55-51.29-14.05,30.68-12.94,98.23-45,221.9-36.47,140.62-30,149.47-50.89,297.11-42.38,299.26-79.34,300.6-79.66,401.27-2.43.29-7.27,1-9.42,2.27-.79.18-1.57.41-2.35.65,11.57-.41,12.8-.89,28.66-2,52.37-20.26,18.22,6.89,108-25.29,21-7.5,27.6-12.42,47.85-20.43l.33-.13c12.79-71.71,13.57-1.09,38.37-278.84,17.94-200.59,6.38-43,21.77-211C492.3,1083,500.43,983,519,935.79c-.95-.62-1.56-1-2.45-1.65ZM414.57,1122.06C386.63,1300.94,348,1619.15,348,1619.65c-4.73.6-11.19,1.56-14.55,4.15,0-.54,47.64-407,84.27-606,12.45-67.53,17.13-72.72,36.13-145,13.46-51.2,11.13-52.77,15.48-55.66,1,6.19,5.05,13.92,8.25,18.65C444.06,977,445.09,926.62,414.57,1122.06Z"/>
      <path class="cls-10" d="M688.34,1514c-.38-3.52,0-16.24-2.46-22.37-12-31.35-4.39-23.12-13.16-34l0,.07-.06-.08h0c-2.93-3.86,2-10.14-1.89-22.87a106.29,106.29,0,0,1-3.25-15.71h0v0h0c-3.31-36.89-5.66-26.89-7.84-41.35-.89-5.72,0-9.55-2-16-8.73-28.72-8.57-35.3-12.32-52.75-5.35-25-6.3-22.7-6-36.91.64-31.69-8-20.71-13.78-45.8h0c-2-16.52-3-15.37-10-23.26a14.29,14.29,0,0,1-3.75-8h0c-.66-11.69,1-37.76-23-85.91-6.8,65.93-6.89,35.87-38.65,234.61-24.76,154.83-33.34,157.12-34.86,224.9-7.54.8-11.46,1.27-14.35,4.2,1.41-73.43,5.92-46.48,46.81-307,6.86-43.69,14.92-74.8,22.39-121.91,4.45-28,4.95-45,7.48-63.06.45-3.21.58-3.9.66-5.35,1.28-22.81-17-36.06-20.25-53.7a29.88,29.88,0,0,0-2.88-9c-2.44-4.75-4.53-5.45-6.51-9.15-2.86-5.37,0-6.8-2-13.94-1.35-4.85-3.32-5.85-10.34-18.44a50.12,50.12,0,0,1-4.4-10c-3.82-11.87-3-18.89-12.53-25.19-.58,5.9,4.71,17.12,7.34,22.15-22.14,80.43-20,164.91-34.44,254.18-9.32,57.69-5,71.35-11.37,118.53-4.47,33.1-4,20-7.19,72.44-1.88,31.31-4.34,38.59-6.5,61.63-8.32,88.58-9.4,64.44-21.31,120.88l.25-.06c.38-1.85,2.58-3.58,5.59-1.36.78-.18,4-1.37,4.51,1.57.5-.13,128.78-34.2,132.6-35.26.84-15.88,31.29-179.68,36.16-276.58.51-10.25,14.69-8.54,14.26,0-4.25,85.34-35.76,270.77-35.79,271.27a20.15,20.15,0,0,0-11.78,4.52c67.12-18.75,74.69-21.47,89.13-28.4a3,3,0,0,1,2.53-1.17,1.41,1.41,0,0,1,1,.13,54.13,54.13,0,0,1,5.71,1.5,1.27,1.27,0,0,0,0-.2C689.83,1516.91,688.6,1516.74,688.34,1514Z"/>
      <g>
        <path class="cls-5" d="M630.41,973.94c4.4,20,8.2,33.88,11.18,47.07C638,1003.26,633.69,988.84,630.41,973.94Z"/>
        <path class="cls-5" d="M646.89,1155.28c-1.18,24.65-3.48,41.71-5.45,59.19,8.22-66.47,9.11-111.88,6.67-145.8C649.12,1088.73,648.82,1115.13,646.89,1155.28Z"/>
        <path class="cls-5" d="M583.06,1039c1.27,20,2.63,42.22,2,58.17C585.73,1080.33,584.35,1058.71,583.06,1039Z"/>
        <path class="cls-11" d="M583.06,1039c-1-14.58-1.87-28.08-1.83-37.79a260.31,260.31,0,0,0-23.94,16.25c-3.94,10.88-2.74,15.62-.63,17.89,1.45,1.56,3.42,2.06,4.89,4.79s.67,4.41,1.33,7.95c.84,4.41,2.65,4.84,4.69,9.57,2.73,6.33.76,8.5,2.69,14.08,1.06,3.08,3.36,7.34,9,11.63.8,1.31,1.53,2.46,2.37,3.79.23,1,2,6.43,3.39,10C585.69,1081.25,584.33,1059.06,583.06,1039Z"/>
        <path class="cls-11" d="M875.62,1477.62c16.54-2.57,25.2-3.42,34.19-4.71,4.35-.63,6.87-1,18-2.82,53.47-8.9,72-5.9,137.21,22.42l-.15-.08c31.66,13.35,35.66,14.44,39.23,16.15a85.74,85.74,0,0,1,8.46,4.64c4.42,2.72,13.08,7.66,31.6,17.35,0-20.5.06-44.3,0-70.85-.05-24.44-.13-34.32-1.15-48.63-1.21-16.88-2.4-20.86-5.74-48.26-3.62-29.61-3.29-33.59-6.9-65.87-1.51-14.55-3.93-35.48-7.66-60.51-3.9-26.15-19.33-124.55-74.3-289.15-16.78-50.28-39.92-114.71-70.85-188.81-6.25,3-15.55,7.64-26.66,13.52-74.31,39.34-121.6,81-143.18,95.3C766,895,710.65,929.38,630.41,973.94c3.28,14.9,7.54,29.32,11.18,47.07a260.81,260.81,0,0,1,6.52,47.66c2.44,33.92,1.55,79.33-6.67,145.8-1.38,12.31-2.6,24.83-3.14,40.36a38.51,38.51,0,0,1,.82,4.57c1.67,18.72-4.64,13.34,13.32,83.61,5.67-25.91,13.84-78.74,13.94-79.24l0,0c16.58-124.12,41.95-134.54,82.5-220.34,4.68-9.91,19.32-45.47,31.37-68,43-81.09,49.92-81.94,56.7-91.85,5.79-8.49,2.66,4.7,1.22,14.93-4.08,30.85-1.64,42.86-.89,63.62,1.92,52.93-2.44,59.83-8.61,105.89-9.5,68.07-17,87.9-20.24,101.26-3.66,14.93-4.42,33.46-9.1,48.91a125,125,0,0,1-6.75,17.47c-3.34,7.12-7.47,13.34-13.56,24.5a204,204,0,0,0-11.77,24.73c-9.84,25.28-9.77,34.8-28.63,73-6.3,12.75-7.3,15.36-18.37,40.46,0,0-1.41,3.22-1.42,3.24-13.4,30.38-13.16,27.22-41.93,61.58a15.46,15.46,0,0,1,.67,1.84c3-3.08,26.42-28.62,43-48.89h-.06C769.91,1352.59,809.86,1266,857.57,1212c37.39-42.44,91.88-75.25,147.62-114.94,29.61-21.21,14.27,2,6.72,19.33-8.82,20.16-3.32,21.95-8.45,43-3,12.45-22.49,55.69-27.94,64.85-50.19,81.64-64.38,88.52-81.07,106.21-17.05,17-5.58,10.24-63.83,59.06,57.19-29.49,27.42-27,131.62-50.68,12.27-2.79,27.06-7.06,38.55-10.58,8.78-2.68,21.58-6.93,23.12-7.5,16.69-6.19,35.93-16.14,63.51-26.93,8-3.14,30.45-11.8,27.09-3.86-2.9,4.42-18,17.46-22,21-34,29.58-49.25,48.3-78,68.5-.5.36-4.4,3-6.7,4.44-5.72,3.6-11.51,7.09-17.43,10.63-49.71,29.74-59.61,37.77-114.19,60.24l.3-.1c-15.41,6.53-83,31.83-106.44,37.64C827.09,1488.13,797.58,1489.73,875.62,1477.62Z"/>
        <path class="cls-11" d="M1144.91,1537.85c-3.71.86-37.53,8.57-59.79,9.44-10.41.4-23.45.21-23.45.21-18.84-.52-9.37-2.45-76.58,11-28.14,5.68-33.17,7.61-54,9.59-2.68.26-7.67.62-10.39.76-2.23.12-9.24.56-26.09.8-18.82.27-27.39-1.38-27.57-.64-.46,2,60.41,18.84,279.4,73,0-1.37-.39-25.85-.77-51.7C1145.66,1588.91,1145.3,1564.09,1144.91,1537.85Z"/>
        <path class="cls-8" d="M581.23,1001.24c0,9.71.87,23.21,1.83,37.79C582.1,1024,581.2,1010.27,581.23,1001.24Z"/>
        <path class="cls-8" d="M641.43,1214.53c-2.36,19.08-2.78,30.36-3.13,40.3.54-15.53,1.76-28,3.14-40.36Z"/>
        <path class="cls-8" d="M641.59,1021a363.51,363.51,0,0,1,6.52,47.66A260.81,260.81,0,0,0,641.59,1021Z"/>
      </g>
      <path class="cls-7" d="M1142.51,1637.53a1.43,1.43,0,0,0-1.3.14c-1.65-.67-23.66-6.81-58.12-15.86L688.35,1514.09,451.8,1584.43c-8.63,41.62-13.43,76.76-16.25,102.42-14.2,128.84,1.77,195.64,6.77,214.84,2,7.66,3.83,13.87,5,17.81,140.39-14.45,290.36-25.24,449-30.46,177.39-5.83,344.59-4,500.2,2.93l-158.9-264.35Z"/>
      <path class="cls-11" d="M408.28,1892.34l22.77,138.79h90.72q42-80.16,84-160.32Z"/>
      <path class="cls-10" d="M1332.41,691.75c-61.59-91.5-63.53-123.89-100.29-182.47-9.82-15.65-32.41-59.46-43.72-97.16-3.83-12.75-5-11.21-8.63-18.43-3.9-7.67-8,3.1-9.45,4.43-11.26,4.55-11.27,20.2-62.26,109.14-3.64,6.34-127.27,241.4-130.18,248.17a2.53,2.53,0,0,0-2.45-.72c-2.84.78-1.51,3.89-.46,7.89-.67,1.7-1.15,3.65.86,3.16,14.69,53.86,62.38,161.54,72,202.64.12.52,19,90.61,51,185.95,31.84,94.82,25.31,172.64,35.67,210.86,5.6,20.67,6.86,40.21,7.13,61.39,2.94,228.81-5.29,237.62,18.76,229,14.93-5.27,38.33-4.88,62.92-16.52,15.36-7.26,16.81-18.9,16.84-33.29,0-34.87,10.17-81.2,14.45-103.87,18.07-95.87,32.49-57.53,49.47-275.08,1.28-16.47,4.18-48.33,4.23-48.83.67-7.66,2.85-25.47,5-38.49,31-192.21,67.86-304.51,69.44-367.19,0-2.14.1-4.27.16-6.41C1383.63,734.19,1378.22,759.79,1332.41,691.75Z"/>
      <path class="cls-12" d="M27,1788.23c32.13,7.58,143.36-22.73,190.32-49.25s336.16-170.47,336.16-170.47l3.8-39.68-404.22,88.93L0,1652.94v137.13C12.07,1787.74,21.54,1786.94,27,1788.23Z"/>
    </g>
    <polygon class="cls-4" points="1817.42 1685.45 1688.38 1722.95 1474.64 1787.55 1441.55 1814.14 1428.24 2010 2000 2010 2000 1656.57 1817.42 1685.45"/>
    <path class="cls-5" d="M1508.9,933.72c1.62,4,.24,2.59,3.77,9.48a7.15,7.15,0,0,1-1.41,8.92c.17,1,.35,1.88.52,2.8,0,0,25.74-9.34,41-15l-23-17.1C1518.67,928.61,1513.75,931,1508.9,933.72Z"/>
    <path class="cls-5" d="M1568,1156.34c4.85,13.66,11.35,29.81,16.84,43,89.18-22.38,43-4.75,153.24-41.47.18-1.06.37-2.12.56-3.16-6.11-9.4-2.27-6.52-23.59-34.24C1699.2,1123.46,1669.57,1127.93,1568,1156.34Z"/>
    <path class="cls-5" d="M1529.23,1029.54c1.51,5.39,3.21,11.23,5.24,18,58.18-25.69,55.87-16.35,90.62-34-2.78-3.32-9.31-10.91-11.61-13.58C1584.48,1010.72,1591.11,1006.22,1529.23,1029.54Z"/>
    <path class="cls-5" d="M1574.24,958.2c-16.4,6.19-57.11,21.18-57.37,21.28,1.94,8.79,3.86,17.11,6.05,26,48.46-18.53,40.63-14.56,72.77-25.48C1585.35,969,1578.7,962.59,1574.24,958.2Z"/>
    <path class="cls-5" d="M1553.92,1112.86c2.6,8.74,3.92,13.06,6.1,20,19.06-5.4,28.83-5.54,59.07-15,24.63-7.66,35.59-10.79,77.4-19-7.06-7.61-13.3-13.25-27.78-30.13C1656.33,1072.14,1566.74,1105.94,1553.92,1112.86Z"/>
    <path class="cls-5" d="M1541.56,1071.39c1.7,5.72,3.43,11.55,5.17,17.39,11.16-5.34,95.8-37.76,105.28-40.87-2.91-3.78-5.82-7.61-11.2-14.6C1595.83,1056.45,1602.27,1044.42,1541.56,1071.39Z"/>
    <path class="cls-5" d="M1949.65,786.65c1.52,1.83,3,3.68,4.48,5.55,2.6-1.72,2.31-1.53,4.07-2.63,0-.18-.11-.36-.16-.53C1956.29,788.59,1953.78,787.91,1949.65,786.65Z"/>
    <path class="cls-5" d="M1506.34,907l1.65-.85-1-.76C1506.61,906.34,1506.79,905.88,1506.34,907Z"/>
    <path class="cls-5" d="M1651,1387.27c2.14,7.9,3.91,14.5,7.82,31.16,63.66-19.35,47.57-16.09,87.6-29.4-1-14.8-1.64-19.84-3-30.08C1705.52,1374.36,1694.7,1373.68,1651,1387.27Z"/>
    <path class="cls-5" d="M1688.39,1723c7.19-3.23,19.67-8.77,26-11.32a258.36,258.36,0,0,0-24.78,8.49C1689.21,1721.06,1688.81,1722,1688.39,1723Z"/>
    <path class="cls-5" d="M1684.24,1562.92c.7,7.68,1.66,17.83,2.43,25.53,36.33-15.35,57.72-21.57,83.54-33.29-1.64-6.75-3.17-14.44-4.4-21.2C1734.85,1544.93,1705.75,1553.19,1684.24,1562.92Z"/>
    <path class="cls-5" d="M1689.23,1614.1c1.28,13.71,1.41,18.54,1.62,30.18,13.68-3.73,82-18.92,96-22.51-7.06-23.54-6.4-23-10.55-42.28C1743.06,1593.82,1728.29,1597.31,1689.23,1614.1Z"/>
    <path class="cls-5" d="M1734.87,1185.06c-90.32,30.53-61,17.52-140.34,37.4,5.79,13.75,9.71,23.83,11.41,28.49,39.64-13.28,78.74-10,129.82-22C1734.54,1216.78,1733.78,1209.16,1734.87,1185.06Z"/>
    <path class="cls-5" d="M1774.57,1693.81c25.57-5,32.6-6,42.85-8.36-1-1.47-2-2.92-2.88-4.3C1799.62,1685.6,1790.1,1688.86,1774.57,1693.81Z"/>
    <path class="cls-5" d="M1691.81,1669.73c.66,9.31,1.06,12.78,1.36,22.69,2.14-.76,107.83-33.05,108.09-33.13a89.28,89.28,0,0,1-6.64-14C1771.35,1651.35,1711.35,1664.12,1691.81,1669.73Z"/>
    <path class="cls-5" d="M1614.29,1274.32c5.53,15.88,5.88,17.2,10.49,31.1,33.77-11,73.39-21.09,113.59-33.71.05-6.51-.12-11.41-.51-17.75C1691.53,1264.58,1652.38,1262.07,1614.29,1274.32Z"/>
    <path class="cls-5" d="M1632.82,1328.89c3.73,10.81,8,23.85,11.34,34.54,46.75-14.57,53.64-12.33,96.1-29.8a311.51,311.51,0,0,1-2-35.87C1699.21,1309.82,1680.17,1314,1632.82,1328.89Z"/>
    <path class="cls-5" d="M1664.49,1442.62c1.59,6.6,7.45,29.91,9.38,40.21,32.77-7.06,46.37-10.42,80-23.85-2.86-14.53-5.53-27.5-6.26-44.24C1698.58,1431.84,1719.77,1425.94,1664.49,1442.62Z"/>
    <path class="cls-5" d="M1678.13,1507.25c1.65,10.64,2.71,20,3.69,29.87,20.78-8.81,46.12-16,80.25-28.08-1.15-8.29-1.89-13.62-3.74-25.3C1724.78,1497,1713.26,1499.62,1678.13,1507.25Z"/>
    <path class="cls-5" d="M1835,649.91c4.2,6,3.48,5,5.71,8-.27-4.5-.37-7.95-.41-11.88C1838.43,647.43,1836.89,648.57,1835,649.91Z"/>
    <path class="cls-3" d="M1534.47,1047.56c.71,2.41,3,10,7.09,23.83,60.89-27.05,54.12-14.86,99.25-38.08-5.46-7.1-8.64-11.26-15.72-19.73C1590.29,1031.24,1592.84,1021.78,1534.47,1047.56Z"/>
    <path class="cls-3" d="M1546.73,1088.78c4.6,15.44,1.24,4.11,7.19,24.08,12.91-7,101.57-40.48,114.79-44.16-3.77-4.41-6.79-7.9-16.7-20.79C1642.88,1050.91,1558,1083.38,1546.73,1088.78Z"/>
    <path class="cls-3" d="M1619.09,1117.86c-30.51,9.49-39.82,9.5-59.07,15,3.38,10.67,4.81,14.69,8,23.53,12.2-3.41,27.89-6.06,42.73-10.16,33.09-9.14,31.19-11.82,104.32-25.72a271.34,271.34,0,0,0-18.53-21.63C1654.77,1107.05,1643.79,1110.18,1619.09,1117.86Z"/>
    <path class="cls-3" d="M1594.53,1222.46c78.9-19.78,50.38-7,140.34-37.4.54-11.86,1.15-15.73,3.18-27.2-109.94,36.63-66.18,19.62-153.24,41.47C1587.78,1206.48,1588.44,1208,1594.53,1222.46Z"/>
    <path class="cls-3" d="M1605.94,1251c3.93,10.7,3.93,10.68,8.35,23.37,38.42-12.35,77.34-9.77,123.57-20.36-.71-11.55-1.53-19.26-2.1-25C1682.3,1241.5,1646.34,1237.41,1605.94,1251Z"/>
    <path class="cls-3" d="M1624.78,1305.42c3.44,10.36,4.77,14,8,23.47,47.26-14.88,66.66-19.15,105.42-31.13-.09-9.35,0-13,.13-26C1699.17,1284,1657.86,1294.68,1624.78,1305.42Z"/>
    <path class="cls-3" d="M1741.89,1347c-.94-7.34-1.37-11.26-1.63-13.37-42.29,17.4-49.66,15.32-96.1,29.8,2.45,7.93,4.65,15.83,6.82,23.84,43.46-13.51,54.45-12.87,92.45-28.32l-.83-6.45C1741.5,1350.23,1739.38,1347.05,1741.89,1347Z"/>
    <path class="cls-3" d="M1658.8,1418.43c1.92,8.15,3.69,15.89,5.69,24.19,54.81-16.54,35.13-11.14,83.08-27.88-.52-12-.45-15.12-1.17-25.71C1706.13,1402.42,1722.13,1399.18,1658.8,1418.43Z"/>
    <path class="cls-3" d="M1673.87,1482.83c1.3,6.89,3.17,17.45,4.26,24.42,35.13-7.63,46.65-10.21,80.2-23.51-1.57-10-2.53-14.74-4.5-24.76C1720.14,1472.46,1706.4,1475.82,1673.87,1482.83Z"/>
    <path class="cls-3" d="M1681.82,1537.12c.85,8.48,1.52,16.06,2.42,25.8,21.49-9.72,50.25-17.86,81.57-29-1.16-6.41-1.74-10.57-3.74-24.92C1727.78,1521.21,1702.65,1528.29,1681.82,1537.12Z"/>
    <path class="cls-3" d="M1686.67,1588.45c.89,8.89,1.78,17.19,2.56,25.65,37.82-16.26,53.86-20.29,87-34.61-2.51-11.68-3.46-13.7-6-24.33C1744.3,1566.92,1723.06,1573.08,1686.67,1588.45Z"/>
    <path class="cls-3" d="M1690.85,1644.28c.22,12.28.36,17.06,1,25.45,19.56-5.62,79.28-18.31,102.81-24.39-3.86-10.21-5.92-17.24-7.81-23.57C1772.53,1625.45,1705.08,1640.4,1690.85,1644.28Z"/>
    <path class="cls-3" d="M1693.17,1692.42c.51,17.16-.91,21.23-3.57,27.7.5-.2,51.78-19.19,68.53-22.91,37.57-8.33.69.57,56.41-16.06-4.71-7.23-10.54-17-13.28-21.86C1800.72,1659.46,1696.23,1691.33,1693.17,1692.42Z"/>
    <path class="cls-3" d="M1522.92,1005.5c2.18,8.87,4.1,16.14,6.31,24,61.75-23.27,55.27-18.83,84.25-29.54-9-10.48-12.92-14.77-17.79-20C1562.83,991.18,1571.82,986.8,1522.92,1005.5Z"/>
    <path class="cls-3" d="M1511.78,954.92c1,5.56,2.08,10.89,5.09,24.56.15-.06,38.86-14.29,57.37-21.28a222.17,222.17,0,0,0-21.48-18.33C1538.27,945.3,1511.78,954.92,1511.78,954.92Z"/>
    <path class="cls-3" d="M1506.34,907c-1,2.62-2.44,5.92-2.91,7,5.31,2.4,4,6.76,4.92,18.44.18.39.36.82.55,1.27,4.73-2.68,10.23-5.35,20.86-11-12.33-9.35-15.13-11.64-21.77-16.62Z"/>
    <g>
      <path class="cls-7" d="M1748,1119.82c13,16.13,154.39,234.36,175.37,261.9,31.05,39.23,56.09,70.23,76.65,95V1305.8c-28.19-38.39-64.3-81.57-117.65-136.78-47.18-48.81-50.78-59.94-121.75-142.6-14,69.1-.42,48.32-16,102.32-15.94,55.07-9,94.29-6.95,121.76,2.48,33.92-2.4,44.25,4.26,96.5,1.72,0,.48,1.21,12.11,21.7.28.5,5.44,9,9.46,14.92,80.64,118.5,79.3,119.26,114.62,154.12l107.07,107c10.25,9.3,13.64,11.39,14.85,12.59V1603c-8.63-12.25-21-29.63-39.06-54.55-46.64-64.33-98.72-96.4-141.92-183.18-52.41-105.19-57.71-107-82.13-153.55.5-4.19.74-6.47,1.93-16.52,0,0,44.52,86.11,68,133.75,25.8,52.21,24,56.77,61.85,107,31.25,40.11,62.1,64.43,91.61,105.3,17,23.5,29.85,41.39,39.67,55V1487c-96.87-115.62-191.55-279.32-252.41-363.62C1747.73,1122.2,1747.86,1121,1748,1119.82Z"/>
      <path class="cls-7" d="M1926.42,1133.81C1875,1069.12,1824.76,1023,1779.59,956.52c-.21.55-13,41.65-18.35,66.83,73.55,85.91,76.21,95.63,123.25,144.33,51.55,53.32,87.76,96.64,115.51,134v-83.17C1981.72,1199.74,1959.78,1175.79,1926.42,1133.81Z"/>
      <path class="cls-7" d="M1863.49,1527c-27.13-27.78-108.67-149.23-120.89-174.5,11.11,84.89,20,253.6,74.82,333,30.46-7,4.45-5.67,87.91-19-33-38.31-47-41.76-99.62-96.37-22.6-23.43-17.24-17.5-31.16-31.43q-.42-3.29-.85-6.57c88.94,96.17,96.8,89.28,135.16,133.76,42.31-7.85,36.45-5.51,85.91-7.12C1980.17,1647.77,1864,1527.5,1863.49,1527Z"/>
      <path class="cls-7" d="M1910.48,826.06c-41.83,40.65-107.65,74.09-129.8,127.66,41.06,61.49,109.81,131.15,123.76,148.11,26.08,31.57,33,41.63,59.75,72.72,14.09,16.36,25.7,28.89,35.81,39.33V1114c-22.53-26-44.85-50.09-65.35-68.74-32.74-29.76-90.65-77.46-100.32-85.14-33.14-25.4-40.9-27.34-39.51-29.71,4.35-7.41,135.28,107.36,141.77,113.27,17.31,15.74,39.82,39.75,63.41,66.34V763.27C1956.38,789.66,1922.66,814.16,1910.48,826.06Z"/>
    </g>
    <polygon class="cls-11" points="1609.09 1790.07 1428.24 1877.15 1392.67 1894.28 1341.34 2010 1428.24 2010 1589.79 2010 1625.13 1882.25 1609.09 1790.07"/>
    <path class="cls-11" d="M1817,662.21a86.28,86.28,0,0,1-15.57,11l-.6-1.05c-42.11,29.65-75.4,54.92-75.4,54.92-15.82,11-28.8,14.89-58.73,35.09l0-.05c-70,54.34-59.26,47-95.37,70.15-17.84,11.37-15.88,10.54-17.49,12.17-11.9,12.06-16.76,12.58-33.15,28.21-5.51,10.69-4.45,9.64-13.71,32.72,128.85,96.54,83.81,80.48,191,195,27.71,29.73,38.74,51.32,40.68,54.31,2.07-11.54,2.72-14.19,4.13-19.44,19.45-72.11,3.54-38.38,17.86-108.84l-3-3.48c-.74-.87-.38-4.26,3.62.41,5.38-25.55,18.16-66.33,18.35-66.83-.7-1-1.39-2-2.08-3.08.44-.82.88-1.64,1.33-2.46,1,1.43.45.67,1.84,2.74,20.1-48.61,82.63-87.05,109-108.81,30-24.76,19.93-23.34,64.47-52.71-10.46-13.31-99-113.49-119.17-142.29C1825.54,656.47,1827.18,653.42,1817,662.21Z"/>
    <path class="cls-10" d="M1489.09,1029.55c-3.35,4.37,0,9.57-1.66,27.2-2.88,30.32-6.51,22.25-1.92,229,4.21,186.37-23.81,78.09-13.35,466.85.19,7.19,1,26.57,3.82,33.34,2.77-2.73.57-.39,70.92-15.15,80.83-17,124-37.62,147.06-47.73q2.54-38.4,2.52-78.68c-.41-245.26-78.22-454.59-165.73-614.84C1502.1,1021.55,1492.56,1025,1489.09,1029.55Z"/>
    <path class="cls-12" d="M1960.64,1658.38l-162.19,25.77-373.52,107-46.28,20.26-82.84,36.24L1340,1919.5l38.65-17.74,96.36-44.22s74-31,124.13-44.26,206.88-17.7,226.48-33.19c16.27-12.86,122.52-40.95,174.38-47.61v-80.1Z"/>
  </g>
</svg>
