<svg id="_ëîé_1" data-name="‘ëîé_1" xmlns="http://www.w3.org/2000/svg" viewBox="0 0 2000 2000">
  <defs>
    <style>
      .cls-1 {
        fill: #dfe5e8;
        opacity: 0.5;
      }

      .cls-2 {
        fill: #fbc517;
      }

      .cls-3 {
        fill: #e96455;
      }

      .cls-4 {
        fill: #1d1d1b;
      }

      .cls-5 {
        fill: #303f46;
      }

      .cls-6 {
        fill: #9d5900;
      }

      .cls-7 {
        fill: #9e4a65;
      }

      .cls-8 {
        fill: #fdf5e0;
      }

      .cls-9 {
        fill: #ffd1b9;
      }

      .cls-10 {
        fill: #f2a299;
      }

      .cls-11 {
        fill: #607d8b;
      }

      .cls-12 {
        fill: #d8b7c1;
      }
    </style>
  </defs>
  <title>abstract_bg_4</title>
  <rect class="cls-1" width="2000" height="2000"/>
  <path class="cls-2" d="M67,1543.79l-.52.73C66.8,1544.47,67.05,1544.32,67,1543.79Z"/>
  <path class="cls-2" d="M67.94,53.18a.17.17,0,0,0,0-.07C67.77,53.09,67.78,53.12,67.94,53.18Z"/>
  <path class="cls-2" d="M53.22,14.81c-.11,0-.17,0-.19.06Z"/>
  <g>
    <g>
      <path class="cls-3" d="M1220,1641.3l159.25-871.56,115.24,213.72c-.83,36.26-1.53,73-2.08,109.16-3.59,235-1.35,473.31,6.67,708.45l-134.66,61.68Z"/>
      <path class="cls-4" d="M1379.44,771.23l56.65,105L1494,983.58c-.83,36.19-1.53,72.87-2.08,109-3.59,234.86-1.35,473.1,6.66,708.14l-28.25,12.94-105.72,48.43-83.84-128.56-60.23-92.36,100.18-548.3,58.77-321.67m-.47-3q-79.77,436.59-159.53,873.16l144.75,222,135.36-62q-12.09-354.5-6.68-708.75.84-54.64,2.09-109.29L1379,768.25Z"/>
    </g>
    <g>
      <g>
        <path class="cls-5" d="M.5,2007.2V1654.69l170.37-27L451.2,1585c-2.12,14.19-35.73,243.36-4.32,334.63l.53.33,130.89-13.4L531,2007.2Z"/>
        <path class="cls-4" d="M450.61,1585.63c-1.39,9.3-9.55,65.49-14.25,130.75-4.74,65.72-6.84,154.37,10.05,203.44l1,.67,130-13.31-46.82,99.52H1V1655.12l169.94-26.88,279.67-42.61m1.19-1.2-281,42.82L0,1654.26V2007.7H531.29L579.13,1906l-131.77,13.5c-32.6-94.7,4.44-335.07,4.44-335.07ZM579.13,1906Z"/>
      </g>
      <path class="cls-4" d="M324.62,1628.69c-16,4-26.18,5-43.36,6.27,15-5.4,20.87-5.85,27.67-5.85h2.33l2.66,0c3.06,0,6.45-.08,10.7-.45m15.32-3.11Zm0,0c-12.9,2.28-20.29,2.56-26,2.56-1.79,0-3.41,0-5,0-7.85,0-14.62.65-34.54,8.35,27-2,36.88-2.62,65.55-10.88Z"/>
      <path class="cls-4" d="M1017.39,679.64Zm0,0c-1,1.46-2.45,3.51-3.6,5.22l.43.51c1-1.83,2-3.73,3.17-5.73Z"/>
      <g>
        <path class="cls-6" d="M.5,758.24l2.4,1.4L.5,761.08Z"/>
        <path class="cls-4" d="M1,759.12l.91.53-.91.54v-1.07m-1-1.76V762l3.88-2.33c-1.29-.74-2.59-1.5-3.88-2.27Z"/>
      </g>
      <g>
        <g>
          <path class="cls-7" d="M50,1653.6c-10.29-11-13.1-12.85-15-14.06-3-2-3-2-32.79-43.35L.5,1593.76V1486.07c31.41,37.39,59.66,65.8,86.35,86.83a540.47,540.47,0,0,0,44.59,31.74c13.72,8.93,23.66,15.4,37.13,29.49-.25,1.18-.54,2.7-.73,3.91-19.93,1.39-34.72,4.22-50.37,7.22C98.66,1648.87,79.21,1652.59,50,1653.6Z"/>
          <path class="cls-4" d="M1,1487.44c31.08,36.9,59.08,65,85.54,85.86a544.6,544.6,0,0,0,44.62,31.76c13.64,8.87,23.53,15.3,36.87,29.23-.22,1-.45,2.23-.62,3.28-19.76,1.4-34.47,4.22-50,7.2-18.74,3.59-38.11,7.3-67.16,8.32-10.21-10.91-13-12.75-14.9-14-2.91-1.9-3.21-2.31-32.65-43.21L1,1593.6V1487.44m-1-2.75v109.23c49.74,69.13,21.21,29.59,49.79,60.18,53.2-1.8,73.61-12.52,118.48-15.59.19-1.27.54-3.14.85-4.53-24.45-25.64-37-26-82-61.47-28.68-22.6-58-53-87.16-87.82Z"/>
        </g>
        <g>
          <path class="cls-7" d="M170.52,1626.37c-26.62-22.3-42.22-32-56-40.54-26.34-16.34-43.75-27.15-114-111.64V1305c28.27,38.63,48.77,72.81,70.47,109,12.3,20.5,25,41.7,40,65.11a460.36,460.36,0,0,0,27,37.49c7.38,9.47,13.75,17.66,19.71,27.41,6.17,10.1,10.28,19,14.62,28.47,2.63,5.72,5.36,11.64,8.7,18.17a188.11,188.11,0,0,1-6.86,24.48C172.78,1619,171.56,1622.66,170.52,1626.37Z"/>
          <path class="cls-4" d="M1,1306.56c27.79,38.11,48.08,71.94,69.54,107.71,12.3,20.5,25,41.71,40,65.12,10.07,15.77,19.06,27.33,27,37.53,7.37,9.46,13.73,17.64,19.67,27.36,6.16,10.08,10.26,19,14.6,28.42,2.61,5.68,5.31,11.56,8.62,18a186.33,186.33,0,0,1-6.8,24.25c-1.2,3.61-2.34,7-3.34,10.51-26.29-22-41.78-31.59-55.47-40.08C88.5,1569.09,71.12,1558.31,1,1474V1306.56m-1-3.06v170.87c107.33,129.07,92.4,87.06,170.79,152.88,3.05-11.07,7.78-21.87,10.65-36.66C172.51,1573.15,168,1560,158,1543.76c-12.57-20.57-27.55-34.93-46.69-64.91C69.43,1413.17,44.66,1364.33,0,1303.5Z"/>
        </g>
        <g>
          <path class="cls-7" d="M1,1655.66a2.4,2.4,0,0,0-.52-.83v-52.61c7.32,10.4,11.77,16.86,14.75,21.2,5.55,8.06,5.55,8.06,8.5,10.73,2.53,2.3,7.2,6.53,19.52,19.66-26,.71-26.06.75-26.41,1S11.24,1655.23,1,1655.66Z"/>
          <path class="cls-4" d="M1,1603.8c6.78,9.64,11,15.75,13.84,19.9,5.58,8.11,5.58,8.11,8.57,10.82,2.48,2.25,7,6.34,18.73,18.82-23.26.64-24.92.7-25.45,1-.83.16-6,.43-15.35.83a3,3,0,0,0-.34-.51V1603.8m-1-3.15V1655a2.05,2.05,0,0,1,.65,1.15c35.29-1.48-5.73-.54,43.74-1.9-35.6-38-9.77-4.53-44.39-53.63Z"/>
        </g>
        <g>
          <path class="cls-7" d="M181.74,1577.82c-18.78-38.5-18.78-38.5-40.79-66.55l-8.58-11c-25.35-33-43.14-62.74-62-94.2C51,1373.72,30.94,1340.22.5,1299.22v-81.77c5.11,5.24,10,10.1,14.66,14.81,7.9,7.92,15.35,15.4,23.37,24,35.91,38.31,81.59,111.2,103.54,146.23,6.33,10.09,10.89,17.38,12.8,20,6,8.22,11.81,13.63,17.39,18.86,8.74,8.18,17,15.92,25.07,33.41,1.19,2.57,2.12,4.79,2.88,6.58,1.95,4.66,2.93,7,4.86,7a3.14,3.14,0,0,0,.51,0c-3.81,16.17-7.78,28.26-11.3,39-5.33,16.2-9.95,30.25-11.83,52.12Z"/>
          <path class="cls-4" d="M1,1218.67c4.8,4.91,9.37,9.5,13.81,13.95,7.89,7.91,15.34,15.39,23.35,23.93,35.89,38.28,81.55,111.14,103.49,146.16,6.33,10.1,10.9,17.4,12.82,20,6.06,8.27,11.85,13.69,17.45,18.93,8.7,8.16,16.92,15.86,25,33.26,1.18,2.56,2.11,4.78,2.86,6.57,2,4.76,3,7.2,5.2,7.29-3.76,15.82-7.67,27.71-11.13,38.25-5.2,15.78-9.72,29.52-11.69,50.44-18.74-38.41-18.76-38.44-40.77-66.5-2.54-3.24-5.38-6.86-8.58-11-25.34-33-43.12-62.71-62-94.15C51.44,1373.48,31.4,1340,1,1299.06v-80.39m-1-2.45v83.17c60.39,81.32,80.75,134.49,132,201.22,31.53,40.42,28.25,34.27,50.82,80.54,2.93-37.78,13.66-51.55,23.48-93.72a2.69,2.69,0,0,1-1.21.34c-2.24,0-3.16-4.36-7.29-13.28-13.27-28.75-27.05-31.29-42.5-52.36-8.56-11.66-70.19-117-116.39-166.26-13.12-14-24.94-25.32-38.89-39.65Z"/>
        </g>
        <g>
          <path class="cls-7" d="M346.76,795.72l0-.05S346.75,795.71,346.76,795.72Z"/>
          <path class="cls-4" d="M347.68,795.33h0m-.94.34v0Zm0,0v0Z"/>
        </g>
        <g>
          <path class="cls-7" d="M224,1357c-42.92-47.71-56.53-58.55-66.48-66.47-6.74-5.37-12.07-9.62-23.7-22.81l0,.2c-.39-.75-2.51-3.39-12-15.26-6.9-8.61-17.9-22.27-31.14-38.47C67.49,1185.73,33,1144.2.5,1107.55V761.25c42.23-25.53,148.92-85.67,233-96.48,8.52-1.11,17.13-2.77,25.46-4.38,4.81-.92,9.78-1.88,14.66-2.72,9.56-1.64,15-5.79,21.26-10.6a108.41,108.41,0,0,1,9.31-6.61c8.4-5.2,21.12-7.52,32.33-9.58,3.36-.61,6.52-1.19,9.39-1.82,6.52-1.42,11.93-2.37,17.11-2.37,8.07,0,14.8,2.39,21.81,7.73,5,3.84,11.29,10.14,12.42,18.34a20.06,20.06,0,0,1-.45,7.65h0c-.38,2.08-5.91,27.19-10.7,38.66h0c-.21.47-.43.93-.64,1.4-2,4.48-6.15,11.64-8.62,15.92l-1.37,2.37a49.64,49.64,0,0,0-4.28,9.28,42.68,42.68,0,0,1-5,10c-2.58,4.23-4.85,7.69-6.67,10.48-6.22,9.51-8.55,13.06-6.77,20.81h0c.27,2.09-1.17,5-4.7,11.54-5.5,10.17-4.75,11.77-2.81,13.91a9.06,9.06,0,0,1,1,1.32h0a4.46,4.46,0,0,1,.33,1.34c.09,2.3-1.28,7.47-3.87,14.53-3.73,10.1-6.12,16.18-7.7,20.2-2.74,7-2.79,7.1-2.45,9.75.11.88.26,2.07.34,4,.22,17.71-2.47,22.48-6.19,29.08a79.91,79.91,0,0,0-7.4,16.66,18.8,18.8,0,0,0-.43,11.7,21,21,0,0,1,.63,3.57c.32,5-1,9.27-2.61,14.26s-3.4,10.8-3.54,18.14c-.28,5.41-2.07,10.47-4.32,16.88a156.13,156.13,0,0,0-9.08,37.91c-1.22,10.64-8.61,55.74-11.27,63.45a76.41,76.41,0,0,1-4.05,9.08c-6.11,12.31-14.47,29.17-9.21,67.94,2.76,20.33-2.83,37.21-11.3,62.77s-20,60.39-27.6,115.08c-3.08,22.28-4.06,24.54-8.2,34C227.27,1349.13,225.83,1352.45,224,1357Zm56.47-699.63.12,1,1.06-.13-.12-1Z"/>
          <path class="cls-4" d="M363.05,627.19c7.95,0,14.59,2.36,21.51,7.63,5,3.78,11.12,10,12.22,18a19.48,19.48,0,0,1-.44,7.46h0c-.29,1.68-5.81,26.94-10.67,38.59h0l-.63,1.39c-2,4.45-6.14,11.6-8.61,15.87l-1.37,2.38a50.51,50.51,0,0,0-4.31,9.35,42.4,42.4,0,0,1-4.93,9.88c-2.57,4.22-4.84,7.68-6.66,10.47-6.13,9.36-8.66,13.24-6.83,21.19h0c.22,2-1.2,4.82-4.65,11.19-5.65,10.45-4.77,12.23-2.74,14.49a8.23,8.23,0,0,1,1,1.23,4.29,4.29,0,0,1,.27,1.11c.08,2.27-1.28,7.36-3.84,14.33-3.73,10.1-6.12,16.18-7.7,20.2-2.78,7.08-2.83,7.21-2.48,10,.11.86.26,2,.34,3.9.22,17.59-2.3,22.07-6.12,28.85A79.83,79.83,0,0,0,319,891.46a19.31,19.31,0,0,0-.43,12,21.1,21.1,0,0,1,.61,3.48c.31,4.87-1,9.14-2.59,14.08s-3.42,10.86-3.56,18.24c-.28,5.36-2.05,10.39-4.29,16.76a156.66,156.66,0,0,0-9.11,38c-1.22,10.63-8.59,55.66-11.24,63.35a78.66,78.66,0,0,1-4,9c-6.13,12.37-14.54,29.31-9.26,68.23,2.75,20.21-2.83,37.05-11.28,62.55s-20,60.43-27.62,115.16c-3.06,22.21-4,24.46-8.16,33.91-1.11,2.55-2.46,5.65-4.14,9.79-42.53-47.23-56.09-58-66-65.93-6.73-5.36-12-9.59-23.64-22.75h0c-.17-.24-.41-.55-.76-1-.53-.68-1.32-1.67-2.35-3-2.05-2.59-5-6.36-8.85-11.1-6.9-8.61-17.9-22.28-31.14-38.48C67.9,1185.45,33.47,1144,1,1107.36V761.53c27.1-16.37,68.84-40,114.69-60,45.29-19.81,84.95-32,117.9-36.23,8.54-1.12,17.16-2.78,25.49-4.39,4.81-.92,9.78-1.88,14.66-2.72,9.67-1.66,15.14-5.85,21.47-10.7a111.35,111.35,0,0,1,9.27-6.58c8.33-5.14,21-7.46,32.16-9.51,3.36-.61,6.53-1.19,9.4-1.82,6.5-1.41,11.87-2.36,17-2.36m-82.39,31.63,1.06-.13.88-1-.37-.79-.75-.21-1.06.13.24,2m82.39-32.63c-5.32,0-10.91,1-17.22,2.38C333.44,631.27,315,633.22,304,640c-11.42,7.06-16.67,14.79-30.39,17.15-13.34,2.29-26.68,5.34-40.11,7.09C161.21,673.56,68.42,719.58,0,761v346.77C62.91,1178.67,133.49,1268,133.46,1268h0c29.31,33.25,18.78,9.88,90.72,89.88,8.5-21.28,9-16.41,13-45.42,14.92-107.55,44.55-136.43,38.9-178-6.62-48.86,8.46-62.75,13.24-76.79,2.7-7.8,10.1-53.12,11.3-63.56,3.49-30.79,12.71-41.79,13.4-54.83.27-14.27,6.81-22.14,6.15-32.44-.27-4.42-2.78-7.12-.23-15.09,7.13-22.21,14-17.75,13.62-45.92-.47-10.49-2.88.54,9.78-33.73,1.19-3.27,4-11.29,3.9-14.75a5,5,0,0,0-.44-1.65l0,.1c-1.87-3.09-5.05-2.08,1.79-14.73,3.68-6.81,5.1-9.71,4.74-12v.08c-2.26-9.84,2.33-12.8,13.38-30.92,6.3-10.09,3.56-9.18,9.26-19.26,1.84-3.25,7.53-12.82,10-18.33.22-.48.43-1,.66-1.44l0,0c5-12.08,10.85-38.94,10.76-38.94a.63.63,0,0,0-.06.2,20.26,20.26,0,0,0,.46-7.84c-1-7.55-6.31-13.88-12.61-18.67-7.63-5.81-14.59-7.83-22.11-7.83Zm-82.51,31.63,1.06-.12h0l-1.06.12Z"/>
        </g>
        <g>
          <path class="cls-7" d="M207.1,1481.44c-11.19-25.94-20.6-34.67-30.55-43.91-8-7.39-16.19-15-26.2-32-22.56-38.19-29.34-47.43-39.61-61.42-5.62-7.65-12-16.32-22.45-31.76-28.53-42.11-45.5-58.88-67-80.11-6.47-6.39-13.15-13-20.81-20.9v-98.32c23.78,27.5,47.35,56.56,70.14,84.67,36.91,45.51,68.78,84.81,88.21,100.72,16.17,13.24,30.86,29.66,46.42,47,5.35,6,10.88,12.14,16.42,18.12-1.84,6.24-1.39,12.26-.87,19.22a107.15,107.15,0,0,1-.11,22.57,130.49,130.49,0,0,1-2.65,13.81c-1.27,5.58-2.86,12.52-4.66,23.58-1.18,7.2-2,12.83-2.76,17.79C209.47,1468.46,208.61,1474.3,207.1,1481.44Z"/>
          <path class="cls-4" d="M1,1114.41c23.48,27.19,46.74,55.87,69.25,83.63,36.93,45.53,68.81,84.86,88.29,100.79,16.13,13.22,30.81,29.63,46.36,47,5.29,5.91,10.75,12,16.23,17.93-1.77,6.22-1.32,12.21-.81,19.12a107.49,107.49,0,0,1-.1,22.47,132.43,132.43,0,0,1-2.64,13.75c-1.28,5.59-2.88,12.54-4.68,23.62-1.18,7.21-2,12.84-2.75,17.8-1.09,7.3-1.91,12.84-3.22,19.29-11-24.92-20.23-33.54-30-42.64-7.93-7.36-16.14-15-26.11-31.85-22.57-38.2-29.36-47.45-39.64-61.45-5.61-7.65-12-16.32-22.44-31.75-28.56-42.15-45.54-58.93-67-80.18C15.23,1225.58,8.6,1219,1,1211.18v-96.77m-1-2.69v99.86c34.08,35.23,51,46.71,87.87,101.09,29.77,43.93,27.28,34.28,62,93.15,23,38.87,37.05,29.35,57.34,77.27,2.72-12.52,3.45-20.79,6.63-40.22,3.39-20.87,6-26.95,7.32-37.41,2.35-18.91-2.6-30,1-42-21.2-22.84-41.06-47.38-63.08-65.42C127.79,1272.38,63.06,1184.52,0,1111.72Z"/>
        </g>
        <g>
          <path class="cls-7" d="M409.05,657.63c.69,1,1.39,2,2.11,3A4.45,4.45,0,0,0,409.05,657.63Z"/>
          <path class="cls-4" d="M409.05,657.63c.69,1,1.39,2,2.11,3a4.45,4.45,0,0,0-2.11-3Z"/>
        </g>
      </g>
      <g>
        <path class="cls-8" d="M426.42,697.73c1.5,4,2.89,7.63,6.66,17.56.16-.35.31-.7.48-1-2.54-6.29-6.4-16.93-6.57-17.43C426.79,697.12,426.61,697.43,426.42,697.73Z"/>
        <path class="cls-4" d="M427,696.82c-.2.3-.38.61-.57.91,1.5,4,2.89,7.63,6.66,17.56.16-.35.31-.7.48-1-2.54-6.29-6.4-16.93-6.57-17.43Z"/>
      </g>
      <g>
        <path class="cls-8" d="M243.24,1639.35c.91-.37,1.71-.62,2.49-.86l-2.5.09C243.23,1638.84,243.23,1639.1,243.24,1639.35Z"/>
        <path class="cls-4" d="M245.73,1638.49h0Zm0,0-2.5.09c0,.26,0,.52,0,.77.91-.37,1.71-.62,2.49-.86Z"/>
      </g>
      <g>
        <path class="cls-8" d="M429.9,1597.93c.35-2.54.71-4.82,1.08-6.94,1.06-.38,4.95-1.71,9.18-3a10.52,10.52,0,0,0-6.25,9C432.57,1597.28,431.23,1597.6,429.9,1597.93Zm13.52-10.88,1.89-.51-.07.33A14.76,14.76,0,0,0,443.42,1587.05Z"/>
        <path class="cls-4" d="M436.91,1589.54a11.09,11.09,0,0,0-3.46,7c-1,.22-1.95.45-2.95.7.3-2.12.6-4.07.92-5.91.94-.33,3-1,5.49-1.82m9-3.69h0Zm0,0c-6.4,1.62-14.92,4.57-15.42,4.76-.47,2.65-.87,5.31-1.24,8,1.7-.42,3.39-.82,5.09-1.22.2-5,3.87-9.87,11.26-10,.1-.51.21-1,.31-1.51Z"/>
      </g>
      <g>
        <path class="cls-8" d="M638.56,1275.59v-3.26c.24,1.3.26,3.74,0,9.39C638.54,1279.4,638.55,1277.34,638.56,1275.59Z"/>
        <path class="cls-4" d="M638.08,1270.14c0,3.7-.05,14.22-.15,28.08,1.94-26.76,1.54-26.06.15-28.08Z"/>
      </g>
      <g>
        <path class="cls-8" d="M589.39,1551.13l.13,0a1.59,1.59,0,0,1-.13.13Z"/>
        <path class="cls-4" d="M591.76,1550h0Zm0,0-2.85.79c0,.66-.07,1.32-.1,2a10.73,10.73,0,0,1,3-2.76Z"/>
      </g>
      <g>
        <path class="cls-9" d="M346.76,795.72l0-.05S346.75,795.71,346.76,795.72Z"/>
        <path class="cls-4" d="M347.68,795.33h0m-.94.34v0Zm0,0v0Z"/>
      </g>
      <g>
        <path class="cls-10" d="M236.7,1638.21a96.32,96.32,0,0,1-13.15-.84,130.53,130.53,0,0,0-17.68-1c-8.92,0-21,.53-37,1.62,1.23-7.62,3.85-15.55,6.38-23.22,1.82-5.51,3.7-11.21,5.06-16.77a99,99,0,0,0,3.24-20.08c.12-1.7.24-3.45.46-5.41,1.18-11.25,4.31-21.66,8.64-36.06A662.73,662.73,0,0,0,214.21,1444c1.94-11.82,3.56-19,4.87-24.74a114,114,0,0,0,3.17-19.35,101.09,101.09,0,0,0-.41-16.73c-.7-8-1.3-14.87,2.8-25.11,2.33-5.83,4.07-9.9,5.34-12.87,4.16-9.73,4.16-9.73,7-28.6.61-4.06,1.34-9,2.28-15.1,8.08-52.59,14-68.65,20.18-85.65,4.78-13.06,9.72-26.56,16.23-56.67,2.64-12.12,1.59-21.87.49-32.19-1.72-16.06-3.5-32.66,9.43-59.41,5.22-10.84,5.7-13.71,8-27.51,1-6.28,2.47-14.88,4.89-27.55,2.27-11.78,2.59-16.48,2.84-20.26.43-6.36.65-9.55,10.4-40.5,2.77-8.9,2.79-11.6,2.8-14.2,0-2.12,0-4.13,1.52-9.48.9-3.25,1.69-5.89,2.33-8,2.44-8.13,3.1-10.32,1.24-18.68-1.1-4.92.78-10,2.64-14.44a234.27,234.27,0,0,1,10-21.49c1.74-3.27,1.76-3.33,1.69-7,0-2-.09-5,.1-10.12a39.83,39.83,0,0,0-.37-6.89c-.29-2.09-.29-2.09,2.67-9.66,1.4-3.58,3.51-9,6.56-17.1,3.31-8.77,4.93-14.6,4.82-17.34l-.8.42.8-.45a5.65,5.65,0,0,0-.48-1.8h0a9.64,9.64,0,0,0-1.42-1.77c-.72-.76-1.06-1.1-.81-2.78.6-3.34,2.72-7.22,4.77-11,2.31-4.25,4.5-8.26,4.07-11h0a7.26,7.26,0,0,0-.35-1c-.74-1.85-2-4.95,4.49-15.18,13.69-21.65,14-23.11,14.5-25.14a17.87,17.87,0,0,1,1.75-4.39c1.32-2.61,2.78-5.11,4.31-7.76,2.51-4.31,5.35-9.2,8.58-16.13h0c3.93-9.45,10.2-34.67,10.7-38.83h0c.14-1.16.27-2.3.39-3.35.17-1.46.31-2.76.46-3.68a38,38,0,0,0,5.84.5c.63,0,1.18,0,1.68,0a115.19,115.19,0,0,0,7,10.19l12.67,33.42c-12.29,19.47-15.56,41.32-21.5,80.88-3.94,26.28-8.84,59-18.24,103.41-6,28.33-11.49,48.73-16.82,68.47-10.75,39.8-20.9,77.39-32.68,172.6-.34,2.81-.81,6.67-1.38,11.32-3.25,26.65-9.31,76.25-13.3,102.76-18.94,126.11-39.81,206.81-55.05,265.73-14.55,56.26-24.18,93.49-24.16,135.26C240.53,1638.18,238.55,1638.21,236.7,1638.21Z"/>
        <path class="cls-4" d="M399.07,654.17a38,38,0,0,0,5.42.43c.51,0,1,0,1.4,0a117.64,117.64,0,0,0,6.86,9.93l6.44,17,6.11,16.14c-12.23,19.5-15.51,41.37-21.43,80.85-3.94,26.28-8.85,59-18.24,103.39-6,28.31-11.49,48.71-16.81,68.44-10.75,39.82-20.91,77.43-32.69,172.67-.35,2.81-.82,6.67-1.39,11.31-3.25,26.65-9.31,76.25-13.29,102.75-18.94,126.09-39.81,206.77-55.05,265.69-14.5,56.07-24.12,93.26-24.17,134.9-2,.06-3.82.09-5.53.09a97.37,97.37,0,0,1-13.09-.83,129.44,129.44,0,0,0-17.75-1c-8.8,0-20.72.51-36.4,1.57,1.26-7.38,3.79-15.06,6.25-22.51,1.83-5.52,3.71-11.23,5.08-16.81a99.15,99.15,0,0,0,3.25-20.17c.12-1.69.24-3.43.46-5.39,1.17-11.2,4.29-21.59,8.61-36a660,660,0,0,0,21.59-92.49c1.94-11.81,3.56-19,4.86-24.71a113.55,113.55,0,0,0,3.19-19.43,101.73,101.73,0,0,0-.42-16.8c-.71-8.25-1.28-14.76,2.78-24.89,2.33-5.82,4.06-9.88,5.33-12.85,4.19-9.79,4.19-9.79,7-28.73.61-4.06,1.35-9,2.29-15.1,8.06-52.53,13.93-68.57,20.15-85.55,4.78-13.07,9.73-26.59,16.25-56.73,2.65-12.2,1.6-22,.49-32.35-1.71-16-3.48-32.52,9.39-59.14,5.25-10.9,5.73-13.79,8-27.65,1-6.28,2.47-14.87,4.89-27.54,2.28-11.81,2.59-16.52,2.85-20.31.43-6.33.64-9.5,10.38-40.4,2.79-9,2.81-11.7,2.82-14.34,0-2.09,0-4.06,1.51-9.35.89-3.24,1.68-5.88,2.32-8,2.47-8.23,3.13-10.44,1.24-18.93-1.06-4.78.8-9.8,2.62-14.14a236.4,236.4,0,0,1,10-21.45c1.79-3.34,1.82-3.48,1.75-7.26,0-2-.09-4.94.1-10.11a39.62,39.62,0,0,0-.37-7c-.28-2-.28-2,2.63-9.41,1.4-3.58,3.52-9,6.56-17.1,3.38-9,5-14.69,4.86-17.54h-.12l.11-.05a5.92,5.92,0,0,0-.51-1.95l0-.08h0a9.64,9.64,0,0,0-1.48-1.86c-.68-.71-.89-.92-.68-2.33.59-3.27,2.69-7.12,4.72-10.84,2.46-4.51,4.58-8.41,4.13-11.27h0a8.6,8.6,0,0,0-.37-1.08c-.71-1.77-1.9-4.72,4.44-14.73,13.73-21.72,14.08-23.22,14.57-25.29a17,17,0,0,1,1.7-4.28c1.32-2.6,2.77-5.1,4.31-7.74,2.51-4.32,5.35-9.22,8.59-16.17l-.11-.06.11,0c2.57-6.14,5.38-16.42,7.28-23.95,1.13-4.46,2-8.27,2.56-10.67a33.32,33.32,0,0,0,1-4.83c.13-1,.24-2,.34-2.87.13-1.21.26-2.32.38-3.17m-.82-1.14c-.3,1.49-.55,4.42-.95,7.54a1,1,0,0,1,.07-.24c.09,0-5.88,27.25-10.76,38.94l0,0c-5.23,11.22-9.42,17-12.89,23.87-4.49,9,3.41-1.56-16.22,29.49-7.74,12.22-4.68,14.5-4.2,16.59v-.08c.76,4.76-7.53,14.49-8.84,21.77-.43,2.92.85,2.52,2.31,4.93l0-.1s0,0,0-.05,0,0,0,.05a5,5,0,0,1,.44,1.65h0c.16,3.88-3.41,13.49-4.79,17.14-12.9,34.35-8.67,19.2-8.89,33.82-.85,23.29,3.24,2.89-11.74,38.45-1.93,4.58-3.78,9.75-2.67,14.74,2.32,10.43.7,11-3.56,26.43-3.36,12,.69,7.61-4.32,23.67-15.4,48.87-7.06,28.68-13.25,60.81-7.78,40.69-5.31,39.3-12.85,55-21.14,43.72-3.16,60.47-10,91.7-15.31,70.82-22.36,50.85-36.41,142.35-6.67,43.25-3.22,28-14.58,56.46-6.58,16.44-1.21,24.07-2.42,42-1.06,14.52-3.82,18.31-8,44-12.73,77.62-27.36,101.28-30.22,128.5-.83,7.53-.21,11.51-3.68,25.43-3.31,13.5-9.53,27.35-11.55,40.65,18.07-1.24,29.61-1.66,37.59-1.66,16.83,0,17.86,1.86,30.84,1.86,1.9,0,4,0,6.53-.13-.2-87,42.67-158.17,79.21-401.4,4.7-31.26,12.39-95.58,14.68-114.09,17.58-142,31.35-155.15,49.49-241,23.59-111.51,19.29-152,39.81-184.33-6.16-16.23-6.13-16.15-12.79-33.72a116.35,116.35,0,0,1-7.19-10.47c-.57,0-1.2.06-1.95.06a38,38,0,0,1-6.24-.57Z"/>
      </g>
      <g>
        <path class="cls-9" d="M512.82,927.89v0Z"/>
        <path class="cls-4" d="M512.82,927.89v0Zm0,.09v0Z"/>
      </g>
      <g>
        <path class="cls-10" d="M249.25,1637.85a38.4,38.4,0,0,1,8.31-1.79l.44-.49c.14-44.7,7.39-69.35,19.4-110.18,14.62-49.71,36.72-124.82,60.26-291,5.87-41.49,9.65-72.59,12.69-97.59,8-65.51,12-98.39,38.18-199.47C406,870,413.66,819.14,419.24,782.05c4.48-29.77,7.75-51.49,13.8-65.45,11.48,30.24,13.41,35.25,16.06,42.16l3,7.88c-.51,4.67,2,12.26,2.48,13.61a8.91,8.91,0,0,0,0,1.55h0a9.24,9.24,0,0,0,.72,2.7h0a66.61,66.61,0,0,0,3.93,5.83c3.92,5.48,9.3,13,11.75,20.75,1.1,3.45,1.93,6.37,2.66,8.94,2.94,10.35,4.28,15.07,14.83,25.35,9.54,9.32,10.69,21.08,11.6,30.53.56,5.76,1.05,10.74,3.38,13.66h0a11.71,11.71,0,0,0,2.41,2.19v0c10,6.82,9,12.38,7.61,20.78a64.58,64.58,0,0,0-1.19,15.42V928h0a9.53,9.53,0,0,0,.93,3.15h0l.15.23a10.46,10.46,0,0,0,2.92,3.19h0c.75.56,1.31.92,2.07,1.41-11.66,29.82-21.06,84.08-27.94,161.29l-.3,3.39c-7.32,79.84-8.55,86.17-9.74,92.29-1.35,6.94-2.62,13.49-12,118.76-18,201.2-23.43,219.93-29.76,241.63a302.46,302.46,0,0,0-8.55,36.9l-.08,0c-9,3.55-15.25,6.48-21.32,9.32a271.83,271.83,0,0,1-26.5,11.1c-42.05,15.08-57,17.11-66.09,17.11-1.75,0-3.31-.07-4.82-.14s-2.81-.14-4.28-.14c-6.74,0-14.56,1.42-32.73,8.44-6.14.44-10.1.78-13.28,1.06C257,1637.38,254,1637.63,249.25,1637.85ZM469,816.74c-2.69,1.79-3,3.17-5.43,13.93-1.72,7.67-4.61,20.51-10.27,42C447.19,896,442.46,912.62,438.67,926c-8.14,28.65-13.05,45.94-21.49,91.72-36.45,198-84.14,603.84-84.28,606.06l.8.43c3.49-2.69,10.8-3.61,14.31-4l.44-.46c.23-2.23,38.5-317.52,66.61-497.56,20-128.08,26.38-150.28,37.94-190.59,6-20.93,13.48-47,25-95.62l-.08-.39c-3.18-4.7-7.23-12.35-8.16-18.45Z"/>
        <path class="cls-4" d="M433,717.94c11.09,29.23,13,34.2,15.62,41,.82,2.14,1.71,4.45,3,7.76-.48,4.86,2,12.13,2.48,13.6a9.77,9.77,0,0,0,0,1.53h0a9.62,9.62,0,0,0,.76,2.86h0a67.31,67.31,0,0,0,4,5.93c3.91,5.45,9.26,12.91,11.69,20.61,1.09,3.43,1.92,6.35,2.65,8.92,2.87,10.12,4.31,15.2,15,25.57,9.41,9.19,10.55,20.85,11.46,30.22.56,5.84,1,10.89,3.48,13.92h0a12.23,12.23,0,0,0,2.52,2.29h0c9.7,6.63,8.83,11.78,7.4,20.28a64.8,64.8,0,0,0-1.2,15.52h0v.12h0a10.11,10.11,0,0,0,1,3.34l.08,0,0,0,.17.27a11,11,0,0,0,3,3.32h0c.65.49,1.15.82,1.75,1.21-11.6,29.94-21,84.11-27.82,161-.12,1.34-.22,2.48-.3,3.4-7.31,79.81-8.54,86.13-9.73,92.24-1.35,6.94-2.63,13.5-12,118.81-18,201.14-23.41,219.86-29.74,241.53a304.31,304.31,0,0,0-8.52,36.68c-8.88,3.52-15.12,6.43-21.15,9.25A273.27,273.27,0,0,1,382,1610.23c-42,15-56.88,17.08-65.92,17.08-1.74,0-3.3-.07-4.8-.14s-2.82-.14-4.3-.14c-6.79,0-14.65,1.42-32.84,8.45-6.1.43-10,.78-13.22,1-2.42.21-4.44.38-6.7.54,1.14-.21,2.3-.38,3.37-.51l.88-1c.14-44.63,7.39-69.25,19.38-110,14.63-49.72,36.73-124.86,60.27-291.09,5.88-41.49,9.66-72.6,12.7-97.6,8-65.48,12-98.35,38.17-199.4,17.49-67.39,25.13-118.21,30.72-155.32,4.35-28.92,7.56-50.24,13.28-64.18m-99,906.65c3.38-2.6,10.59-3.51,14.06-3.95l.87-.89c.26-2.39,38.85-319.76,66.61-497.54,20-128.05,26.37-150.24,37.93-190.53,6-20.93,13.49-47,25-95.64l-.14-.8c-3.16-4.65-7.17-12.22-8.09-18.23l-1.54-.69c-2.86,1.9-3.17,3.31-5.63,14.24-1.73,7.67-4.61,20.51-10.27,42-6.12,23.28-10.85,39.92-14.64,53.29-8.14,28.66-13.06,45.95-21.5,91.76-36.46,198-84.15,603.9-84.29,606.12l1.61.85M456.09,781.74h0m48.62,107h0M433.08,715.29c-14.05,30.68-12.94,98.23-45,221.9-36.47,140.62-30,149.47-50.89,297.11-42.38,299.26-79.34,300.6-79.66,401.26-2.43.3-7.27,1.06-9.42,2.28-.79.19-1.57.41-2.35.65,11.57-.41,12.8-.89,28.66-2,18.73-7.24,26.4-8.43,32.62-8.43,3,0,5.68.28,9.1.28,9.3,0,24.13-2,66.25-17.14,21-7.5,27.6-12.42,47.85-20.43l.33-.13c12.79-71.71,13.57-1.09,38.37-278.84,17.94-200.59,6.38-43,21.77-211C492.3,1083,500.43,983,519,935.79c-.95-.62-1.56-1-2.45-1.65l.06.05a10.68,10.68,0,0,1-3-3.34.49.49,0,0,0,0,.11,8.83,8.83,0,0,1-.89-3.07v0h0c-1.09-18.52,8.71-26.14-6.74-36.65a.23.23,0,0,0,.09.08,10.91,10.91,0,0,1-2.33-2.12l0,0c-5.93-7.4.54-29-15-44.23-13.11-12.76-11.91-17-17.36-34.08-3.56-11.27-13.2-22-15.75-26.72l0,.09a8.8,8.8,0,0,1-.67-2.56v0a8.33,8.33,0,0,1,0-1.58c-.21-.5-3.08-8.72-2.48-13.6-5.47-14.3-3.94-10.16-19.55-51.29ZM333.4,1623.8c0-.54,47.64-407,84.27-606,12.45-67.53,17.13-72.72,36.13-145,13.46-51.2,11.13-52.77,15.48-55.66,1,6.19,5.05,13.92,8.25,18.65-33.47,141.19-32.44,90.81-63,286.25C386.63,1300.94,348,1619.15,348,1619.65c-4.73.6-11.19,1.56-14.55,4.15Z"/>
      </g>
      <g>
        <path class="cls-10" d="M456.67,1585.39a2.6,2.6,0,0,0-2.7-1.85,7.59,7.59,0,0,0-2,.34h0a5,5,0,0,0-2.82-1,3.32,3.32,0,0,0-2.14.75c3.6-16.8,6.18-26.14,8.28-33.71,4.61-16.63,6.92-25,12.55-84.92.84-8.94,1.73-15.6,2.6-22,1.35-10.06,2.75-20.45,3.9-39.61,2.38-39.56,2.73-41.88,4.66-54.74.64-4.26,1.43-9.55,2.52-17.66,2.82-20.84,3.57-35.45,4.29-49.58a557.8,557.8,0,0,1,7.08-68.94c5.72-35.34,8.86-70.15,11.89-103.81,4.72-52.33,9.18-101.76,22.54-150.31l0-.37c-3.63-6.93-7.33-15.88-7.33-21,6.41,4.49,7.61,9.3,9.4,16.44.59,2.37,1.25,5,2.2,8a50.64,50.64,0,0,0,4.45,10.08c3,5.47,5.13,8.74,6.65,11.12,2,3.12,2.89,4.54,3.64,7.22a19,19,0,0,1,.68,7.06,11.24,11.24,0,0,0,1.37,7,19.71,19.71,0,0,0,2.91,4,23,23,0,0,1,3.6,5.14,28.6,28.6,0,0,1,2.76,8.51l.07.37c1.37,7.33,5.22,13.8,9.29,20.64,5.75,9.66,11.7,19.65,11,32.94-.06,1.12-.16,1.8-.41,3.59l-.25,1.72c-1,7.25-1.7,14.38-2.44,21.94-1.11,11.38-2.37,24.29-5,41.11-3.77,23.79-7.71,43.62-11.53,62.8s-7.46,37.48-10.86,59.12c-17.9,114.08-29,173.76-35.58,209.43-8.64,46.61-10.44,56.31-11.23,97.63l.85.36c2.71-2.75,6.27-3.23,14-4.06l.45-.48c.9-40,4.37-57.76,12-96.56,5.38-27.43,12.75-65,22.87-128.27,16-100.24,24-142.52,28.8-167.77,4.63-24.43,6.41-33.84,9.67-65.15,20.77,42.21,21.57,66.83,22,80.14,0,1.5.1,2.84.16,4l.69,0-.68,0a14.93,14.93,0,0,0,3.86,8.27c.94,1,1.76,1.94,2.49,2.73,4.78,5.15,5.65,6.08,7.39,20.27l.5.44-.48-.39c2.45,10.56,5.37,14.76,7.94,18.46,3.34,4.81,6,8.65,5.84,25.44A6.62,6.62,0,0,0,638,1269a8.28,8.28,0,0,0-5.91-2.43c-3.55,0-7.24,2.33-7.5,7.54-3.48,69.17-19.74,170.89-29.46,231.66-3.65,22.85-6.32,39.51-6.67,44.56C580.53,1552.49,465.2,1583.13,456.67,1585.39Zm137.86-36.73a19.49,19.49,0,0,1,9.05-2.73l.45-.47.4-2.38c7.07-42.56,29.75-182.78,34.84-259.46.38,2.69,1,5.38,2,9.64.87,3.64,2.06,8.63,3.6,15.79,1.07,5,1.82,9.06,2.55,13,1.81,9.88,3.53,19.22,9.79,39.78a36.19,36.19,0,0,1,1.47,9.91,50.24,50.24,0,0,0,.51,6,36.51,36.51,0,0,0,2.48,9.52c1.52,3.85,3.24,8.22,5.36,31.8l0,0,.47-.53-.43.55.7.33-.72-.3,0,0c0,.09,0,.35.11.77a101,101,0,0,0,3.14,15,35.5,35.5,0,0,1,1.15,15.77c-.35,3.13-.6,5.39.82,7.26l.07.1h0c4.48,5.54,4.57,5.93,5.33,9.52.7,3.26,2,9.32,7.7,24.24,1.83,4.49,2.07,12.61,2.23,18,.06,1.87.1,3.35.2,4.27a9.19,9.19,0,0,0,.72,2.73,13.57,13.57,0,0,1,1,4.56,48.54,48.54,0,0,0-5-1.31,1.81,1.81,0,0,0-.81-.19,1.55,1.55,0,0,0-.37,0h-.21a3.47,3.47,0,0,0-2.61,1.28C666.26,1528,657.59,1531,594.53,1548.66Z"/>
        <path class="cls-4" d="M520.43,938c5.54,4.23,6.69,8.84,8.36,15.55.59,2.37,1.26,5.06,2.21,8a51.81,51.81,0,0,0,4.49,10.17c3,5.48,5.14,8.75,6.67,11.14,2,3.07,2.85,4.47,3.58,7.08a18.49,18.49,0,0,1,.66,6.9,11.78,11.78,0,0,0,1.43,7.24,20.93,20.93,0,0,0,3,4.1,21.88,21.88,0,0,1,3.53,5,28.24,28.24,0,0,1,2.72,8.37l.07.37c1.38,7.42,5.25,13.92,9.35,20.81,5.71,9.59,11.62,19.52,10.88,32.65a34.11,34.11,0,0,1-.41,3.54l-.24,1.73c-1,7.26-1.71,14.4-2.45,22-1.11,11.38-2.36,24.27-5,41.09-3.77,23.77-7.71,43.6-11.53,62.77s-7.46,37.49-10.86,59.14c-17.9,114.07-29,173.76-35.58,209.42-8.65,46.65-10.45,56.35-11.24,97.71l.86.36L457,1584.79a3.12,3.12,0,0,0-3-1.75,7.76,7.76,0,0,0-2,.31,5.33,5.33,0,0,0-2.91-1,3.93,3.93,0,0,0-1.41.25c3.47-16.09,6-25.18,8-32.57,4.62-16.67,6.93-25,12.57-85,.83-8.93,1.73-15.59,2.59-22,1.36-10.06,2.76-20.46,3.91-39.64,2.38-39.54,2.73-41.86,4.65-54.7.64-4.26,1.43-9.55,2.53-17.67,2.82-20.85,3.57-35.47,4.29-49.61a554.86,554.86,0,0,1,7.08-68.89c5.71-35.36,8.85-70.18,11.89-103.85,4.72-52.3,9.17-101.71,22.52-150.22l-.08-.73c-3.37-6.45-6.81-14.63-7.22-19.76m69.08,174.66c20,41.16,20.76,65.27,21.18,78.37,0,1.53.1,2.85.17,4l.53,0-.53.06a15.43,15.43,0,0,0,4,8.56c.93,1,1.76,1.93,2.49,2.72,4.69,5.05,5.53,6,7.26,20l.1.09h-.08c2.48,10.66,5.42,14.9,8,18.64,3.19,4.59,5.75,8.28,5.76,23.66l-.07-.08a8.79,8.79,0,0,0-6.27-2.58c-3.78,0-7.73,2.48-8,8-3.48,69.14-19.74,170.85-29.46,231.62-3.57,22.34-6.2,38.77-6.64,44.23-5.52,1.49-39.86,10.62-72.11,19.19l.5-.54c.9-40,4.14-56.53,12-96.47,5.38-27.44,12.75-65,22.87-128.29,16-100.24,24-142.5,28.81-167.76,4.54-24,6.34-33.51,9.49-63.46M612.86,1195h0m26.64,92.68c.34,1.62.78,3.44,1.32,5.71.87,3.64,2,8.63,3.59,15.79,1.07,4.95,1.82,9,2.55,13,1.82,9.89,3.54,19.24,9.8,39.83a35.85,35.85,0,0,1,1.45,9.78,53.22,53.22,0,0,0,.51,6.06,36.9,36.9,0,0,0,2.51,9.63c1.51,3.83,3.22,8.16,5.33,31.66l.11.07,0,.06h0l0,0c0,.09,0,.35.1.73a101.7,101.7,0,0,0,3.16,15,35.17,35.17,0,0,1,1.14,15.57c-.35,3.12-.63,5.59.91,7.61h0l.08.1h0c4.42,5.45,4.48,5.75,5.24,9.31.7,3.27,2,9.36,7.73,24.34,1.79,4.4,2,12.46,2.19,17.8.06,1.88.1,3.36.2,4.29a9.4,9.4,0,0,0,.75,2.87,12.38,12.38,0,0,1,.93,3.7,44,44,0,0,0-4.31-1.11,2.3,2.3,0,0,0-1-.21,2.69,2.69,0,0,0-.4,0h-.18a4,4,0,0,0-2.92,1.37c-13.42,6.43-22,9.5-75.7,24.59.06-.35.18-1.08.36-2.16,7-41.84,29-178,34.58-255.51M513.39,1569.8l-10.72,2.85c2.24-1.7,5.28-2.24,10.72-2.85m6-633.76c-.58,5.9,4.71,17.12,7.34,22.15-22.14,80.43-20,164.91-34.44,254.18-9.32,57.69-5,71.35-11.37,118.53-4.47,33.1-4,20-7.19,72.44-1.88,31.31-4.34,38.59-6.5,61.63-8.32,88.58-9.4,64.44-21.31,120.88l.25-.06a3,3,0,0,1,2.87-2.4,4.66,4.66,0,0,1,2.72,1A8.94,8.94,0,0,1,454,1584a2.15,2.15,0,0,1,2.34,2c.5-.13,128.78-34.2,132.6-35.26.84-15.88,31.29-179.68,36.16-276.58.24-4.89,3.6-7.06,7-7.06,3.72,0,7.48,2.6,7.26,7.06-4.25,85.34-35.76,270.77-35.79,271.27a20.15,20.15,0,0,0-11.78,4.52c67.12-18.75,74.69-21.47,89.13-28.4a3,3,0,0,1,2.29-1.18h.24a1.32,1.32,0,0,1,.34,0,1.37,1.37,0,0,1,.65.17,54.13,54.13,0,0,1,5.71,1.5,1.27,1.27,0,0,0,0-.2c-.28-4.9-1.51-5.07-1.77-7.82-.38-3.52,0-16.24-2.46-22.37-12-31.35-4.39-23.12-13.16-34l0,.07-.06-.08h0c-2.93-3.86,2-10.14-1.89-22.87a106.29,106.29,0,0,1-3.25-15.71h0v0h0c-3.31-36.89-5.66-26.89-7.84-41.35-.89-5.72,0-9.55-2-16-8.73-28.72-8.57-35.3-12.32-52.75-5.35-25-6.3-22.7-6-36.91.64-31.69-8-20.71-13.78-45.8h0c-2-16.52-3-15.37-10-23.26a14.29,14.29,0,0,1-3.75-8h0c-.66-11.69,1-37.76-23-85.91-6.8,65.93-6.89,35.87-38.65,234.61-24.76,154.83-33.34,157.12-34.86,224.9-7.54.8-11.46,1.27-14.35,4.2,1.41-73.43,5.92-46.48,46.81-307,6.86-43.69,14.92-74.8,22.39-121.91,4.45-28,4.95-45,7.48-63.06.45-3.21.58-3.9.66-5.35,1.28-22.81-17-36.06-20.25-53.7a29.88,29.88,0,0,0-2.88-9c-2.44-4.75-4.53-5.45-6.51-9.15-2.86-5.37,0-6.8-2-13.94-1.35-4.85-3.32-5.85-10.34-18.44a50.12,50.12,0,0,1-4.4-10c-3.82-11.87-3-18.89-12.53-25.19Z"/>
      </g>
      <g>
        <path class="cls-4" d="M630.41,973.94c4.4,20,8.2,33.88,11.18,47.07-3.64-17.75-7.9-32.17-11.18-47.07Z"/>
        <path class="cls-4" d="M648.11,1068.67c1,20.06.71,46.46-1.22,86.61-1.18,24.65-3.48,41.71-5.45,59.19,8.22-66.47,9.11-111.88,6.67-145.8Z"/>
        <path class="cls-4" d="M583.06,1039c1.27,20,2.63,42.22,2,58.17.71-16.87-.67-38.49-2-58.17Z"/>
        <g>
          <path class="cls-11" d="M584.61,1094.69c-1.16-3.19-2.31-6.77-2.49-7.61l-.07-.16c-.84-1.32-1.56-2.48-2.36-3.79l-.12-.13c-4.41-3.35-7.39-7.18-8.84-11.4a18.64,18.64,0,0,1-1-6,19.78,19.78,0,0,0-1.71-8.06,25,25,0,0,0-2.44-4.38,12,12,0,0,1-2.22-5.09,20.42,20.42,0,0,1-.32-3.35,9.63,9.63,0,0,0-1.06-4.74,9.91,9.91,0,0,0-3.34-3.54A10.65,10.65,0,0,1,557,1035c-2.65-2.84-2.42-8.65.68-17.25a262.85,262.85,0,0,1,23-15.67c0,9.4.86,22.25,1.75,35.82l.08,1.12C583.68,1056.73,585.07,1078.5,584.61,1094.69Z"/>
          <path class="cls-4" d="M580.23,1003c.07,9.32.89,21.77,1.75,34.92l.08,1.16c1.06,16.68,2.36,37,2.11,52.85-.8-2.36-1.44-4.43-1.56-5l-.14-.32c-.71-1.12-1.48-2.35-2.35-3.78l-.25-.27c-4.33-3.29-7.25-7-8.67-11.16a18.45,18.45,0,0,1-1-5.91,20.06,20.06,0,0,0-1.75-8.23,24.93,24.93,0,0,0-2.49-4.47,11.33,11.33,0,0,1-2.13-4.9,20.16,20.16,0,0,1-.32-3.28,10.12,10.12,0,0,0-1.12-5A10.49,10.49,0,0,0,559,1036a10.44,10.44,0,0,1-1.56-1.28c-2.49-2.68-2.24-8.27.75-16.6A262.76,262.76,0,0,1,580.23,1003m1-1.77Zm0,0a260.31,260.31,0,0,0-23.94,16.25c-3.94,10.88-2.74,15.62-.63,17.89,1.45,1.56,3.42,2.06,4.89,4.79s.67,4.41,1.33,7.95c.84,4.41,2.65,4.84,4.69,9.57,2.73,6.33.76,8.5,2.69,14.08,1.06,3.08,3.36,7.34,9,11.63.8,1.31,1.53,2.46,2.37,3.79.23,1,2,6.43,3.39,10,.67-16-.69-38.14-2-58.17-1-14.58-1.87-28.08-1.83-37.79Z"/>
        </g>
        <g>
          <path class="cls-11" d="M1143.65,1529.75c-14.78-7.75-25.16-13.46-30.84-17l-.14-.08a86.29,86.29,0,0,0-8.36-4.58c-1.36-.65-2.8-1.22-5.67-2.35-4.82-1.91-13.8-5.47-33.59-13.81h0c-42.77-18.56-66.57-26.84-94.32-26.84-11.39,0-24.25,1.33-43,4.45-11,1.82-13.6,2.19-17.87,2.81h-.11c-3.23.47-6.49.88-9.94,1.32-6.4.82-13.66,1.75-24.26,3.39-29.21,4.54-43.3,7.14-52.62,8.86-14.81,2.74-17,3.15-47.67,5.38,26.84-7.63,86.76-30.1,101.42-36.31h0c45.62-18.81,60.42-27.77,92.76-47.37,6.2-3.76,13.23-8,21.2-12.79,5.59-3.34,11.57-6.94,17.43-10.63,2.3-1.44,6.17-4.06,6.73-4.46,17.92-12.58,30.85-24.82,45.82-39,9.09-8.61,19.4-18.37,32.24-29.54,12.7-11,20.13-18.1,22.08-21.07a2.94,2.94,0,0,0,.09-2.85c-.53-.8-1.62-1.18-3.33-1.18-5.56,0-16.62,4.08-24.46,7.16-14.43,5.64-26.56,11-37.26,15.82-9.81,4.37-18.29,8.15-26.24,11.1-1.53.57-14.41,4.85-23.08,7.49-10.49,3.22-25.68,7.65-38.52,10.57-75.15,17.11-80.76,20.62-99.37,32.24-6.66,4.17-14.81,9.26-28.32,16.37C874,1353.72,879,1348,885.39,1340.8c2.4-2.71,4.87-5.5,9.41-10,2.91-3.09,5.72-5.82,8.7-8.71,13.79-13.42,31-30.12,72.45-97.6,5.37-9,24.88-52.2,28-65a92.14,92.14,0,0,0,2.7-19.15c.35-6.76.63-12.11,5.71-23.74,1.31-3,2.86-6.19,4.36-9.27,4.1-8.44,7.64-15.72,6-18.26a2.18,2.18,0,0,0-2-1c-2.66,0-7.7,2.72-15.86,8.57-12.23,8.7-24.48,17.14-36.33,25.3-42.25,29.07-82.15,56.53-111.38,89.71-25.75,29.16-48.79,67-73.17,107.15-20.26,33.31-41.21,67.76-64,97l0,0c-16.08,19.69-37.89,43.52-42.31,48.2-.08-.23-.11-.3-.2-.52l-.12-.28c4.65-5.55,8.47-10,11.84-14,17-19.93,18.75-22,30-47.47l6.27-14.24c6.7-15.24,8.29-18.87,13.51-29.43,12.61-25.53,16.72-38.12,21.07-51.45,2.12-6.48,4.31-13.19,7.57-21.58a198.86,198.86,0,0,1,11.75-24.67c2.49-4.56,4.65-8.3,6.56-11.61,2.81-4.85,5-8.69,7-12.92a126.53,126.53,0,0,0,6.78-17.53c2.63-8.7,4-18.42,5.4-27.81,1.08-7.51,2.11-14.6,3.71-21.13.57-2.38,1.29-5,2.13-8,3.85-14,10.31-37.37,18.11-93.3,1.5-11.18,2.89-20,4.11-27.83,3.85-24.51,6-38,4.51-78.15-.17-4.65-.42-8.87-.67-12.95-.86-14.32-1.61-26.69,1.55-50.59.27-1.85.58-3.81.9-5.72,1.14-7,1.74-11,.79-12.14a.92.92,0,0,0-.73-.35c-.53,0-1.31.35-3.08,2.94a69.05,69.05,0,0,1-4.29,5.47c-6.71,8-17.93,21.34-52.45,86.43-8.61,16.1-18.6,39-25.22,54.14-2.69,6.17-4.82,11.05-6.15,13.87-11,23.24-21,41.12-29.74,56.89-23.63,42.4-40.71,73-52.8,163.61l0,0c0,.23-.14.85-.29,1.82-5.29,33.4-9.94,60-13.19,75.25-13-51.06-12.74-60.92-12.52-70.46a86.43,86.43,0,0,0-.26-11,40.22,40.22,0,0,0-.81-4.57c.52-14.89,1.62-26.86,3.13-40.25,7.3-59.11,9.48-106.83,6.67-145.89a260.34,260.34,0,0,0-6.53-47.74c-2.08-10.12-4.35-19.12-6.54-27.83-1.63-6.48-3.17-12.6-4.56-18.88,68-37.78,125.93-72.61,177-106.46,5.57-3.69,12.74-9.12,21.82-16,26.35-20,66.17-50.09,121.32-79.29,8.64-4.57,17.44-9,26.18-13.28,25.83,61.93,49.59,125.27,70.63,188.29,36.33,108.8,62.71,211.46,74.28,289.06,3,20.09,5.57,40.44,7.65,60.49,1.64,14.67,2.48,23.62,3.22,31.53.92,9.75,1.71,18.18,3.68,34.35,1.25,10.24,2.2,17.21,3,22.81,1.27,9.27,2,14.86,2.78,25.42,1,14.49,1.1,24.75,1.15,48.6C1143.7,1483,1143.7,1506.55,1143.65,1529.75Z"/>
          <path class="cls-4" d="M977,759.85c25.74,61.76,49.43,124.93,70.42,187.76,36.32,108.78,62.69,211.41,74.25,289,3,20.07,5.57,40.41,7.66,60.48,1.64,14.66,2.47,23.61,3.21,31.51.92,9.76,1.71,18.2,3.68,34.37,1.25,10.24,2.2,17.21,3,22.81,1.26,9.26,2,14.85,2.77,25.4,1,14.47,1.1,24.73,1.15,48.57,0,23,0,46.3,0,69.19-14.38-7.54-24.49-13.11-30.08-16.56l-.13-.08a88.25,88.25,0,0,0-8.42-4.6c-1.37-.65-2.81-1.23-5.69-2.37-4.82-1.9-13.79-5.46-33.58-13.8h0c-42.84-18.59-66.67-26.88-94.51-26.88-11.42,0-24.31,1.33-43.09,4.46-11.08,1.83-13.66,2.2-18,2.82-3.23.46-6.34.86-9.95,1.32-6.4.82-13.65,1.75-24.24,3.39-29.23,4.53-43.31,7.14-52.64,8.86-14,2.58-16.74,3.09-43,5,28.55-8.64,83.09-29.12,97-35h0c45.66-18.82,60.47-27.79,92.83-47.4,6.2-3.76,13.22-8,21.2-12.79,5.58-3.34,11.56-6.94,17.44-10.64,2.29-1.44,6.18-4.07,6.74-4.47,18-12.61,30.9-24.85,45.88-39,9.09-8.6,19.39-18.36,32.26-29.55,12.71-11,20.16-18.14,22.13-21.14l.09-.16a3.33,3.33,0,0,0,0-3.24c-.63-1-1.86-1.41-3.75-1.41-5.64,0-16.76,4.1-24.64,7.19-14.43,5.65-26.57,11.06-37.28,15.83-9.8,4.37-18.27,8.15-26.21,11.09-1.53.57-14.38,4.84-23.06,7.49-10.48,3.2-25.65,7.64-38.48,10.56-75.23,17.12-80.86,20.64-99.52,32.3-5.94,3.71-13.06,8.16-24.1,14.12,36.23-30.52,41.18-36.13,47.37-43.11,2.39-2.7,4.86-5.49,9.41-10,2.89-3.07,5.7-5.79,8.67-8.68,13.81-13.44,31-30.17,72.53-97.71,5.38-9,24.93-52.3,28-65.13a91.7,91.7,0,0,0,2.71-19.23c.36-6.71.63-12,5.68-23.57,1.31-3,2.85-6.17,4.35-9.26,4.81-9.89,7.67-16.09,6-18.74a2.67,2.67,0,0,0-2.43-1.2c-1.74,0-5.32.9-16.15,8.66-12.22,8.7-24.48,17.14-36.33,25.3-42.27,29.09-82.19,56.57-111.46,89.78-25.79,29.2-48.83,67.1-73.23,107.23-20.25,33.3-41.19,67.74-64,97l0,0c-13.55,16.59-31.16,36.11-39,44.63,3.39-4,6.32-7.47,9-10.59,17-20,18.8-22.08,30.05-47.59l1.43-3.24c1.88-4.26,3.47-7.88,4.84-11,6.7-15.24,8.29-18.86,13.51-29.42,12.62-25.56,16.74-38.17,21.09-51.51,2.12-6.48,4.31-13.18,7.57-21.56a198.53,198.53,0,0,1,11.72-24.61c2.48-4.56,4.65-8.3,6.56-11.6,2.81-4.87,5-8.71,7-13a126.42,126.42,0,0,0,6.81-17.61c2.64-8.74,4-18.46,5.41-27.87,1.08-7.5,2.11-14.58,3.7-21.09.58-2.37,1.3-5,2.13-8,3.86-14,10.32-37.39,18.13-93.37,1.49-11.16,2.88-20,4.11-27.81,3.85-24.55,6-38.07,4.51-78.24-.17-4.66-.42-8.89-.67-13-.86-14.29-1.6-26.64,1.55-50.48.26-1.86.58-3.82.89-5.72,1.3-8,1.72-11.33.69-12.55a1.47,1.47,0,0,0-1.12-.52c-1,0-1.94.89-3.49,3.16a67.78,67.78,0,0,1-4.27,5.43c-6.72,8-18,21.38-52.5,86.51-8.62,16.12-18.62,39-25.24,54.19-2.69,6.17-4.81,11-6.14,13.85-11,23.23-20.94,41.09-29.73,56.86-23.66,42.44-40.75,73.11-52.86,163.78l0,0c0,.2-.11.66-.29,1.81-5.05,31.9-9.52,57.55-12.74,73.11-12.42-49.17-12.19-58.85-12-68.23a86.89,86.89,0,0,0-.26-11.05,41.78,41.78,0,0,0-.81-4.61c.52-14.83,1.62-26.78,3.12-40.12,7.31-59.15,9.49-106.9,6.68-146a261.35,261.35,0,0,0-6.54-47.81c-2.08-10.14-4.35-19.15-6.54-27.86-1.6-6.35-3.11-12.36-4.48-18.5,67.9-37.72,125.71-72.5,176.71-106.3,5.58-3.7,12.76-9.14,21.84-16,26.34-19.93,66.14-50.06,121.26-79.24,8.47-4.49,17.11-8.87,25.68-13m.51-1.36c-6.25,3-15.55,7.64-26.66,13.52-74.31,39.34-121.6,81-143.18,95.3C766,895,710.65,929.38,630.41,973.94c3.28,14.9,7.54,29.32,11.18,47.07a260.81,260.81,0,0,1,6.52,47.66c2.44,33.92,1.55,79.33-6.67,145.8-1.38,12.31-2.6,24.83-3.14,40.36a38.51,38.51,0,0,1,.82,4.57c1.67,18.72-4.64,13.34,13.32,83.61,5.67-25.91,13.84-78.74,13.94-79.24l0,0c16.58-124.12,41.95-134.54,82.5-220.34,4.68-9.91,19.32-45.47,31.37-68,43-81.09,49.92-81.94,56.7-91.85,1.3-1.9,2.15-2.72,2.67-2.72,1.8,0-.33,9.72-1.45,17.65-4.08,30.85-1.64,42.86-.89,63.62,1.92,52.93-2.44,59.83-8.61,105.89-9.5,68.07-17,87.9-20.24,101.26-3.66,14.93-4.42,33.46-9.1,48.91a125,125,0,0,1-6.75,17.47c-3.34,7.12-7.47,13.34-13.56,24.5a204,204,0,0,0-11.77,24.73c-9.84,25.28-9.77,34.8-28.63,73-6.3,12.75-7.3,15.36-18.37,40.46,0,0-1.41,3.22-1.42,3.24-13.4,30.38-13.16,27.22-41.93,61.58a15.46,15.46,0,0,1,.67,1.84c3-3.08,26.42-28.62,43-48.89h-.06C769.91,1352.59,809.86,1266,857.57,1212c37.39-42.44,91.88-75.25,147.62-114.94,8.42-6,13.21-8.47,15.57-8.47,5.94,0-3.45,15.42-8.85,27.8-8.82,20.16-3.32,21.95-8.45,43-3,12.45-22.49,55.69-27.94,64.85-50.19,81.64-64.38,88.52-81.07,106.21-17.05,17-5.58,10.24-63.83,59.06,57.19-29.49,27.42-27,131.62-50.68,12.27-2.79,27.06-7.06,38.55-10.58,8.78-2.68,21.58-6.93,23.12-7.5,16.69-6.19,35.93-16.14,63.51-26.93,5.61-2.2,18.34-7.12,24.27-7.12,2.53,0,3.82.89,2.82,3.26-2.9,4.42-18,17.46-22,21-34,29.58-49.25,48.3-78,68.5-.5.36-4.4,3-6.7,4.44-5.72,3.6-11.51,7.09-17.43,10.63-49.71,29.74-59.61,37.77-114.19,60.24l.3-.1c-15.41,6.53-83,31.83-106.44,37.64,57.05-4.1,27.54-2.5,105.58-14.61,16.54-2.57,25.2-3.42,34.19-4.71,4.35-.63,6.87-1,18-2.82,17-2.82,30.4-4.45,42.93-4.45,27,0,49.73,7.53,94.28,26.87l-.15-.08c31.66,13.35,35.66,14.44,39.23,16.15a85.74,85.74,0,0,1,8.46,4.64c4.42,2.72,13.08,7.66,31.6,17.35,0-20.5.06-44.3,0-70.85-.05-24.44-.13-34.32-1.15-48.63-1.21-16.88-2.4-20.86-5.74-48.26-3.62-29.61-3.29-33.59-6.9-65.87-1.51-14.55-3.93-35.48-7.66-60.51-3.9-26.15-19.33-124.55-74.3-289.15-16.78-50.28-39.92-114.71-70.85-188.81Z"/>
        </g>
        <g>
          <path class="cls-11" d="M1145.94,1641.38c-214-52.9-270.41-68.62-277.65-72,.75,0,1.86.09,3.35.19,3.73.25,10,.67,18.81.67l4.18,0c15.61-.22,22.81-.62,25.53-.77l.57,0c2.69-.14,7.66-.5,10.42-.76,15.43-1.47,22.34-2.94,36.1-5.86,5-1.06,10.63-2.27,17.94-3.74,48.24-9.68,56.93-11.43,65.06-11.43,1.71,0,3.36.08,5.46.17,1.67.08,3.59.17,6,.23,0,0,3.07,0,7.41,0s10.55,0,16.07-.26c21-.83,51.84-7.61,59.28-9.31l.76,51.85C1145.53,1614.31,1145.87,1637.12,1145.94,1641.38Z"/>
          <path class="cls-4" d="M1143.93,1539.1c.35,24,.68,46.46.74,50.62v.61c.34,23,.66,44.84.75,50.41-196.1-48.48-259.37-65.61-274-70.7h.2c3.73.25,10,.67,18.84.67l4.19,0c15.6-.22,22.82-.62,25.54-.77l.58,0c2.69-.14,7.67-.5,10.44-.76,15.46-1.47,22.37-2.94,36.14-5.87,5-1.06,10.63-2.27,17.95-3.74,48.2-9.67,56.88-11.42,65-11.42,1.71,0,3.36.08,5.44.17,1.69.08,3.6.17,6,.23.12,0,3.13,0,7.4,0s10.57,0,16.1-.26c20.64-.81,51.53-7.55,58.77-9.19m1-1.25c-3.71.86-37.53,8.57-59.79,9.44-5.37.21-11.44.26-16.06.26-4.33,0-7.39,0-7.39,0-5.25-.14-8.3-.4-11.43-.4-8.09,0-16.67,1.71-65.15,11.44-28.14,5.68-33.17,7.61-54,9.59-2.68.26-7.67.62-10.39.76-2.23.12-9.24.56-26.09.8l-4.17,0c-12.71,0-19.93-.86-22.41-.86-.63,0-.95.06-1,.19-.46,2,60.41,18.84,279.4,73,0-1.37-.39-25.85-.77-51.7,0-1.41-.38-26.23-.77-52.47Z"/>
        </g>
        <g>
          <path class="cls-8" d="M581.23,1001.24c0,9.71.87,23.21,1.83,37.79C582.1,1024,581.2,1010.27,581.23,1001.24Z"/>
          <path class="cls-4" d="M581.23,1001.24Zm0,0c0,9.71.87,23.21,1.83,37.79-1-15-1.86-28.76-1.83-37.79Z"/>
        </g>
        <g>
          <path class="cls-8" d="M641.43,1214.53c-2.36,19.08-2.78,30.36-3.13,40.3.54-15.53,1.76-28,3.14-40.36Z"/>
          <path class="cls-4" d="M641.44,1214.47h0Zm0,0v.06c-2.36,19.08-2.78,30.36-3.13,40.3.54-15.53,1.76-28,3.14-40.36Z"/>
        </g>
        <g>
          <path class="cls-8" d="M641.59,1021a363.51,363.51,0,0,1,6.52,47.66A260.81,260.81,0,0,0,641.59,1021Z"/>
          <path class="cls-4" d="M641.59,1021a363.51,363.51,0,0,1,6.52,47.66,260.81,260.81,0,0,0-6.52-47.66Z"/>
        </g>
      </g>
      <g>
        <path class="cls-7" d="M447.72,1919c-1.75-5.72-3.4-11.57-4.92-17.39-14-53.73-16.31-128-6.76-214.66,3.74-33.91,9.19-68.25,16.19-102.08l236.12-70.22L1083,1622.29c33.47,8.79,56.37,15.15,58.06,15.84l.48-.05a.71.71,0,0,1,.45-.14,1.21,1.21,0,0,1,.4.07l.21,0,94.83-9.87,158.26,263.27c-95.19-4.23-191.75-6.38-287-6.38-70.45,0-141.87,1.18-212.28,3.49C747.16,1893.45,596.22,1903.68,447.72,1919Z"/>
        <path class="cls-4" d="M688.36,1515.13l394.48,107.65c35.93,9.44,56.55,15.23,58,15.82l1-.11a.22.22,0,0,1,.16,0,.75.75,0,0,1,.24,0l.42,0,94.52-9.84,157.61,262.2c-94.9-4.2-191.14-6.34-286.11-6.34-70.45,0-141.88,1.18-212.3,3.49-149.06,4.91-299.87,15.12-448.26,30.38-1.69-5.58-3.3-11.29-4.78-17-14-53.66-16.3-127.83-6.75-214.48,3.72-33.78,9.15-68,16.12-101.74l235.7-70.09m0-1L451.8,1584.43c-8.63,41.62-13.43,76.76-16.25,102.42-14.2,128.84,1.77,195.64,6.77,214.84,2,7.66,3.83,13.87,5,17.81,140.39-14.45,290.36-25.24,449-30.46q108.74-3.57,212.27-3.49c99.84,0,195.91,2.32,287.93,6.42l-158.9-264.35-95.15,9.91a1.87,1.87,0,0,0-.56-.09,1.27,1.27,0,0,0-.74.23c-1.65-.67-23.66-6.81-58.12-15.86L688.35,1514.09Z"/>
      </g>
      <g>
        <polygon class="cls-11" points="431.47 2030.63 408.86 1892.78 604.88 1871.41 521.47 2030.63 431.47 2030.63"/>
        <path class="cls-4" d="M604,1872l-27.13,51.78-55.7,106.34H431.89l-22.45-136.91,99.89-10.89L604,1872m1.75-1.2h0Zm0,0-197.47,21.53,22.77,138.79h90.72q42-80.16,84-160.32Z"/>
      </g>
      <g>
        <path class="cls-10" d="M1152.21,1657.16c-9.23,0-9.24-18.24-9.28-95,0-32.56,0-77.16-.79-135.53-.24-19.14-1.28-39.84-7.14-61.51-3.66-13.48-5.17-31.5-7.09-54.33-3.37-40.18-8-95.21-28.59-156.56-30.18-89.86-48.88-176.08-50.92-185.61l-.06-.3c-4.86-20.68-19.2-57.86-34.38-97.21-14.92-38.68-30.35-78.68-37.65-105.44l-.6-.35a2,2,0,0,1-.44.06c-.24,0-.29-.07-.3-.1s-.26-.61.47-2.46v-.31c-.13-.52-.28-1-.41-1.52-.61-2.17-1.13-4-.59-5a1.71,1.71,0,0,1,1.11-.76,1.76,1.76,0,0,1,.46-.06,2.07,2.07,0,0,1,1.49.64l.83-.14c2.35-5.47,124-237.36,130.15-248.12,23.65-41.26,36.56-67.19,44.27-82.68,9.13-18.34,11.88-23.88,17.74-26.25l.15-.09a10.49,10.49,0,0,0,1.37-2c1.2-2,3-5,4.73-5,.88,0,1.74.82,2.57,2.45a49.75,49.75,0,0,0,3,5.1c1.71,2.63,3.06,4.71,5.63,13.26,11.83,39.42,35,83.31,43.78,97.28,15.19,24.21,24.52,44.14,34.4,65.24,14,29.79,29.76,63.56,65.89,117.24,22.17,32.92,35.1,44.14,42,50.17,7.55,6.55,8.71,7.55,8.32,23.74l-.16,6.41c-.8,31.76-10.64,76.16-24.27,137.63-13.32,60.06-29.89,134.81-45.16,229.49-2,12.61-4.25,30.43-5,38.52l0,.25c-.5,5.49-3,33.62-4.21,48.59-11.34,145.35-21.59,176.58-32.45,209.64a449.4,449.4,0,0,0-17,65.39c-.57,3-1.25,6.49-2,10.29-4.94,25.26-12.42,63.42-12.46,93.66,0,14.19-1.27,25.62-16.55,32.85s-29.86,9.76-42.73,12c-7.77,1.35-14.49,2.51-20.15,4.51-3.54,1.27-6,2-8,2Z"/>
        <path class="cls-4" d="M1176.75,392c.66,0,1.41.77,2.12,2.18a53.15,53.15,0,0,0,3,5.14c1.69,2.6,3,4.65,5.57,13.13,11.84,39.47,35.06,83.42,43.83,97.4,15.18,24.19,24.51,44.1,34.38,65.19,14,29.81,29.77,63.6,65.93,117.31,22.2,33,35.17,44.22,42.13,50.27,7.56,6.55,8.53,7.4,8.15,23.36l-.16,6.39c-.8,31.71-10.64,76.1-24.26,137.53-13.32,60.08-29.89,134.84-45.17,229.53-2,12.62-4.25,30.45-5,38.56l0,.6c-.9,9.92-3.11,34.47-4.18,48.25-11.34,145.29-21.58,176.49-32.42,209.52a449.21,449.21,0,0,0-17,65.44c-.57,3-1.26,6.56-2,10.29-5,25.27-12.43,63.47-12.47,93.76,0,14-1.25,25.29-16.27,32.4-15.21,7.19-29.76,9.72-42.59,12-7.8,1.35-14.53,2.52-20.24,4.53-3.49,1.25-5.9,2-7.85,2-3.81,0-6.26-2.83-7.53-17.29-1.22-14-1.23-37.8-1.25-77.25,0-32.56,0-77.16-.79-135.53-.24-19.18-1.28-39.91-7.16-61.64-3.64-13.43-5.16-31.44-7.07-54.24-3.38-40.21-8-95.28-28.62-156.68-30.17-89.84-48.87-176-50.9-185.56q-.06-.27-.06-.3c-4.87-20.72-19.21-57.91-34.4-97.28-14.92-38.67-30.34-78.65-37.64-105.39l-1.2-.71-.2,0a6,6,0,0,1,.51-1.86l0-.62q-.21-.79-.42-1.53c-.55-2-1.08-3.84-.63-4.63.08-.15.26-.36.8-.51a1.26,1.26,0,0,1,.33,0,1.64,1.64,0,0,1,1.13.47l1.65-.28c1.45-3.38,34.42-66.36,64.78-124.17,33.08-63,63.62-120.89,65.34-123.89,23.66-41.28,36.57-67.21,44.29-82.71,9.06-18.21,11.8-23.7,17.48-26l.3-.19a10.42,10.42,0,0,0,1.46-2.13c1-1.67,2.86-4.77,4.3-4.77m0-1c-2.83,0-5.37,6.17-6.43,7.16-11.26,4.55-11.27,20.2-62.26,109.14-3.64,6.34-127.27,241.4-130.18,248.17a2.57,2.57,0,0,0-1.86-.8,2.39,2.39,0,0,0-.59.08c-2.84.78-1.51,3.89-.46,7.89-.6,1.52-1,3.24.3,3.24a2.09,2.09,0,0,0,.56-.08c14.69,53.86,62.38,161.54,72,202.64.12.52,19,90.61,51,185.95,31.84,94.82,25.31,172.64,35.67,210.86,5.6,20.67,6.86,40.21,7.13,61.39,2.54,197.41-3.24,231.06,10.57,231.06,2.2,0,4.89-.85,8.19-2,14.93-5.27,38.33-4.88,62.92-16.52,15.36-7.26,16.81-18.9,16.84-33.29,0-34.87,10.17-81.2,14.45-103.87,18.07-95.87,32.49-57.53,49.47-275.08,1.28-16.47,4.18-48.33,4.23-48.83.67-7.66,2.85-25.47,5-38.49,31-192.21,67.86-304.51,69.44-367.19,0-2.14.1-4.27.16-6.41.77-31.76-4.64-6.16-50.45-74.2-61.59-91.5-63.53-123.89-100.29-182.47-9.82-15.65-32.41-59.46-43.72-97.16-3.83-12.75-5-11.21-8.63-18.43-1-2-2-2.73-3-2.73Z"/>
      </g>
      <g>
        <path class="cls-12" d="M.5,1653.34l152.68-35.1,403.55-88.77L553,1568.18c-9.92,4.94-290.09,144.48-335.93,170.37-42.52,24-135.33,50.36-177.34,50.36a56.48,56.48,0,0,1-12.63-1.17,30,30,0,0,0-6.61-.62,112.27,112.27,0,0,0-20,2.35Z"/>
        <path class="cls-4" d="M556.16,1530.11l-3.61,37.75c-13.61,6.78-290.18,144.54-335.71,170.25-42.46,24-135.14,50.3-177.09,50.3a56.66,56.66,0,0,1-12.51-1.15,29.81,29.81,0,0,0-6.73-.64A111,111,0,0,0,1,1788.86V1653.74l152.28-35,402.88-88.62m1.13-1.28-404.22,88.93L0,1652.94v137.13a114,114,0,0,1,20.51-2.45,28.82,28.82,0,0,1,6.5.61,56.8,56.8,0,0,0,12.74,1.18c42.29,0,135.61-26.73,177.58-50.43,47-26.52,336.16-170.47,336.16-170.47l3.8-39.68Z"/>
      </g>
    </g>
    <g>
      <polygon class="cls-5" points="1428.78 2009.5 1442.04 1814.39 1474.88 1788 1688.53 1723.43 1817.56 1685.93 1999.5 1657.15 1999.5 2009.5 1428.78 2009.5"/>
      <path class="cls-4" d="M1999,1657.74V2009H1429.31l13.21-194.36,32.6-26.19,213.54-64.54,129-37.48L1999,1657.74m1-1.17-182.58,28.88-129,37.5-213.75,64.6-33.09,26.59L1428.24,2010H2000V1656.57Z"/>
    </g>
    <path class="cls-4" d="M1529.67,924l21,15.63c-13.33,5-33.26,12.23-38.15,14-.06-.37-.13-.74-.2-1.11a8.11,8.11,0,0,0,1.22-9.73c-2.18-4.24-2.43-5.23-2.73-6.37a17.86,17.86,0,0,0-.68-2.2c2.58-1.44,5.32-2.86,9-4.75,2.76-1.42,6.18-3.18,10.53-5.47m.09-1.18c-11.09,5.84-16,8.21-20.86,11,1.62,4,.24,2.59,3.77,9.48a7.15,7.15,0,0,1-1.41,8.92c.17,1,.35,1.88.52,2.8,0,0,25.74-9.34,41-15l-23-17.1Z"/>
    <path class="cls-4" d="M1714.6,1121.55c15,19.56,17.25,23.53,19.6,27.73.87,1.57,1.78,3.18,3.35,5.63l-.39,2.19c-69.7,23.22-76.62,24.58-95,28.19-10.55,2.07-25,4.9-56.72,12.86-4.72-11.36-11.19-27.35-16.12-41.13,91.44-25.56,123.77-31.5,141.17-34.7l4.15-.77m.42-1.09c-15.82,3-45.45,7.47-147,35.88,4.85,13.66,11.35,29.81,16.84,43,89.18-22.38,43-4.75,153.24-41.47.18-1.06.37-2.12.56-3.16-6.11-9.4-2.27-6.52-23.59-34.24Z"/>
    <path class="cls-4" d="M1613.18,1001.18c2.2,2.56,7.42,8.63,10.33,12.07a156.16,156.16,0,0,1-33.77,12.93c-11.11,3.1-24.91,6.94-54.64,20-1.78-6-3.31-11.25-4.66-16,37-13.92,48.91-17.7,59.44-21,6.62-2.09,12.36-3.91,23.3-7.94m.3-1.18c-29,10.72-22.37,6.22-84.25,29.54,1.51,5.39,3.21,11.23,5.24,18,58.18-25.69,55.87-16.35,90.62-34-2.78-3.32-9.31-10.91-11.61-13.58Z"/>
    <path class="cls-4" d="M1574,959.36l1.59,1.56c4.26,4.17,10,9.83,18.32,18.65-9.42,3.19-15.18,5-20.29,6.64-11.17,3.56-18,5.71-50,17.95-1.89-7.73-3.68-15.42-5.58-24l1.75-.64c26.52-9.78,44.75-16.54,54.2-20.11m.25-1.16c-16.4,6.19-57.11,21.18-57.37,21.28,1.94,8.79,3.86,17.11,6.05,26,48.46-18.53,40.63-14.56,72.77-25.48-10.34-11.07-17-17.43-21.45-21.82Z"/>
    <path class="cls-4" d="M1668.37,1069.84c10,11.65,16,17.78,21.2,23.2,1.7,1.75,3.32,3.43,5,5.16-40.69,8-51.41,11.14-75.73,18.7a392.24,392.24,0,0,1-38.6,10c-6.3,1.35-12.26,2.63-19.52,4.66-2-6.25-3.26-10.45-5.57-18.22,15.06-7.67,99-39.33,113.26-43.53m.34-1.14c-12.38,3.44-102,37.24-114.79,44.16,2.6,8.74,3.92,13.06,6.1,20,19.06-5.4,28.83-5.54,59.07-15,24.63-7.66,35.59-10.79,77.4-19-7.06-7.61-13.3-13.25-27.78-30.13Z"/>
    <path class="cls-4" d="M1640.53,1034.58c3,3.92,5.24,6.83,7.14,9.31l2.7,3.52c-14.28,5-89.07,33.7-103,40-1.55-5.19-3.08-10.36-4.59-15.45,29.28-13,42.45-16.66,54.08-19.92,11.89-3.34,21.31-6,43.68-17.44m.28-1.27c-45,23.14-38.54,11.11-99.25,38.08,1.7,5.72,3.43,11.55,5.17,17.39,11.16-5.34,95.8-37.76,105.28-40.87-2.91-3.78-5.82-7.61-11.2-14.6Z"/>
    <path class="cls-4" d="M1952.5,788.54c1.57.46,2.79.8,3.76,1.06l-1.91,1.26c-.6-.76-1.21-1.53-1.85-2.32m-2.85-1.89c1.52,1.83,3,3.68,4.48,5.55,2.6-1.72,2.31-1.53,4.07-2.63,0-.18-.11-.36-.16-.53-1.75-.45-4.26-1.13-8.39-2.39Z"/>
    <path class="cls-4" d="M1507,905.39c-.37,1-.19.49-.64,1.61l1.65-.85-1-.76Z"/>
    <path class="cls-4" d="M1742.61,1360.36c1.15,9,1.79,14.15,2.74,28-14.74,4.91-21.83,7.56-28.09,9.91-10.28,3.86-19.17,7.19-57.73,18.92-3.69-15.67-5.43-22.2-7.33-29.22,16.41-5.08,28.13-8.13,38.49-10.83,16.37-4.26,29.36-7.65,51.92-16.75m.82-1.41c-37.91,15.41-48.73,14.73-92.45,28.32,2.14,7.9,3.91,14.5,7.82,31.16,63.66-19.35,47.57-16.09,87.6-29.4-1-14.8-1.64-19.84-3-30.08Z"/>
    <path class="cls-4" d="M1691.89,1720.29l-1.57.7,0-.1.39-.15,1.14-.45m22.49-8.66h0Zm0,0a258.36,258.36,0,0,0-24.78,8.49c-.39.94-.79,1.89-1.21,2.83,7.19-3.23,19.67-8.77,26-11.32Z"/>
    <path class="cls-4" d="M1765,1535.3c1,5.3,2.39,12.55,4,19.29-13.16,5.94-25.06,10.42-38.8,15.59-12.17,4.58-25.92,9.75-42.72,16.82-.83-8.36-1.79-18.64-2.23-23.46,13.93-6.24,31.31-12,49.68-18.07,9.72-3.22,19.76-6.54,30.06-10.17m.77-1.34c-31,11-60.06,19.23-81.57,29,.7,7.68,1.66,17.83,2.43,25.53,36.33-15.35,57.72-21.57,83.54-33.29-1.64-6.75-3.17-14.44-4.4-21.2Z"/>
    <path class="cls-4" d="M1775.54,1580.89c.71,3.34,1.27,6,1.78,8.44,2.12,10.22,2.87,13.79,8.23,31.73-6.94,1.74-23.39,5.51-40.76,9.5-21.8,5-44.3,10.15-53,12.42-.2-10.65-.37-15.58-1.54-28.25,19.77-8.47,33.21-13.5,46.21-18.37,12.09-4.52,23.52-8.8,39-15.47m.72-1.4c-33.2,14.33-48,17.82-87,34.61,1.28,13.71,1.41,18.54,1.62,30.18,13.68-3.73,82-18.92,96-22.51-7.06-23.54-6.4-23-10.55-42.28Z"/>
    <path class="cls-4" d="M1733.81,1186.48c-1,22.49-.3,30.11.87,41.74-23,5.31-43.22,7.52-62.81,9.66-22.63,2.48-44,4.81-65.32,11.82-2-5.24-5.64-14.63-10.65-26.55,28.06-7,42-9.79,53.24-12,19.43-3.87,28.37-5.64,84.67-24.65m1.06-1.42h0Zm0,0c-90.32,30.53-61,17.52-140.34,37.4,5.79,13.75,9.71,23.83,11.41,28.49,39.64-13.28,78.74-10,129.82-22-1.22-12.21-2-19.83-.89-43.93Z"/>
    <path class="cls-4" d="M1814.11,1682.32c.57.87,1.11,1.69,1.65,2.48-5.29,1.18-10,2-17.29,3.43l-8,1.49c7.66-2.48,14.66-4.73,23.59-7.4m.43-1.17c-14.92,4.45-24.44,7.71-40,12.66,25.57-5,32.6-6,42.85-8.36-1-1.47-2-2.92-2.88-4.3Z"/>
    <path class="cls-4" d="M1794,1646.53a86.47,86.47,0,0,0,5.77,12.17c-23.43,7.16-95,29-105.65,32.37-.22-6.7-.51-10.45-.89-15.53-.12-1.52-.24-3.17-.38-5.07,11.26-3.17,34.34-8.43,56.68-13.52,17.56-4,34.17-7.79,44.47-10.42m.61-1.19c-23.27,6-83.27,18.78-102.81,24.39.66,9.31,1.07,12.78,1.36,22.69,2.14-.76,107.83-33.05,108.09-33.13a89.28,89.28,0,0,1-6.64-14Z"/>
    <path class="cls-4" d="M1736.93,1255.19c.35,5.88.47,10.33.45,15.78-19.12,6-38.07,11.42-56.4,16.66-19.69,5.63-38.31,11-55.56,16.53l-2.22-6.7c-2.44-7.41-3.59-10.9-7.63-22.5,20.4-6.42,41.19-8.67,63.19-11,18.45-2,37.53-4.07,58.17-8.72m.93-1.23c-46.33,10.62-85.48,8.11-123.57,20.36,5.53,15.88,5.88,17.2,10.49,31.1,33.77-11,73.39-21.09,113.59-33.71.05-6.51-.12-11.41-.51-17.75Z"/>
    <path class="cls-4" d="M1737.25,1299.11a311.49,311.49,0,0,0,1.93,33.89c-25.68,10.53-38,13.7-54.9,18.08-10.37,2.67-22.09,5.7-39.46,11.09-3-9.73-7-21.77-10.72-32.63,25.4-8,42.63-12.87,59.3-17.59,13.79-3.9,26.84-7.6,43.85-12.84m1-1.35c-39,12.06-58.07,16.22-105.42,31.13,3.73,10.81,8,23.85,11.34,34.54,46.75-14.57,53.64-12.33,96.1-29.8a311.51,311.51,0,0,1-2-35.87Z"/>
    <path class="cls-4" d="M1746.63,1416.13c.79,15.5,3.26,28,5.87,41.26l.19,1c-32.14,12.82-45.76,16.31-78,23.28-1.69-8.65-5.55-24.38-7.9-33.92-.42-1.74-.79-3.25-1.08-4.42,35.68-10.76,39-12,50.85-16.37,6.06-2.23,14.29-5.27,30.1-10.8m.94-1.39c-49,17.1-27.8,11.2-83.08,27.88,1.59,6.6,7.45,29.91,9.38,40.21,32.77-7.06,46.37-10.42,80-23.85-2.86-14.53-5.53-27.5-6.26-44.24Z"/>
    <path class="cls-4" d="M1757.54,1485.13c1.66,10.57,2.4,15.84,3.43,23.24-13.08,4.63-25,8.59-35.57,12.08-16.24,5.39-30.35,10.06-42.72,15.22-.83-8.26-1.84-17.31-3.42-27.65,33.54-7.28,45.42-9.91,78.28-22.89m.79-1.39c-33.55,13.3-45.07,15.88-80.2,23.51,1.65,10.64,2.71,20,3.69,29.87,20.78-8.81,46.12-16,80.25-28.08-1.15-8.29-1.89-13.62-3.74-25.3Z"/>
    <path class="cls-4" d="M1839.29,648c0,2.31.1,4.43.2,6.62l-1.67-2.39-1.46-2.09c1-.69,1.91-1.38,2.93-2.14m1-2c-1.83,1.41-3.37,2.55-5.3,3.89,4.2,6,3.48,5,5.71,8-.27-4.5-.37-7.95-.41-11.88Z"/>
    <g>
      <path class="cls-3" d="M1541.88,1070.7c-3.33-11.2-5.42-18.22-6.44-21.64l-.37-1.22c30.19-13.31,44-17.15,55.15-20.24,10.22-2.84,18.31-5.09,34.74-13.39,6.74,8.07,9.92,12.21,15.09,18.93-22.46,11.52-31.79,14.13-43.58,17.43S1571.56,1057.54,1541.88,1070.7Z"/>
      <path class="cls-4" d="M1624.83,1014.83c6.4,7.68,9.57,11.78,14.46,18.14-22,11.26-31.29,13.85-43,17.12s-24.79,6.94-54.14,19.92c-3.42-11.53-5.51-18.53-6.44-21.65l-.07-.24c29.87-13.15,43.61-17,54.67-20,10.18-2.83,18.25-5.07,34.48-13.25m.26-1.25c-34.8,17.66-32.25,8.2-90.62,34,.71,2.41,3,10,7.09,23.83,60.89-27.05,54.12-14.86,99.25-38.08-5.46-7.1-8.64-11.26-15.72-19.73Z"/>
    </g>
    <g>
      <path class="cls-3" d="M1554.22,1112.14c-3.13-10.52-3.56-12-4.07-13.66-.41-1.36-.87-2.88-2.82-9.43,12.27-5.7,93-36.68,104.5-40.56,9.3,12.1,12.5,15.86,16,19.94C1653.11,1072.84,1568.78,1104.64,1554.22,1112.14Z"/>
      <path class="cls-4" d="M1651.65,1049.08c8.71,11.32,12,15.25,15.3,19.1-16.41,5.1-96.66,35.39-112.42,43.24-3-10-3.4-11.42-3.9-13.08-.4-1.33-.85-2.81-2.7-9,13.36-6.08,91.22-36,103.72-40.24m.36-1.17c-9.13,3-94,35.47-105.28,40.87,4.6,15.44,1.24,4.11,7.19,24.08,12.91-7,101.57-40.48,114.79-44.16-3.77-4.41-6.79-7.9-16.7-20.79Z"/>
    </g>
    <g>
      <path class="cls-3" d="M1568.29,1155.74c-3-8.46-4.43-12.47-7.63-22.59,7.48-2.1,13.51-3.39,19.88-4.76a388.92,388.92,0,0,0,38.7-10.05c24.56-7.64,35.23-10.71,77.07-19l.62.66a257.39,257.39,0,0,1,17.19,20.08c-52.88,10.07-65.91,14.14-82.38,19.29-6,1.89-12.31,3.84-21.17,6.29-7.66,2.11-15.49,3.83-23.07,5.49C1580.61,1152.7,1574.08,1154.13,1568.29,1155.74Z"/>
      <path class="cls-4" d="M1696.13,1099.92l.43.47c5.28,5.69,9.87,10.64,16.67,19.39-52.25,10-65.23,14-81.64,19.15-6,1.89-12.3,3.84-21.16,6.29-7.64,2.11-15.47,3.82-23,5.48-6.73,1.48-13.1,2.88-18.8,4.43-2.85-8-4.27-12.06-7.31-21.63,7.24-2,13.13-3.29,19.36-4.62a389,389,0,0,0,38.74-10.07c24.49-7.61,35.15-10.69,76.74-18.89m.36-1.09c-41.72,8.22-52.7,11.35-77.4,19-30.51,9.49-39.82,9.5-59.07,15,3.38,10.67,4.81,14.69,8,23.53,12.2-3.41,27.89-6.06,42.73-10.16,33.09-9.14,31.19-11.82,104.32-25.72a271.34,271.34,0,0,0-18.53-21.63Z"/>
    </g>
    <g>
      <path class="cls-3" d="M1590.12,1210.71c-1.92-4.57-2.88-6.84-4.63-11,30.86-7.73,45.24-10.56,55.76-12.64,19.18-3.77,26.4-5.2,96.16-28.43a161.49,161.49,0,0,0-3,26.1c-57,19.26-66,21.06-85.71,25-11.37,2.26-25.5,5.08-53.86,12.18Z"/>
      <path class="cls-4" d="M1736.77,1159.34a159,159,0,0,0-2.87,25c-56.68,19.16-65.68,21-85.32,24.87-11.32,2.25-25.37,5-53.46,12.08-2-4.74-3.38-8-4.47-10.6-1.89-4.48-2.85-6.76-4.47-10.66,30.45-7.63,44.72-10.44,55.17-12.5,19.12-3.76,26.37-5.19,95.42-28.18m1.28-1.48Zm0,0c-109.94,36.63-66.18,19.62-153.24,41.47,3,7.15,3.63,8.66,9.72,23.13,78.9-19.78,50.38-7,140.34-37.4.54-11.86,1.16-15.73,3.18-27.2Z"/>
    </g>
    <g>
      <path class="cls-3" d="M1614.6,1273.69c-4.08-11.7-4.32-12.36-7.7-21.59l-.31-.84c21.51-7.14,42.24-9.35,64.18-11.69,19.7-2.1,40.07-4.27,64.55-10l.1,1c.54,5.35,1.28,12.66,1.91,23-20.74,4.73-39.9,6.79-58.44,8.79C1656.59,1264.76,1635.53,1267,1614.6,1273.69Z"/>
      <path class="cls-4" d="M1734.88,1230.23l0,.44c.53,5.28,1.26,12.45,1.89,22.5-20.55,4.65-39.58,6.7-58,8.69-22.15,2.39-43.1,4.65-63.92,11.21-3.92-11.26-4.2-12-7.54-21.13l-.13-.37c21.28-7,41.84-9.18,63.58-11.5,18.66-2,39.77-4.24,64.06-9.84m.88-1.24c-53.46,12.51-89.42,8.42-129.82,22,3.93,10.7,3.93,10.68,8.35,23.37,38.42-12.35,77.34-9.77,123.57-20.36-.71-11.55-1.53-19.26-2.1-25Z"/>
    </g>
    <g>
      <path class="cls-3" d="M1631.05,1322.29c-1.85-5.33-3.2-9.21-5.63-16.55,17-5.52,36.08-11,56.22-16.74,18.48-5.29,37.58-10.76,56.23-16.61,0,4.21-.06,7.42-.09,10.17-.06,5.37-.1,9,0,14.83-17.31,5.35-30.57,9.1-44.61,13.08-16.87,4.78-34.31,9.71-60,17.8C1632.35,1326,1631.67,1324.07,1631.05,1322.29Z"/>
      <path class="cls-4" d="M1737.37,1273.07c0,3.88-.06,6.89-.09,9.49-.06,5.25-.09,8.8,0,14.46-17.13,5.29-30.3,9-44.24,13-16.77,4.75-34.1,9.66-59.55,17.65-.72-2.08-1.34-3.88-1.92-5.54-1.81-5.2-3.14-9-5.47-16,16.91-5.46,35.78-10.87,55.73-16.58,18.26-5.23,37.14-10.64,55.59-16.41m1-1.36h0Zm0,0c-39.2,12.31-80.51,23-113.59,33.71,3.44,10.36,4.77,14,8,23.47,47.26-14.88,66.66-19.15,105.42-31.13-.09-9.35,0-13,.13-26Z"/>
    </g>
    <g>
      <path class="cls-3" d="M1651.33,1386.64c-2-7.22-4.11-15-6.54-22.89,17.44-5.42,29.26-8.48,39.71-11.18,16.5-4.27,29.56-7.65,55.34-18.22q.09.66.18,1.53c.27,2.26.67,5.64,1.31,10.68a1.39,1.39,0,0,0-.92.63c-.6,1,.27,2.68,1.18,4.44l.52,1,.78,6c-23.08,9.36-36.2,12.78-52.79,17.09C1679.67,1378.44,1667.86,1381.51,1651.33,1386.64Z"/>
      <path class="cls-4" d="M1739.42,1335.06c0,.27.07.57.11.88.26,2.2.64,5.46,1.25,10.28a1.79,1.79,0,0,0-.8.72c-.74,1.25.19,3,1.17,4.92l.48.93.71,5.52c-22.82,9.24-35.88,12.64-52.36,16.93-10.33,2.69-22,5.73-38.31,10.77-1.88-6.94-3.94-14.36-6.26-21.93,17.18-5.33,28.87-8.35,39.21-11,16.39-4.24,29.4-7.6,54.8-18m.84-1.43c-42.29,17.4-49.66,15.32-96.1,29.8,2.45,7.93,4.65,15.83,6.82,23.84,43.46-13.51,54.45-12.87,92.45-28.32l-.83-6.45c-1.1-2.27-3.22-5.45-.71-5.5-.94-7.34-1.37-11.26-1.63-13.37Z"/>
    </g>
    <g>
      <path class="cls-3" d="M1664.85,1442c-1.3-5.41-2.51-10.59-3.72-15.81-.57-2.45-1.15-4.91-1.74-7.41,38.84-11.81,47.79-15.16,58.16-19,6.32-2.36,13.48-5,28.39-10,.44,6.49.57,10.12.74,15.08.1,2.63.2,5.63.37,9.6-15.89,5.56-24.32,8.66-30.48,10.93C1704.45,1429.79,1700.75,1431.15,1664.85,1442Z"/>
      <path class="cls-4" d="M1745.49,1390.39c.4,6.08.52,9.63.69,14.42.09,2.56.2,5.44.36,9.24-15.67,5.47-24,8.55-30.14,10.8-12.06,4.45-15.78,5.82-51.19,16.5-1.26-5.25-2.45-10.38-3.61-15.35-.53-2.28-1.07-4.57-1.61-6.89,38.46-11.7,47.4-15,57.73-18.92,6.23-2.33,13.27-5,27.77-9.8m.91-1.36c-40.27,13.39-24.27,10.15-87.6,29.4,1.92,8.15,3.69,15.89,5.69,24.19,54.81-16.54,35.13-11.14,83.08-27.88-.52-12-.45-15.12-1.17-25.71Z"/>
    </g>
    <g>
      <path class="cls-3" d="M1678.54,1506.65c-1.07-6.82-2.83-16.73-4.09-23.43,32.81-7.08,46.43-10.55,79-23.55l.1.54c1.82,9.2,2.74,13.89,4.22,23.21C1724.3,1496.68,1712.57,1499.26,1678.54,1506.65Z"/>
      <path class="cls-4" d="M1753.08,1460.35c1.78,9.05,2.7,13.72,4.14,22.76-33,13-44.8,15.67-78.27,22.93-1-6.64-2.7-15.93-3.92-22.44,32.31-7,46-10.47,78-23.25m.75-1.37c-33.69,13.47-47.43,16.84-80,23.85,1.3,6.89,3.17,17.45,4.26,24.42,35.13-7.63,46.65-10.21,80.2-23.51-1.57-10-2.53-14.74-4.5-24.76Z"/>
    </g>
    <g>
      <path class="cls-3" d="M1684.06,1555.52c-.59-6.43-1.1-12-1.7-18.08,12.55-5.3,26.86-10,43.42-15.53,10.62-3.52,22.64-7.5,35.88-12.19,1.91,13.75,2.51,17.92,3.58,23.91-10.69,3.79-21,7.21-31,10.51-18.3,6.06-35.6,11.79-49.56,18Z"/>
      <path class="cls-4" d="M1761.25,1510.39c1.8,13,2.41,17.23,3.43,22.91-10.55,3.73-20.74,7.1-30.6,10.37-18,6-35.1,11.62-49,17.77-.19-2.07-.37-4-.54-6-.58-6.3-1.08-11.78-1.67-17.73,12.45-5.23,26.65-9.93,43-15.36,10.47-3.47,22.3-7.39,35.32-12m.82-1.35c-34.29,12.17-59.42,19.25-80.25,28.08.85,8.48,1.52,16.06,2.42,25.8,21.49-9.72,50.25-17.86,81.57-29-1.16-6.41-1.74-10.57-3.74-24.92Z"/>
    </g>
    <g>
      <path class="cls-3" d="M1689.67,1613.37c-.52-5.53-1.07-10.93-1.66-16.64-.26-2.62-.53-5.26-.8-8,17.2-7.25,31.19-12.52,43.55-17.17,13.82-5.2,25.77-9.7,39.11-15.72,1,3.89,1.7,6.66,2.36,9.12,1.06,4,2,7.42,3.45,14.2-16,6.89-27.87,11.35-40.45,16.07C1722.19,1600.15,1708.7,1605.2,1689.67,1613.37Z"/>
      <path class="cls-4" d="M1769.53,1556.57c.88,3.6,1.59,6.21,2.21,8.55,1,3.89,2,7.27,3.37,13.77-15.79,6.8-27.58,11.22-40,15.9-12.91,4.84-26.24,9.84-45,17.85-.5-5.31-1-10.51-1.59-16-.26-2.49-.51-5-.77-7.57,17-7.18,30.92-12.4,43.19-17,13.64-5.13,25.47-9.58,38.6-15.49m.68-1.41c-25.91,11.76-47.15,17.92-83.54,33.29.89,8.89,1.78,17.19,2.56,25.65,37.82-16.26,53.86-20.29,87-34.61-2.51-11.68-3.46-13.7-6-24.33Z"/>
    </g>
    <g>
      <path class="cls-3" d="M1692.26,1669.08c-.54-7.83-.7-12.7-.9-24.42,8.2-2.21,31.46-7.53,54-12.69,17.69-4,34.42-7.88,41.15-9.6l.17.59c1.78,5.93,3.79,12.64,7.32,22-10.4,2.67-27.23,6.51-45,10.56C1726.58,1660.65,1703.47,1665.91,1692.26,1669.08Z"/>
      <path class="cls-4" d="M1786.13,1623l0,.12c1.75,5.83,3.72,12.41,7.14,21.55-10.43,2.66-27,6.43-44.46,10.41-22,5-44.69,10.18-56.12,13.38-.51-7.4-.66-12.28-.86-23.4,8.52-2.26,31.41-7.51,53.58-12.58,17.29-4,33.67-7.72,40.69-9.48m.68-1.21c-14.28,3.68-81.73,18.63-96,22.51.22,12.28.36,17.06,1,25.45,19.56-5.62,79.28-18.31,102.81-24.39-3.86-10.21-5.92-17.24-7.81-23.57Z"/>
    </g>
    <g>
      <path class="cls-3" d="M1690.49,1719.25c2.42-6,3.64-10.64,3.19-26.47,6.58-2.14,90.16-27.65,107.22-32.86l.12,0c2.56,4.49,8,13.69,12.73,21-25.15,7.52-31.18,9.77-33.77,10.73-2.16.81-2.16.81-8.7,2.23-2.9.63-7.06,1.53-13.25,2.91C1742.59,1700.15,1698,1716.48,1690.49,1719.25Z"/>
      <path class="cls-4" d="M1800.79,1660.48c2.56,4.48,7.66,13.07,12.18,20.09-24.64,7.37-30.6,9.6-33.17,10.55-2.12.8-2.12.8-8.62,2.21-2.9.63-7.07,1.53-13.26,2.91-15,3.32-56.63,18.5-66.55,22.15,2.15-5.55,3.22-10.53,2.82-25.25,8.27-2.64,82.44-25.29,105.76-32.41l.84-.25m.47-1.19c-.54.17-105,32-108.09,33.13.51,17.16-.91,21.23-3.57,27.7.5-.2,51.78-19.19,68.53-22.91,37.57-8.33.69.57,56.41-16.06-4.71-7.23-10.54-17-13.28-21.86Z"/>
    </g>
    <g>
      <path class="cls-3" d="M1529.57,1028.88c-2.19-7.8-4-14.75-6.06-23.07,32.68-12.49,39.27-14.59,50.17-18,5.08-1.61,11.39-3.62,21.87-7.17,4.81,5.15,8.71,9.47,17.08,19.18-10.88,4-16.62,5.83-23.24,7.93C1578.78,1011.06,1566.77,1014.86,1529.57,1028.88Z"/>
      <path class="cls-4" d="M1595.4,981.18c4.62,5,8.47,9.21,16.38,18.38-10.44,3.84-16.07,5.62-22.54,7.67-10.57,3.34-22.52,7.13-59.34,21-2.08-7.46-3.84-14.17-5.8-22.11,32.31-12.34,38.89-14.43,49.73-17.87,5-1.59,11.28-3.57,21.57-7.06m.29-1.16c-32.86,11.16-23.87,6.78-72.77,25.48,2.18,8.87,4.1,16.14,6.31,24,61.75-23.27,55.27-18.83,84.25-29.54-9-10.48-12.92-14.77-17.79-20Z"/>
    </g>
    <g>
      <path class="cls-3" d="M1517.24,978.81c-2.9-13.17-3.92-18.4-4.89-23.56,3.35-1.22,26.92-9.79,40.32-14.81A223.46,223.46,0,0,1,1573.33,958c-10.82,4.08-30.4,11.34-55.33,20.52Z"/>
      <path class="cls-4" d="M1552.59,941a223,223,0,0,1,19.83,16.81c-11,4.12-30.21,11.26-54.57,20.23l-.25.09c-2.72-12.37-3.75-17.59-4.68-22.57,4.47-1.62,26.67-9.7,39.67-14.56m.17-1.14c-14.49,5.43-41,15-41,15,1,5.56,2.08,10.89,5.09,24.56.15-.06,38.86-14.29,57.37-21.28a222.17,222.17,0,0,0-21.48-18.33Z"/>
    </g>
    <g>
      <path class="cls-3" d="M1509.14,933q-.15-.36-.3-.69c-.22-2.63-.31-4.86-.4-6.83-.27-6.4-.42-9.72-4.36-11.72.59-1.39,1.75-4.16,2.65-6.41l1.21-.62c3.07,2.3,5.33,4,8.16,6.22,3,2.33,6.72,5.17,12.73,9.73-4,2.13-7.33,3.83-10.11,5.26C1514.74,930,1511.81,931.52,1509.14,933Z"/>
      <path class="cls-4" d="M1507.89,907.33c2.94,2.2,5.14,3.9,7.9,6s6.45,5,12.12,9.27c-3.75,2-6.86,3.57-9.42,4.89-3.74,1.93-6.56,3.39-9.11,4.8l-.05-.12c-.21-2.58-.3-4.77-.39-6.72-.27-6.18-.42-9.77-4.22-11.93.61-1.45,1.6-3.83,2.41-5.82l.3-.16.46-.23m.1-1.18-1.65.85c-1,2.62-2.44,5.92-2.91,7,5.31,2.4,4,6.76,4.92,18.44.18.39.36.82.55,1.27,4.73-2.68,10.23-5.35,20.86-11-12.33-9.35-15.13-11.64-21.77-16.62Z"/>
    </g>
    <g>
      <g>
        <path class="cls-7" d="M1999.5,1656.23l-1.11-.88c-2.06-1.61-5.88-4.61-12.9-11-100.59-100.52-106.79-106.73-107.35-107.11l.29.12c-30.43-30-33.55-34.62-85.63-111.44-8.3-12.24-17.84-26.31-28.93-42.6-4-5.95-9.23-14.52-9.44-14.89-6-10.49-8.49-15.85-9.85-18.73-1.13-2.39-1.45-3.07-2.25-3.2-4-31.68-3.77-47.8-3.54-63.38.16-10,.3-19.51-.66-32.68-.27-3.77-.64-7.75-1-12-2.43-26.24-5.76-62.17,8-109.61.87-3,1.65-5.78,2.34-8.35l-.3,2.8.09.35c21.09,29.21,45.68,67.09,74.15,111,53.86,83,114.9,177,178.16,252.54v107.49c-9.71-13.49-22.31-31-38.77-53.79-15.92-22.05-31.88-38.91-48.77-56.76-14-14.79-28.45-30.07-42.85-48.55-29.53-39.21-35-50.73-48.14-78.55-3.76-8-8-17-13.65-28.34-23.27-47.1-67.61-132.9-68-133.76l-.94.17c-.73,6.15-1.11,9.4-1.4,12-.19,1.61-.34,3-.53,4.57l0,.29c8.53,16.26,14.79,27.17,21.41,38.72,12.47,21.74,26.61,46.37,60.71,114.82,27.15,54.53,58.28,88,88.38,120.37,17.81,19.15,36.23,39,53.58,62.89,15.34,21.18,28.45,39.49,39,54.41Zm0-180.94c-20.82-25.07-45.62-55.79-75.76-93.88-11-14.41-54.38-80.19-96.35-143.81-37.46-56.77-72.83-110.4-79-118.09l-.75.22c5.61-20.83,5.81-28.06,6.09-37.64.28-9.87.63-22.12,7.18-54.57,29.23,34.06,46.86,55.8,61.06,73.3,19.6,24.15,32.54,40.1,60,68.55,48.87,50.58,86.21,94,117.51,136.6Z"/>
        <path class="cls-4" d="M1761.18,1028.62c28.82,33.61,46.29,55.15,60.38,72.51,19.61,24.16,32.56,40.12,60.07,68.59,48.8,50.5,86.1,93.86,117.37,136.41V1473.9c-20.63-24.85-45.15-55.25-74.85-92.79-11-14.4-54.38-80.19-96.36-143.81-37.45-56.77-72.83-110.39-79-118.1l-.52.15c5.49-20.5,5.69-27.72,6-37.25.27-9.74.62-21.82,7-53.48m-14.26,95.54c21,29.17,45.6,67,74,110.75,53.83,82.93,114.83,176.92,178.07,252.45v105.76c-10.17-14.13-22.29-31-37.86-52.53-16-22.08-31.91-38.95-48.82-56.82-14-14.77-28.43-30-42.81-48.5-29.5-39.17-34.94-50.68-48.09-78.47-3.76-7.94-8-17-13.65-28.34-23.27-47.1-67.61-132.91-68.06-133.77l-1.88.34c-.74,6.21-1.11,9.45-1.41,12-.18,1.59-.33,2.91-.52,4.51l.11.59c8.53,16.26,14.79,27.17,21.42,38.73,12.47,21.73,26.6,46.36,60.7,114.79,27.17,54.6,58.33,88.1,88.45,120.49,17.81,19.14,36.22,38.94,53.55,62.84,15.3,21.14,28.38,39.4,38.87,54.27v51.94l-.3-.24c-2-1.61-5.86-4.6-12.84-10.92l-107.08-107c-30.39-30-33.51-34.58-85.57-111.37-8.36-12.33-17.84-26.3-28.93-42.59-4-5.91-9.2-14.49-9.41-14.86-5.94-10.47-8.48-15.82-9.84-18.69-1-2.14-1.45-3.07-2.25-3.38-4-31.43-3.72-47.47-3.48-63,.15-10,.29-19.52-.67-32.72-.28-3.77-.65-7.76-1-12-2.43-26.2-5.76-62.08,8-109.42q.74-2.54,1.38-4.86m13.68-97.74c-14,69.11-.42,48.32-16,102.32-15.94,55.07-9,94.29-6.95,121.76,2.48,33.92-2.4,44.25,4.26,96.5h.07c1.62,0,.59,1.52,12,21.7.28.5,5.44,9,9.46,14.92,80.64,118.5,79.3,119.26,114.62,154.12l107.07,107c10.25,9.3,13.64,11.39,14.85,12.59V1603c-8.63-12.25-21-29.63-39.06-54.55-46.64-64.33-98.72-96.4-141.92-183.18-52.41-105.19-57.71-107-82.13-153.55.5-4.19.74-6.47,1.93-16.52,0,0,44.52,86.11,68,133.75,25.8,52.21,24,56.77,61.85,107,31.25,40.11,62.1,64.43,91.61,105.3,17,23.5,29.85,41.39,39.67,55V1487c-96.87-115.62-191.55-279.32-252.41-363.62.14-1.18.27-2.37.39-3.56,13,16.13,154.39,234.36,175.37,261.9,31.05,39.23,56.09,70.23,76.65,95V1305.8c-28.19-38.39-64.3-81.57-117.65-136.78-47.18-48.81-50.78-59.94-121.75-142.6Z"/>
      </g>
      <g>
        <path class="cls-7" d="M1999.5,1300.18c-31.16-41.82-68.67-85.29-114.65-132.85-27.57-28.55-39.85-43.65-60.2-68.67-14.51-17.84-32.55-40-62.87-75.45,5-23.4,16-59.25,18-65.55,27,39.66,55.52,71.69,85.68,105.59,19.73,22.19,40.13,45.13,60.59,70.87,34.72,43.67,56.63,67.29,73.48,84.6Z"/>
        <path class="cls-4" d="M1779.92,958.79c26.88,39.3,55.19,71.13,85.13,104.8,19.73,22.17,40.13,45.11,60.58,70.84,34.63,43.57,56.53,67.18,73.37,84.5v79.74c-31-41.47-68.24-84.57-113.79-131.69-27.56-28.53-39.83-43.63-60.17-68.64-14.48-17.81-32.5-40-62.72-75.27,4.71-22.14,15-55.9,17.6-64.28m-.33-2.27c-.21.55-13,41.65-18.35,66.83,73.55,85.91,76.21,95.63,123.25,144.33,51.55,53.32,87.76,96.64,115.51,134v-83.17c-18.28-18.78-40.22-42.73-73.58-84.71C1875,1069.12,1824.76,1023,1779.59,956.52Z"/>
      </g>
      <g>
        <path class="cls-7" d="M1817.64,1684.88c-45.34-65.89-58.94-191.37-68.87-283-1.82-16.84-3.55-32.8-5.31-46.54,16.25,30.9,93.79,145.54,119.67,172l.5.51c19,19.68,112.86,116.49,129.76,130.38-11.16.36-19.41.51-26.09.63-21.72.4-26.3.49-58.24,6.41-16.67-19.3-27.82-29.12-41.94-41.55-18.12-16-42.94-37.83-93.06-92l-.86.4q.43,3.29.85,6.58l.15.29c4.66,4.66,7.11,7,9.27,9.16,4.12,4,6.85,6.67,21.88,22.26,25.63,26.58,41.79,40.78,56.05,53.31,14.7,12.91,26.35,23.15,43,42.36-55.43,8.88-62,11.21-69.56,13.91A131.24,131.24,0,0,1,1817.64,1684.88Z"/>
        <path class="cls-4" d="M1744.3,1357.91c18.69,34,93.2,143.91,118.47,169.79l.46.46c18.69,19.33,109.47,113,128.84,129.62-10.5.33-18.36.47-24.78.59-21.7.4-26.31.49-58,6.36-16.58-19.18-27.72-29-41.8-41.38-18.11-15.95-42.92-37.8-93-92l-1.72.81c.28,2.19.57,4.38.85,6.57l.28.58c4.67,4.67,7.12,7.06,9.28,9.17,4.12,4,6.85,6.67,21.87,22.25,25.64,26.6,41.81,40.8,56.08,53.34,14.52,12.75,26,22.88,42.33,41.63-54.65,8.77-61.19,11.09-68.76,13.79a130.21,130.21,0,0,1-16.79,4.8c-19.89-29-35.42-72.18-47.46-131.82-10.36-51.35-16.33-106.43-21.12-150.7-1.71-15.76-3.34-30.77-5-43.89m-1.7-5.41c11.11,84.89,20,253.6,74.82,333,30.46-7,4.45-5.67,87.91-19-33-38.31-47-41.76-99.62-96.37-22.6-23.43-17.24-17.5-31.16-31.43q-.42-3.29-.85-6.57c88.94,96.17,96.8,89.28,135.16,133.76,42.31-7.85,36.45-5.51,85.91-7.12-14.6-10.93-130.79-131.2-131.28-131.7-27.13-27.78-108.67-149.23-120.89-174.5Z"/>
      </g>
      <g>
        <path class="cls-7" d="M1999.5,1212.65c-11.53-12-23-24.54-34.93-38.43-16.31-18.94-25.27-30.11-35.64-43-6.53-8.14-13.92-17.35-24.1-29.68-3.41-4.14-10.21-11.56-18.81-21-27.6-30.12-73.75-80.49-104.78-126.89a119.66,119.66,0,0,1,13-23.11c-.48,1.41,1.31,2.6,7.25,6.58s16.12,10.79,32.57,23.4c10.48,8.33,68.21,56,100.28,85.11,18.35,16.69,39.68,39.11,65.19,68.56Zm0-103.93c-26-29.29-47.07-51.29-62.57-65.39-1.25-1.13-129.07-113.74-141.34-113.74a1.54,1.54,0,0,0-.84.21c17.75-24.7,44.32-45.23,70.21-65.24,16.62-12.84,32.32-25,45.87-38.14,11.1-10.85,43.54-34.91,88.67-62.26Z"/>
        <path class="cls-4" d="M1999,765.05v342.36c-25.63-28.82-46.4-50.5-61.74-64.45-2.89-2.63-35.38-31.18-68.52-59-62.43-52.36-70.59-54.77-72.86-54.89,17.7-24.2,43.87-44.42,69.39-64.13,16.63-12.86,32.34-25,45.91-38.19,11-10.76,43.12-34.59,87.82-61.72M1793.88,931.9c.73,1.25,3,2.77,7.3,5.66,6,4,16.1,10.78,32.53,23.36,10.49,8.34,68.2,56,100.26,85.1,18.31,16.65,39.58,39,65,68.38v97c-11.23-11.68-22.39-24-34-37.51-16.31-19-25.26-30.11-35.64-43-6.52-8.13-13.92-17.35-24.1-29.68-3.42-4.15-10.22-11.57-18.82-21-27.54-30.06-73.58-80.3-104.59-126.61a118.28,118.28,0,0,1,12.08-21.71M2000,763.27c-43.62,26.39-77.34,50.89-89.52,62.79-41.83,40.65-107.65,74.09-129.8,127.66,41.06,61.49,109.81,131.15,123.76,148.11,26.08,31.57,33,41.63,59.75,72.72,14.09,16.36,25.7,28.89,35.81,39.33V1114c-22.53-26-44.85-50.09-65.35-68.74-32.74-29.76-90.65-77.46-100.32-85.14-33.14-25.4-40.9-27.34-39.51-29.71a.81.81,0,0,1,.77-.34c11.64,0,134.71,107.89,141,113.61,17.31,15.74,39.82,39.75,63.41,66.34V763.27Z"/>
      </g>
    </g>
    <g>
      <polygon class="cls-11" points="1342.11 2009.5 1393.06 1894.65 1608.72 1790.81 1624.61 1882.23 1589.41 2009.5 1342.11 2009.5"/>
      <path class="cls-4" d="M1608.34,1791.55l15.76,90.65L1589,2009H1342.88l50.56-114,35.24-17,179.66-86.5m.75-1.48-180.85,87.08-35.57,17.13L1341.34,2010h248.45l35.34-127.75-16-92.18Z"/>
    </g>
    <g>
      <path class="cls-11" d="M1737.88,1152.49c-3.78-6.52-15.28-26.36-39.58-52.44-40-42.74-58.47-66.88-73.31-86.28-24.55-32.08-36.88-48.2-117.4-108.55,2.9-7.24,4.78-12.09,6.16-15.64a126.88,126.88,0,0,1,7.35-16.6,184.85,184.85,0,0,1,18.35-15.51,117.6,117.6,0,0,0,14.74-12.66c.23-.23.39-.41.54-.58.88-1,1.51-1.73,16.87-11.52l4.26-2.72c25.33-16.2,25.33-16.2,60.68-43.76,8.06-6.28,18-14,30.4-23.65l.06,0A410.59,410.59,0,0,1,1704.75,740a204.65,204.65,0,0,0,21-12.44c.35-.27,33.54-25.43,75-54.6l.33.56.68.19A85.21,85.21,0,0,0,1816.9,663l.44-.38c6.08-5.25,7.9-6.24,10.42-7.62a69.33,69.33,0,0,0,7.08-4.36c14.12,20,59.82,73,90.13,108.16,13.78,16,24.75,28.7,28.43,33.31-27.78,18.34-34,24.47-42.49,32.92a276.06,276.06,0,0,1-21.57,19.53c-5.21,4.3-11.75,9.19-19.31,14.84-29.11,21.77-73,54.58-89.46,93.3l-1.32-2-.85,0-1.33,2.47,0,.51s1.4,2.08,2,2.88c-1.1,3.47-12.83,41.17-18.09,65.68-1.18-1.24-2.12-1.85-2.88-1.85a1.17,1.17,0,0,0-1.1.72,2.18,2.18,0,0,0,.27,2.11l2.82,3.3c-6.52,32.16-6.74,42.77-6.91,51.3-.21,10.21-.37,18.28-10.89,57.27a176.6,176.6,0,0,0-3.91,18.17Z"/>
      <path class="cls-4" d="M1834.72,651.3c14.45,20.34,59.76,72.88,89.88,107.8C1938,774.6,1948.69,787,1952.67,792c-27.44,18.14-33.61,24.26-42.12,32.69A277.05,277.05,0,0,1,1889,844.14c-5.2,4.3-11.73,9.18-19.29,14.83-28.94,21.64-72.47,54.18-89.25,92.66l-.2-.29-.61-.92-1.71.09c-.45.82-.89,1.64-1.33,2.46l0,1,.39.58,1.42,2.1c-1.48,4.7-12.59,40.57-17.83,64.61a4.11,4.11,0,0,0-2.59-1.36,1.68,1.68,0,0,0-1.55,1,2.66,2.66,0,0,0,.34,2.65c.89,1,1.78,2.07,2.66,3.11-6.48,32-6.7,42.62-6.87,51.15-.21,10.18-.37,18.22-10.87,57.15a167.38,167.38,0,0,0-3.68,16.88c-4-6.89-15.54-26.52-39.44-52.17-40-42.72-58.44-66.86-73.27-86.25-24.55-32.07-36.9-48.21-117.19-108.41,2.82-7,4.66-11.8,6-15.29a127.22,127.22,0,0,1,7.28-16.48,185.7,185.7,0,0,1,18.25-15.41,116.86,116.86,0,0,0,14.79-12.71c.24-.23.41-.42.57-.6.85-1,1.46-1.67,16.76-11.43l4.26-2.72c25.35-16.21,25.35-16.21,60.72-43.78,8-6.23,17.93-14,30.37-23.63l.06,0A405,405,0,0,1,1705,740.39a204.45,204.45,0,0,0,21.07-12.5c.33-.25,33.27-25.23,74.47-54.26l0,.09,1.36.38a86.62,86.62,0,0,0,15.29-10.75l.44-.39c6-5.21,7.83-6.19,10.33-7.55a70.3,70.3,0,0,0,6.72-4.11m.24-1.39c-9.42,6.56-7.78,3.51-17.94,12.3a86.28,86.28,0,0,1-15.57,11l-.6-1.05c-42.11,29.65-75.4,54.92-75.4,54.92-15.82,11-28.8,14.89-58.73,35.09l0-.05c-70,54.34-59.26,47-95.37,70.15-17.84,11.37-15.88,10.54-17.49,12.17-11.9,12.06-16.76,12.58-33.15,28.21-5.51,10.69-4.45,9.64-13.71,32.72,128.85,96.54,83.81,80.48,191,195,27.71,29.73,38.74,51.32,40.68,54.31,2.07-11.54,2.72-14.19,4.13-19.44,19.45-72.11,3.54-38.38,17.86-108.84l-3-3.48c-.45-.53-.49-2,.45-2,.61,0,1.61.6,3.17,2.42,5.38-25.55,18.16-66.33,18.35-66.83-.7-1-1.39-2-2.08-3.08.44-.82.88-1.64,1.33-2.46,1,1.43.45.67,1.84,2.74,20.1-48.61,82.63-87.05,109-108.81,30-24.76,19.93-23.34,64.47-52.71-10.46-13.31-99-113.49-119.17-142.29Z"/>
    </g>
    <g>
      <path class="cls-10" d="M1476.18,1785.06c-2.73-7.8-3.41-28.32-3.52-32.47-6.21-231,1.26-287.28,7.27-332.54,4.18-31.47,7.79-58.64,6.08-134.32-4-178.62-1.79-196.89.72-218,.4-3.32.8-6.76,1.2-10.88a108.85,108.85,0,0,0,.25-17.7c-.25-4.54-.38-7,1.31-9.25,2.33-3,6.93-4.59,13.68-4.59s16,1.58,27.24,4.7c109.52,200.61,165.23,407.33,165.57,614.42,0,26-.79,52.36-2.5,78.34l-5.19,2.3c-25,11.06-66.7,29.58-141.49,45.28-32.77,6.88-49.77,10-58.91,11.73C1478.57,1783.77,1477.39,1784,1476.18,1785.06Z"/>
      <path class="cls-4" d="M1503.16,1025.76c6.76,0,15.81,1.56,26.91,4.63,109.42,200.48,165.07,407,165.41,614,0,25.88-.79,52.13-2.48,78l-4.91,2.17c-24.93,11.06-66.66,29.56-141.39,45.25-32.77,6.88-49.77,10-58.9,11.73-8,1.49-10.09,1.88-11.36,2.7-2.53-8.15-3.17-27.64-3.28-31.66-6.21-230.92,1.26-287.23,7.27-332.47,4.18-31.48,7.79-58.68,6.08-134.39-4-178.58-1.79-196.84.72-218,.39-3.33.8-6.76,1.19-10.89a107.68,107.68,0,0,0,.26-17.77c-.25-4.57-.37-6.86,1.2-8.93,2.23-2.91,6.7-4.39,13.28-4.39m0-1c-8.2,0-12.11,2.22-14.07,4.79-3.35,4.37,0,9.57-1.66,27.2-2.88,30.32-6.51,22.25-1.92,229,4.21,186.37-23.81,78.09-13.35,466.85.19,7.19,1,26.57,3.82,33.34,2.77-2.73.57-.39,70.92-15.15,80.83-17,124-37.62,147.06-47.73q2.54-38.4,2.52-78.68c-.41-245.26-78.22-454.59-165.73-614.84-12.44-3.47-21.28-4.78-27.59-4.78Z"/>
    </g>
    <g>
      <path class="cls-12" d="M1296.54,1847.87l82.31-36,46.28-20.26,373.46-107,162.13-25.75,38.78-5.91V1732c-50.79,6.61-157.74,34.66-174.19,47.66-10.84,8.57-65.68,13.86-118.7,19-42,4.06-85.48,8.26-107.6,14.12-49.54,13.13-123.45,44-124.19,44.28l-134.63,61.78Z"/>
      <path class="cls-4" d="M1999,1653.55v78c-24.68,3.25-62.79,11.41-99.8,21.4-38.89,10.49-66.63,20.32-74.2,26.3-10.73,8.49-65.49,13.77-118.44,18.89-42,4-85.52,8.25-107.67,14.12-49.58,13.15-123.52,44-124.29,44.32l-96.37,44.22-37.85,17.37-43.12-70.12,81.79-35.78,46.22-20.22,373.4-107,162.12-25.76,38.21-5.82m1-1.17-39.36,6-162.19,25.77-373.52,107-46.28,20.26-82.84,36.24L1340,1919.5l38.65-17.74,96.36-44.22s74-31,124.13-44.26,206.88-17.7,226.48-33.19c16.27-12.86,122.52-40.95,174.38-47.61v-80.1Z"/>
    </g>
  </g>
</svg>
