<svg id="_ëîé_1" data-name="‘ëîé_1" xmlns="http://www.w3.org/2000/svg" viewBox="0 0 2000 2000">
  <defs>
    <style>
      .cls-1 {
        fill: #607d8b;
        opacity: 0.5;
      }

      .cls-2 {
        fill: none;
      }

      .cls-3 {
        fill: #f7d9e3;
      }

      .cls-4 {
        fill: #2c0000;
      }

      .cls-5 {
        fill: #010b0f;
      }

      .cls-6 {
        fill: #f9fdf6;
      }

      .cls-7 {
        fill: #fbc517;
      }

      .cls-8 {
        fill: #165471;
      }
    </style>
  </defs>
  <title>abstract_bg_1</title>
  <rect class="cls-1" width="2000" height="2000"/>
  <rect class="cls-2" width="2000" height="2000"/>
  <path class="cls-3" d="M415.47,221.65c-4.25-.8,1.29-.93-2.7-2.34-7.27,0-4.31,1.48-8.88,1.71l7.91.65C412.7,221.61,413.88,221.6,415.47,221.65Z"/>
  <path class="cls-3" d="M430.37,285.55l2.5.29v-.42C431.89,285.45,431,285.49,430.37,285.55Z"/>
  <path class="cls-4" d="M443.35,1184.76a35.59,35.59,0,0,0-13.43,2.47C433.32,1187.64,438.45,1186.11,443.35,1184.76Z"/>
  <path class="cls-4" d="M443.45,1184.76l.07,0-.17,0Z"/>
  <path class="cls-4" d="M1354.14,818.22a30.09,30.09,0,0,0,3.94-1.39Z"/>
  <path class="cls-5" d="M1027.06,965.72l5.16,2.78c-3.77,3.41-.39,6.2-3.33,10.75.74,2.25,4.36,1.08,5.32-.06-2.91,4,1.28,7.88-1.53,10.16l-1.74-.53a4.64,4.64,0,0,0-1.07,2.51c20.5-8.44,57.43-22.2,64.76-26.87l-5.22-.08,8.31-4.23c-1,.3-2.25,5.54-3.26,6.29,7.21-2.43,25.09-8.52,45.61-15.45.92-7.72.24-18.7.25-21.64-.17-.05-.19-.08,0-.07v.07c1.47.44,15.21,2.84,16.18,3.2l-4.41-2.5-5.75.27c-8.75-3.43-13-16.82-19.93-20.19l-.29.65c-3.59-2.41-3.89-3.84-3.77-6.13l2,1.7c7.3.44,6.91-.78,6.63-2.21l-3,.46c-6.42-2.38-.59-2.86-1.35-5.29l-2.15.59c-1.55-.7-.39-1.21-.08-1.86,3,1.62,4.77-.18,8.47-.08-7.41-.22-6.42-2.37-7-3.16,2,.15,2.06-.19,1.56-.63-19.37,6.67-35.77,12.31-44.4,15.22l1-.59c-15.64,5.41-37.39,12.71-60.81,20.58.84,6.35,1.67,12.48,2.3,18C1026.51,955.32,1027.05,961.91,1027.06,965.72Z"/>
  <path class="cls-5" d="M1323.72,829.64l-4.38-.67c.77,2.42,7.33,6.49,8.49,8l-1.75-.27c.49,1,4.72,4,12.8,4.8-2.74,1.89-10.52.46-6.45,3.86l1.08-.3c2.13,3.56-6.61,18.34-4.28,21.47l-1.66-.48c4.19,3.18-1.67,5.74,5.14,9.33-1.91,1.73-4.31,6-6.28,10.88,8.44-3,17.54-5.14,23.81-8.75,0-3.07,5.81-54.79,4.73-58.09a52.24,52.24,0,0,1,7.29-2c-1.06-.51-7.3,1.12-10.4,2.63l0,2c-7.28,3.07-2.1-.48-9.36,2-.86-1.32,5.75-3.83,11.62-5.91-5.38,1.58-11,2.26-12.68,4.56-5.21,1,0-2-6.26-.6-3.88,1.71-8.66,4.68-13.53,5.68A6,6,0,0,0,1323.72,829.64Z"/>
  <path class="cls-4" d="M1094.46,966.44l-.29.1A.4.4,0,0,0,1094.46,966.44Z"/>
  <path class="cls-5" d="M723.22,1069.39l-12.76,2c5.63,4.49-2.33,8.91-4.33,12,.4,1.39-1.77,4.87,2.89,7l-4.42-.33c1,2.35,7.83,5.85,9.12,7.3l-1.77-.13a5.69,5.69,0,0,0,2.25,1.55c1.45-.27,4.44-1,4.44-.13,1-2.27,5.19-2.15,8.31-3.67,1-.87-1-.24-2.1-.48l7.27-3.07c3.11-.39,4.17.4,1,1.64,19.74-5.78,114.1-34.84,134.86-42.61-3.14-.44-9.34,2.58-12.49,1.31,5.18-3,8.32-2.27,10.37-4.3,3.15,2.39,12.47-3.27,17.71-1.52l1-2.27,3.11.16c23.88-9.84,5.3-2.72,27.13-9.42,12.28-4.31,17.48-8.62,24.59-10.09a3.06,3.06,0,0,1-2-.19H936l-89.07,0c-7.73-5.26,1.52-14.35-9.7-20.19-1.87,1.81-.66-4.19-5.22-1.74,1.84-1.22,1.05-3,1.12-4.21,1.67,1.78,3.35,3.56,6,3.53a66.83,66.83,0,0,0,0-7.35c-38.63,12.89-103.22,32.82-121.3,37.7-11.4,6-27,9.4-38.41,14.58l1-.87c-6.52,2.58-29.53,9.76-52.05,16.81,47.11,2.72,93.59,6.48,93.59,6.48Z"/>
  <path class="cls-5" d="M507.41,1162.52c1.69-4.65,4.75-.37-1.36-6l3.79-.41-6.12-.67c11-.34,2.9-3,13.75-2.87-4.26-.76,1.28-1-2.74-2.47-7.31.16-4.26,1.74-8.92,2.08-2.82-4.74,4.12-24.87,6.54-29,.63.73,4.25.76,6.25.22l-2.08-1.74c-1.85.1-2,.54-3.7.19-1.53-.79,3.22-1.36-2.89-2,3.53.25,3.93-.86,4.83-.79-6-1.11,6.65-3.38-4.59-4.88-1.85-2.4,7.3-.15,7.32-2.65l-8-.58c.42-.06.72-2.57.63-5.37-8.39,3.17-18.62,6.22-23.21,7.83-14.55,4.19-37.43,9.25-56.11,17.22l-13.59.47-1.7,1s-5.74,50.06,22.68,51v1.4l5-1.81c6.22-1.35,8.53-3.73,8.53-2.33l-8.3,2.55c6.17-1.62,2.17.43.09,1.9a57.75,57.75,0,0,1,7.21-1.63c1-.87-1.05-.23-2.08-.2,3.1-1.51,7.25-4.18,11.4-4.9,6.24-1.91,1.07,1.92,8.34-.32,14.11-4.22,28.08-8.33,42-12.48C509,1164.41,507.7,1163.53,507.41,1162.52Z"/>
  <path class="cls-4" d="M939.48,1024.36l.33-.07Z"/>
  <path class="cls-4" d="M803.11,256.34a29.85,29.85,0,0,0,4.08.31Z"/>
  <path class="cls-4" d="M349.19,279.61l.32.06Z"/>
  <path class="cls-5" d="M618.09,244.17c-.24.61,3.2,1.13,5.3.48-1.47,1.34-.46,3.32-5.45,4.34,6.21,9.39,4.55,27,6.41,35.81l-.78-.28c.17,2.47,1.29,8.14,2.39,14.22,10.37,1.05,18.44,2,22.39,2.6,7.09,1.63,1,2.81.92,3.07,8.8.21,4-1.43,11.36-.57,2,.5-.54,1.29-1.71,1.42,3.28.11,6.24,1,6.57.22-4-1-2.09-2.94-3.68-4.46l9.54,1.1-.55,1.28c2.12.25,5.75-3.1,15.07-1.48,15.79,2.1,33,3.3,48.94,5.14-.32.77-3.71.92-7.11,1.06,2.13.25,5.41.36,7.32,1.12-3.71-1.77,6.77-.29,3.82-1.17,12-2.11,26.79,2.3,37.31,1.1,1.18-2.83,26.88-47.89,27.21-51.35a49.86,49.86,0,0,1,7.32,1.12c-.75-.9-7-1.89-10.38-1.75l-.76,1.8c-7.75-.09-1.69-1.27-9.21-1.87-.25-1.56,6.69-1.22,12.78-.78-5.46-.7-10.8-2.34-13.19-.89-5.09-1.13.75-1.8-5.39-3-4.45,0-10.4.95-15.38-.44l.12-.26c-12.18-2.75-19.09.49-30.2-2.15l1.26-.39c-3.9-1.26-11.85-.84-18.94-2.47,2,.5,3.69,1.77-.64,1.54-8.17-1.76-13.9-1.34-19.82-3.11l-5.94.93c-13.89-1.48-47.67-4.32-82.12-7.14l.09.15C614.73,243.63,619,239.84,618.09,244.17Z"/>
  <path class="cls-5" d="M18.66,250.75c-1.69-1.27,60.1,4.59,61.06,5l1-2.31c11.75,1.09,3.16,3.06,14.07,3.51,4.58-3,18,2.1,21.94.66-.11.26,5.2.88,4.76,1.9,1.8-1.67,5.51.11,8.91,0,1.26-.39-.84-.63-1.7-1.27l7.75.09c2.95.88,3.58,2,.3,1.91,20,2.6,116.24,13.66,138,14.83-2.65-1.65-9.41-1.36-11.74-3.78,5.83-.67,8.38,1.24,11,.2,1.88,3.45,12.49,2,16.51,5.68l1.81-1.67,2.74,1.39c25.33.52,5.83-.37,28.09,2.21,12.73,1,19.11-.92,26.07.58-1.19-.31-3.17-1.47-.09-1.6.41,1.66,9-.3,10.48,1.48,3.29.12,13.88,1.35,10.5-1.2,1.7,1.27,11.12,2.63,5.39,3,3.19.38,6.25,1,8.59.74l-4-1c10.81.72,16.52,3,23.73,1.67l-3.9-1.26c6.46.49,11.87.84,14.19,3.26l-6.68,0c10.42,1,16.83,1.42,25.5,1.17v-.1l-2.5-.29c.67-.06,1.52-.1,2.5-.13-.11-6.51-1.12-13.83-1.27-16.07-.17,0-.19-.06,0-.06a.13.13,0,0,0,0,.06c1.5.34,15.36,1.85,16.36,2.12l-4.57-2.07-5.72.53c-9-2.7-14.13-14.74-21.23-17.49l-.25.61c-3.75-2-4.13-3.31-4.17-5.42l2.14,1.46c7.32,0,6.84-1.07,6.47-2.36l-3,.57c-6.56-1.86-.78-2.59-1.7-4.78l-2.11.65c-1.59-.56-.46-1.09-.2-1.7,3.11,1.33,4.75-.41,8.44-.5-7.41.18-6.56-1.85-7.2-2.54,5.46.08-3.66-2.22,1.72-1.94-1.33-.68-4.43-.54-5.2-.35l-.18.07s.07-.05.18-.07c2.7-1.18-5.38-3-6.12-5.51,1.75-4.25,4.75-.23-1.28-5.6l3.79-.29-6.1-.76c9.4,0,4.91-2,10.11-2.31l-7.91-.65h-.07c-22.53-1.86-43.47-3.42-59.16-4.23-6.89-2.14-16.63-2.73-23.92-3.85,4,1,2.52,1.91-.66,1.54-22.35-2.33-1.61.87-24.28-.69-26.17-1.15-125.68-12.32-148.67-15.8-12.63,1-28-2.17-40.26-2l1.27-.39C95,195.16,21.24,186,6,185.33l2,.51a57.53,57.53,0,0,1-8-.39v62c4.73.37,9.39.72,14.11.91A10.64,10.64,0,0,1,18.66,250.75Z"/>
  <path class="cls-4" d="M1835.15,1645.34a28.64,28.64,0,0,0,4,.23Z"/>
  <path class="cls-4" d="M1549.28,1682.16l-.29,0A.36.36,0,0,0,1549.28,1682.16Z"/>
  <path class="cls-5" d="M1832.4,1646.23l-.72,1.81c-7.6,0-1.67-1.25-9-1.72-.27-1.55,6.54-1.32,12.52-1-5.36-.62-10.63-2.16-13-.68-5-1.05.71-1.81-5.32-3-4.38.09-10.19,1.12-15.1-.19l.11-.26c-12-2.56-18.71.79-29.65-1.67l1.23-.41c-3.84-1.2-11.63-.64-18.61-2.16,2,.47,3.65,1.72-.61,1.55-8-1.62-13.64-1.11-19.48-2.78l-5.81,1c-28.22-2.6-139.94-9.6-168.33-11.68l1.13-.15c-43.28-2.79-132-10.15-176.84-11.75-6.79-2-16.35-2.47-23.52-3.47,4,.94,2.5,1.87-.63,1.55-22-2-1.56.89-23.82-.29-7.43-.21-20.9-1.16-36.83-2.48-3.84,2.89-7.68,5.82-11.45,8.85-3.35,2.88-5.87-4.31-8.74-1.84-3.14.36-2,5.22-2.19,7.72,1.09.24,2-.59,2.8,1.1a8.26,8.26,0,0,0-4.59,1.52.19.19,0,0,0,0,.08l-.11,0c-2.59,1.59-5,3.53-9.81,1.57,1.77-2.68,4.88-3.07,9.81-1.57a.24.24,0,0,0,.1,0c-.88-2.73-.84-6.2-4.29-4.39l3.82-3.3c-3.06-3.19-.46,1.55-4.56,2.74l-1.67,2.62-3.07-3.19c-7-2.22-17-8.69-28.38-17.58-20.81-2.08-38.74-4-46.9-5.16-12.37,1.17-27.46-1.71-39.52-1.32l1.24-.41c-12.89-.24-85.37-8.18-100.35-8.63l2,.48c-13.11.28-11.15-1.94-21.33-3.52,1.14,2.54-10.11,3-14.38,2.84l.21-.52c-6.44-.11-21.13.8-31.75.26l.53-1.29c-8.95.7-25.49-1.24-31.85-1.62-3.72-.45-8-1.06-12.52-1.7,6.6,9.69,11.15,16.38,12.28,18,2.51,7.27-5.92,1.14-1.61,11.4,1.68,1.23-1.08,1.29,2.35,4.61-1.47-1.3-1.63-.34-2.09-.18a12.89,12.89,0,0,0-2.18-5.57c-3.38,1.18-5.47,4.61-9.36,5-3-.75,3.57,9.6,3.12,9.76l-2.52-3.65-2,.71c3,3.49,6.78,9.4,8.7,10.55,1.5,2.18-.17,1-.35,1.92-.27-.8-1.85-3.88-2.8-4.45-1.58.54,1.57,3.07,1.28,5.89-.51-.74-2.91-6.23-6-7.87-3-.47-8.88,4.31-14.08,9.14,33.9,3.76,67.09,7.66,101.67,10.22.84.62-.22.52-1.36.67,11.77.39,22.16,1.45,32.88,1.73a10.24,10.24,0,0,1,4.49,2.33c-1.67-1.24,59,3.62,60,4l.94-2.33c11.54.91,3.13,3,13.85,3.29,4.45-3,17.69,1.8,21.53.3-.11.26,5.11.79,4.69,1.82,1.75-1.7,5.41,0,8.74-.18,1.23-.42-.83-.62-1.68-1.25l7.6,0c2.9.83,3.54,2,.32,1.91,19.66,2.27,114.2,11.76,135.52,12.58-2.61-1.6-9.25-1.2-11.56-3.59,5.71-.76,8.23,1.11,10.81,0,1.89,3.42,12.28,1.79,16.27,5.42l1.76-1.7,2.7,1.35c24.86.1,5.72-.47,27.58,1.75,12.5.74,18.74-1.23,25.58.15-1.16-.28-3.12-1.42-.1-1.6.42,1.66,8.83-.44,10.3,1.32,3.23.06,13.63,1.12,10.29-1.38,1.67,1.25,10.93,2.46,5.32,3,3.13.32,6.14.9,8.44.59l-4-.94c10.62.55,16.25,2.73,23.31,1.29l-3.84-1.19c6.34.38,11.65.64,14,3l-6.56.14c10.51.8,16.85,1.17,25.7.73l-3.12-.32c11.33-1.27,69.8,1.7,80.3-.19l-4.6-2.08,9-.7c-1-.1-4.08,4.24-5.26,4.55,19.62,1.43,117.32,8.11,134.63,10.67,7,1.51,1,2.79.95,3.05,8.63.07,3.85-1.49,11.14-.75,2,.47-.53,1.3-1.67,1.45,3.22.06,6.14.89,6.45.11-4-.94-2.09-2.9-3.67-4.4l9.37,1-.52,1.29c2.09.21,5.6-3.19,14.77-1.73,15.51,1.85,32.45,2.77,48.07,4.35-.31.78-3.63,1-7,1.18,2.09.21,5.31.27,7.19,1-3.66-1.72,6.65-.4,3.74-1.24,11.73-2.3,26.31,1.87,36.61.5,1.12-2.85,25.75-48.32,26-51.78a47.59,47.59,0,0,1,7.19,1C1841.86,1646.93,1835.72,1646,1832.4,1646.23Z"/>
  <path class="cls-4" d="M1390.16,1676l.32.06Z"/>
  <path class="cls-4" d="M910.14,1633.7c1.09.48.42,1.11,1.42,1.65-.92-1.45-1.59-2.52-1.7-2.78Z"/>
  <path class="cls-4" d="M1840.19,228.39a34.31,34.31,0,0,0-13-3.09C1830.05,227,1835.26,227.67,1840.19,228.39Z"/>
  <path class="cls-4" d="M1840.29,228.43h.07l-.17,0Z"/>
  <path class="cls-5" d="M1971.6,184.57l.22-.51c-6.57-.23-21.55.45-32.36-.27l.55-1.28c-9.12.56-26-1.67-32.44-2.15-14.71-2-37.27-6.48-57.19-6.63l-12.4-5-1.9.19s-24.95,43.6.2,55.83l-.54,1.28,5.17.32c6.13,1.25,9.14,0,8.59,1.27l-8.46-1c6.18,1,1.77,1.26-.68,1.78a54.27,54.27,0,0,1,7.12,1.38c1.27-.39-.85-.63-1.79-1,3.39-.15,8.17-.94,12.18.06,6.36.74.2,2.18,7.62,3,39.08,4.81,76.89,10,116.52,13.53.85.63-.22.51-1.39.65,6.81.33,13.16.86,19.38,1.35v-62c-5.18-.7-6.14-2.2-13.71-3.48C1987.43,184.53,1976,184.8,1971.6,184.57Z"/>
  <path class="cls-6" d="M826.5,491.34c-5,1.28-5.66,4.19-6.7,6.91C824.59,496.5,826.78,494.4,826.5,491.34Z"/>
  <path class="cls-6" d="M819.69,498.29l.06,0a.26.26,0,0,1,0-.09Z"/>
  <path class="cls-6" d="M1031.67,1024.92c-.14-.64-.29-1.38-.45-2.13A2.73,2.73,0,0,0,1031.67,1024.92Z"/>
  <path class="cls-6" d="M823.86,876.69c0-.06,0-.13,0-.18C823.67,876.56,823.69,876.62,823.86,876.69Z"/>
  <path class="cls-6" d="M800.25,785.73a.42.42,0,0,0-.18.25Z"/>
  <path class="cls-6" d="M839.17,1001.58c-2.66,0-4.34-1.75-6-3.53-.07,1.2.72,3-1.12,4.21,4.56-2.45,3.35,3.55,5.22,1.74,11.22,5.84,2,14.93,9.7,20.19l89.07,0h1.47c41.72-.08,83.22-.39,88.94-.82-.09,1.71-.19,3.41-1.1,4,2.69-.65,3.75-4.06,2.07-5.71l-6.21.14c-2.46-3.91,3.61-1.22,2.91-5.16,5.06-.57,6.4,3,7.11,6.17.39-2.93,3.88-6.07-1.75-6.85,1.92-2.87,6.22-.14,8.16-3.56-1.65-2.22-6.83-4.94-4-7.82h.9c4.1-5.86-5-8.61-4.64-13.22a4.64,4.64,0,0,1,1.07-2.51l1.74.53c2.81-2.28-1.38-6.18,1.53-10.16-1,1.14-4.58,2.31-5.32.06,2.94-4.55-.44-7.34,3.33-10.75l-5.16-2.78c0-3.81-.55-10.4-1.49-18.38-.63-5.48-1.46-11.61-2.3-18-.39-2.9-.78-5.84-1.15-8.79-1.23-9.39-2.58-18.78-3.57-26.79s-1.77-14.63-2.08-18.46l.81.58c-.39-2.91-.75-6.2-1.1-9.79s-.6-7.46-.89-11.53c-.56-8.15-1.17-17.08-1.79-26s-1.35-17.94-2.38-26.2a150.56,150.56,0,0,0-3.92-21.85c4.9-3.72,3.76-8.88,5.14-12.77-2.05,2.15-5.52,1.39-5.32-.3.71-11.9-3.38-.83-5.32-12.9-1.1-3.48-1.55-9.41-1.55-16.54s.59-15.45,1.39-23.71c.4-4.13.88-8.25,1.4-12.19s1.15-7.71,1.77-11.16a101.09,101.09,0,0,1,3.67-15.5c-7-6.88-1.17-14.92-5.47-21.59l1.68.73c-.61-1.77-.53-5.54-.12-10.32.2-2.4.49-5,.83-7.82s.78-5.69,1.18-8.6c1.66-11.67,3.26-23.46,2.27-27.57l-1.1,1c-4-7.32,3.8-5.88,6.61-11.26-8.14.22-12.34-6.11-12.81-8.46l1.77.2c-1.14-3.56-7.69-11.92-8.32-17.76l4.41.54c-4.4-5.13-1.75-14-2-17.49,2.36-7.76,11.12-19.24,6.17-30.24l13.16-5.69-1.16-1.1s-37.78-6.1-79.75-10.91-88.13-8.23-104.94-2.31l-4.39-.62.33,2.95c-2.47,3.29,2.51,5.34-1.87,4.72l.94-4.72c-1.58,3.39-3.71.75-6.09-.81a7.78,7.78,0,0,1-2.65,3.85c1.64.84,1.87-.35,2.88-.81,1.39,2,5.31,5,3.09,7.11-.72,3.55-7.17-.37-8,3.78-2.69,10.9-5.56,21.64-8,32.45a163.23,163.23,0,0,0-4.36,33c-1.87.39-1.76-.21-2.54-.91,1.49,6.88.36,12.84,2,19.11-2.07,1.59-4.82,1.91-6.68,2.31,3.74-.8,2.14,34.23,1.26,34.74l8,.8c-.18,6.66-9.22,1.52-7.52,7.77,11.19,2.9-1.61,10.18,4.3,12.55-.89-.08-1.37,2.92-4.89,2.59,6.09,1.16,1.28,3.15,2.77,5.12,1.69.75,1.85-.44,3.73-.88l2,4.43c-2,1.62-5.65,1.91-6.26,0-.64,2.82-1.6,8.34-2.64,15.24s-2.2,15.15-3,23.46-1.57,16.65-1.89,23.68-.12,12.77.59,15.85c4.66-1.51,1.57-5.35,8.88-6.67,4,3.3-1.49,4.75,2.79,6.24-10.86,1.09-2.69,7.08-13.7,9.41l6.13,1-3.78,1.57c6.24,14.34,3,3.29,1.53,15.94.91,7.18,9.09,10.68,6.47,14.64.75-.69,3.84-1.74,5.22-.07-5.4.32,3.86,5-1.59,6,.67,1.85,0,7.85,7.34,5.81-3.69,1-5.17,6.38-8.38,3.2-.21,1.81-1.28,3.56.36,4.86l2-2.33c1.12,6.09-4.57,9.46,2.14,13.38l2.91-2.27c.5,3.64,1.07,6.67-6.21,8.17l-2.27-3.72c.23,6,.74,9.7,4.67,14.69l.18-1.8c3.63,3.17,7.19,13.11,10.91,22.95a147.9,147.9,0,0,0,5.84,13.82c2.05,4,4.24,7.15,6.56,8.56l5.59-2.84L840.4,879c-1-.56-15-1.65-16.54-2.26.25,2.77.74,8.22,1.35,15s1.33,15.31,2,23.64,1.19,16.65,1.35,23.51,0,12.28-.79,14.82c-2.93,4.19-8.94,1.17-9.84,1.16,2.35,4.83,6.1,1.83,5.82,6-1,1.19-4.44,0-5.28-.62.76,1.81-1.12,3.61,1.53,3.61,1.94-2.4,9-1.78,13.51-3l-.34,5.39h-4.44c-.07,1.2,12.24,2.39,10.15,7.78-1,6.56-.15,13.43.19,20.16A66.83,66.83,0,0,1,839.17,1001.58Z"/>
  <path class="cls-6" d="M302.37,395.3c-.67.87-1.43,1.85-2.21,2.84A7.19,7.19,0,0,0,302.37,395.3Z"/>
  <path class="cls-6" d="M289,714.41l-.17.22C289.05,714.69,289.1,714.6,289,714.41Z"/>
  <path class="cls-6" d="M31.37,1116.19l7.1-9.82c4.69-6.6,9.19-13.38,13.4-20.43,2,.36,1.42,1.08,1.6,2.32a113,113,0,0,1,6.32-12.8,105.78,105.78,0,0,0,6-12.24c3-1,5.7-.08,7.65.3-2-.38,4-11.31,10.7-22.17,3.33-5.43,6.8-10.85,9.56-14.9s4.8-6.71,5.11-6.74l-6.27-5c5.38-8.14,9.17,2.76,12.6-5.8-7.38-9.27,9.37-11.73,6.16-17.69.7.57,3.46-2.89,6.22-.66-4.3-4.59,1.37-4.57,1.65-7.75-.82-1.8-1.94-.44-3.88-.86,0,0,.45-1.63.92-3.24l.94-3.23c3.06-.93,6.38.63,5.38,3.23,2.84-3.11,8.13-9.32,14.59-17.15s14-17.32,21.74-26.75,15.18-19.06,21.3-27.31c3-4.15,5.84-7.86,8.06-11.11a75.11,75.11,0,0,0,5-8c-5.11-.9-5.88,5.41-13,2.79-.47-6.23,5.31-4.77,3.1-9,9.81,5,8.3-6.86,19.26-3.2l-4.13-4.76,4.42.35c3.64-10.3,3.73-11.73,4.42-12.33s2-.39,8.16-7.31c5.61-8.89,2.18-17.91,7.78-21-1.21.34-4.61-.29-4.22-3.08,4.57,2.9,1.41-8.24,6.55-6,1.11-2.58,7-9.18-.65-11.3,1.92.52,4.36-.56,6.29-1s3.37-.39,3.19,2.44c1.81-2,4.25-3.32,4.14-5.82l-3.72,1.42c4.68-7.72,12.2-8.06,10.54-16.77l-4.36.81c2.94-4.51,5.28-8.39,12.31-5.55l-1.62,5.72c5.33-7.11,8.25-11.63,9.77-19.88l-1.79,2a22.52,22.52,0,0,1,1.14-5.81c.74-2.32,1.78-5,3-7.91,2.47-5.84,5.74-12.64,9-19.47s6.37-13.68,8.63-19.62,3.72-10.88,3.34-14l-6.95-.48,1.11-8.72c.22,1.33,9.6,11.84,10.17,13.54l13.55-17.82,10.23-13.4c3.67-4.71,7.56-9.56,11.44-14.41,7.79-9.68,15.64-19.26,22.35-26.94s12.43-13.37,15.59-15.55c6.32-2.45,7.49,5.11,8.12,5.74,3.2-6.88-2.45-6.32,2-10.67,1.88-.6,3.1,3.19,3.08,4.44,1.29-2.49,4.42-3.09,2.57-5-3.78,1.2-8.11-4.52-12.49-6.44l5.72-5.62,3.1,3.2c1.28-1.24-6.15-11.46.87-15.76,10.31-8.61,18.79-20.37,28.47-29.62,1.83,1.94,1.12,5.08.41,8.22,1.29-1.24,2.61-3.72,5.12-3.67-5.63-.76,1.42-6.26-1.73-5.72-.77-7.3,2.91-11.55,6.75-15.44s7.94-7.37,8.17-13c-3.33-3.58-31-35.39-58.67-67.45s-55.53-64.34-59.77-68.3c2.06-1.92,4.11-3.83,5.39-3.81-2.48-1.33-7.18,1.84-8,5.07l4.2,4.6c-3,6.45-3.77-1.35-7.94,3.78-4-3.19-.64-8.4,2.63-12.67-3.7,3.14-9.67,4.15-6.92,9.38-4.63,1.89-4.22-4.6-9.52-2.06-1.54,3.88-1.34,11-6.58,12.24l-.61-.66c-11.24,4.45-5.61,17.38-16,21.28l-.55-1.93c-4.52.63-6.2,8.42-12.76,11,2-.66,5.75.64,3.66,3.87-7.25,3.27-8.17,9.1-14.68,10.42l.31,7.1c-4.45,4.51-11.42,13-19.8,23.39s-18.11,22.64-27.52,35.19l-14,18.52c-4.54,6-9,11.78-12.88,17.19-7.9,10.75-14.45,19.59-18.34,24.61l0-1.27c-2.84,3.92-6.12,8.3-9.72,13s-7.44,9.9-11.49,15.3-8.34,11-12.71,16.8-8.87,11.65-13.19,17.68c-8.71,12-17.34,24.13-25,35.47a354.06,354.06,0,0,0-18.74,31c-7.64,1.94-11.88,9.42-16.87,13.72,3.8-1.63,5.84,1.44,4,3.54-12.12,15.41,1.92,3.1-8.18,20.27-2.47,5.26-7.83,13.39-14.71,22.84-3.47,4.71-7.18,9.84-11.16,15.09-2,2.66-4.09,5.37-6.19,8.09v357.21c8-10.34,16.25-20.38,24.11-30.67C26.56,1122.67,29,1119.44,31.37,1116.19Z"/>
  <path class="cls-6" d="M223.19,834a.81.81,0,0,0,.36-.19Z"/>
  <path class="cls-6" d="M724.83,1999.87a6.94,6.94,0,0,1,1.61.13H528.93a71.51,71.51,0,0,1-2.19-11.43c.6-6.59-11.78-5.32-12-6.71l4.34-.94-1.13-6.22c-4.08,2.34-11.15,3.16-12.39,6.3-2.59.57-1.25-1.88-2.48-3.76,1,.5,4.71,1.12,5.33-.44-.86-4.84-3.72-.63-7.32-5.59.88-.19,7.57,1.94,9.3-3.46.35-9.17-11.89-46.07-19.8-69.28,32.86,1.06,61.23,1.94,65.9,2-.21.74-.42,1.48-1.38,1.7,2.73-.18,4-1.64,2.48-2.42l-6.21-.15c-2.18-1.79,3.69-.41,3.27-2.15,5.08-.08,6.17,1.53,6.65,2.94.6-1.27,4.31-2.52-1.26-3.06,2.12-1.19,6.22.15,8.39-1.28-1.49-1-6.46-2.39-3.45-3.56l.9,0c5.25-2.85-7.7-4.41-2.5-7l1.7.29c2.94-.92-1-2.75,2.14-4.41-1,.47-4.71.88-5.31-.13,3.21-1.91,0-3.23,4-4.62l-5-1.36c1-6.68-6-33.09-6.79-39.8l.79.27c-2.45-10.24-2-31.23-8.84-41.81,4.91-1.62,3.76-3.88,5.14-5.58-2,.94-5.52.6-5.32-.14.58-5.19-3.39-.36-5.47-5.62-4.54-6.06.72-29.2,4.91-34.56-7.21-2.91-1.74-6.49-6.3-9.33l1.7.29c-2.71-3,4-20.21,1.47-23.75l-1,.47c-4.48-3.08,3.43-2.64,5.9-5.06-8.11.3-12.7-2.35-13.31-3.36l1.77,0c-1.36-1.52-8.39-5-9.47-7.48l4.43.11c-4.76-2.1-2.76-6-3.23-7.52,1.85-3.43,9.59-8.7,3.74-13.31l12.65-2.93-1.26-.43s-89.79-3.08-146.31-1.81c-1.82-10-3.14-18.17-3.58-22.1,1.23,1.89,4.57.44,5.94-2l-3.47-4.27c-1.62,1.08-1.36,2.45-3.22,2.15-2.11-1.7,1.73-5.41-4.47-4.77,3.47-.75,2.84-4.21,3.72-4.4-6.45-.74,3.08-12.87-8.56-12.48-3.85-6.34,6.55-3.59,4.33-11l-7.82,1.71c.75-.89-10.66-39.9-13.88-37.77,1.61-1.06,4.09-2.33,5.45-4.78-3.85-6.34-5.09-13.24-9.07-20.27,1,.5,1.13,1.2,2.73.13a225.15,225.15,0,0,1-7.73-33c34.32,5.55,64.74,10.43,69.58,11.08-.3.65-.6,1.3-1.57,1.38,2.73.19,4.19-1,2.74-1.89l-6.14-1c-1.94-1.91,3.71.11,3.51-1.53,5,.59,5.93,2.2,6.24,3.55.74-1.08,4.57-1.75-.89-3,2.25-.81,6.15,1,8.48-.08-1.36-1.13-6.13-3-3-3.69l.88.13c5.56-1.91-7.1-5-1.64-6.71l1.65.48c3-.46-.66-2.64,2.65-3.75-1.07.3-4.77.19-5.25-.81,3.41-1.32.39-2.94,4.49-3.69l-4.77-1.89c1.78-6-2-31-2-37.2l.76.35c-1.22-9.66,1.73-28.75-3.78-39.3,5.06-.84,4.19-3,5.76-4.42-2.14.59-5.55-.16-5.26-.81a3.54,3.54,0,0,0,.13-1.82c50.07-14.26,107.13-25.11,107.13-25.11l1.54.84-9.87,11.52c9.18,10.9,5.85,27.43,6.73,37.28,1.61,4,2.74,15.2,8.93,19.59l-4.34.94c3,6.52,12.41,14,14.89,17.72l-1.74.38c1.37,2.57,7.83,8.5,15.39,5.42-.5,7.27-8.43,8.29-1.74,15.45l.63-1.58c5.21,8.91,12,57.55,17,65.08l-1.86-.32c6.58,6.46,4.11,17.76,13.29,23.65.12,15.77,13,80.27,22.08,95.51,6.07,13.74,6.13-.54,9.6,13.77.38,2.07,4,2,5.21-1.13,0,5,2.85,10.84-.61,16.63,14.77,26.92,30.61,84.21,40.9,111.39l-1-.5c5.95,18.06,33.14,88,37.37,106.49l5.83,2.31c-2.73,4.9,1.36,7.59-.24,13.69,1.36,2.57,4.58.44,5.2-1.14-1.73,5.41,3.48,9.29,1.36,12.61l-1.85-.3c-3,8.54,10.67,9.14,7.83,18.38l-.88.19c-2,4,3.85,6.34,6.08,8.73C730.91,1998.53,725.94,1996,724.83,1999.87Zm-165.45-63.4c-.09-.29-.19-.62-.3-1A.68.68,0,0,0,559.38,1936.47Z"/>
  <path class="cls-6" d="M1266,1627.5c4.77,2,7.22,0,9.81-1.57C1270.92,1624.43,1267.81,1624.82,1266,1627.5Z"/>
  <path class="cls-6" d="M1276,1626a.19.19,0,0,1,0-.08.24.24,0,0,1-.1,0Z"/>
  <path class="cls-6" d="M1568.48,1074.13l-1.88,1.79A3.84,3.84,0,0,0,1568.48,1074.13Z"/>
  <path class="cls-6" d="M1495.8,1420.84l-.22,0A.46.46,0,0,0,1495.8,1420.84Z"/>
  <path class="cls-6" d="M1553.21,1341.38l-.14.13C1553.22,1341.62,1553.26,1341.56,1553.21,1341.38Z"/>
  <path class="cls-6" d="M1269.25,1623.55l1.67-2.62c4.1-1.19,1.5-5.93,4.56-2.74l-3.82,3.3c3.45-1.81,3.41,1.66,4.29,4.39a8.26,8.26,0,0,1,4.59-1.52c-.75-1.69-1.71-.86-2.8-1.1.21-2.5-1-7.36,2.19-7.72,2.87-2.47,5.39,4.72,8.74,1.84,3.77-3,7.61-6,11.45-8.85,5.43-4.09,10.86-8.12,16.13-12.3,4.53-3.55,8.89-7.27,13.2-11.07a155.88,155.88,0,0,0,12.33-12.2c1.68.91,1.19,1.32,1.31,2.37,3.57-6.34,8.37-10.36,11.51-16.26,2.66.14,4.94,1.72,6.61,2.65-3.33-1.82,22.11-27.82,23.28-27.44l-5.28-6c4.88-4.93,7.85,5.12,11-.76-6.1-9.84,8.42-6.58,5.82-12.43.58.68,3.07-1.26,5.38,1.42-3.58-5.08,1.31-3.28,1.64-5.78-.66-1.72-1.65-1-3.32-1.91l1.77-4.7c2.66.2,5.47,2.51,4.54,4.31,2.53-1.64,7.24-5.05,13-9.42s12.52-9.72,19.32-15.07,13.45-10.89,18.89-15.75,9.72-8.94,11.54-11.66c-4.33-2.32-5.12,2.63-11.16-1.73-.27-5.29,4.64-2.29,2.84-6.46,8.27,7.13,7.23-3.08,16.5,3.34l-3.41-5.2,3.76,1.66c3.32-7.35,3.43-8.51,4-8.79s1.7.3,7.09-3.52c5-5.65,2.18-14.23,7.1-14.94-.94,0-4-1.59-3.61-3.85,3.83,3.81,1.36-6.39,5.69-3,1-1.8,6.13-5.44-.33-9.56,3.22,2,8.42-.51,8,4.08,1.57-1.08,3.66-1.46,3.61-3.57l-3.18,0c4.1-5,10.47-3,9.22-10.71l-3.7-.67c2.57-2.85,4.62-5.36,10.52-.83l-1.48,4.26c4.64-4.28,7.19-7.14,8.63-13.54l-1.55,1.09c.12-5,6-14.25,11.6-23.72,2.81-4.73,5.59-9.5,7.59-13.78s3.29-8,3-10.75l-5.84-2.51,1.06-7c.17,1.19,7.9,12.86,8.36,14.46l11.64-10.86,8.79-8.15c3.14-2.85,6.45-5.78,9.77-8.69,6.64-5.83,13.34-11.54,19-16s10.51-7.6,13.18-8.5c5.29-.19,6.18,6.57,6.7,7.3,2.75-4.87-2-6.09,1.78-8.45,1.58.06,2.56,3.64,2.53,4.7,1.1-1.73,3.72-1.3,2.19-3.47-3.16-.11-6.71-6.26-10.34-9.21l4.84-3,2.54,3.64c1.08-.67-5-11.55.91-13.12,8.64-4.26,15.8-11.75,23.93-16.75,1.5,2.2.89,4.67.26,7.12,1.09-.66,2.2-2.39,4.29-1.59-4.67-2.33,1.24-4.92-1.38-5.39-1.07-12.86,12.14-10.37,12.59-20-2.72-4-25.32-39.46-48-75.12s-45.36-71.57-48.83-76.21c1.74-1,3.46-2.09,4.52-1.69-2-1.88-6-.53-6.73,2l3.43,5.19c-2.55,4.66-3.11-2.27-6.64.92-3.25-3.91-.43-7.41,2.34-10.11-3.11,1.61-8.09.72-5.86,6-3.87.26-3.45-5.19-7.89-4.56-1.33,2.88-1.25,9-5.62,8.59l-.5-.75c-9.4.53-4.85,13.29-13.61,13.54l-.43-1.82c-3.79-.79-5.3,5.37-10.8,5.66,1.65,0,4.78,2.25,3,4.39-6.09.66-6.94,5.37-12.39,4.58l.17,6.16c-3.77,2.56-9.75,7.7-16.92,14s-15.49,13.92-23.62,21.71-16.33,15.5-23.21,22.18-12.56,12.18-15.93,15.24l0-1.07c-2.47,2.45-5.31,5.16-8.44,8.07l-10,9.38c-7.09,6.6-15,13.72-22.64,21.08s-15.28,14.88-22,22a189.64,189.64,0,0,0-16.71,20.11c-6.57-.72-10.36,4.2-14.73,6.25,3.29-.19,5,3,3.32,4.17-10.76,9,1.57,3.15-7.52,14.26-2.25,3.59-7,8.67-13.18,14.38s-13.49,12.18-21.06,18.35c-3.77,3.09-7.59,6.12-11.29,9s-7.22,5.63-10.52,8.08a141.44,141.44,0,0,1-15.51,10.44c-.67,10.55-11.37,13.46-13.67,22l-.63-1.75c-1,1.91-4.11,5.08-8.29,8.88-2.1,1.9-4.46,4-7,6.1l-7.72,6.68c-10.47,9.06-21.15,18.18-23.54,22.52l1.63-.19c-2.61,9.09-7.45,2.73-13.8,5.69,6.39,5.07,4.71,13.36,3.25,15.73l-1.2-1.32c-1.88,3.89-3.32,15.37-7.16,21l-3-3.27c-.45,7.37-9.17,13.62-11.63,16.86-7.74,5.35-23.08,10.52-27.25,23.55l-14.71-2.76.12,1.71s25.79,28.28,56,57.77c17.85,17.42,37.23,35.28,53.65,48.09,11.38,8.89,21.34,15.36,28.38,17.58Z"/>
  <path class="cls-6" d="M1656.68,433c4-3.17,3.58-6.12,3.48-9C1656.43,427.44,1655.24,430.27,1656.68,433Z"/>
  <path class="cls-6" d="M1660.25,423.86l-.08,0a.21.21,0,0,1,0,.11Z"/>
  <path class="cls-6" d="M1579,52.92c0,.06,0,.13,0,.19C1579.16,53.05,1579.14,53,1579,52.92Z"/>
  <path class="cls-6" d="M1607.5,142.75a.45.45,0,0,0,.14-.26Z"/>
  <path class="cls-6" d="M1384.3,31.75c1,9.91,1.78,18.07,2.09,22.79l-.81-.72c.39,3.59.76,7.65,1.11,12.06s.86,9.18,1.33,14.19.93,10.24,1.41,15.61.92,10.85,1.67,16.32c1.36,11,2.87,21.92,4.61,31.94.42,2.51.93,4.95,1.46,7.32s1.06,4.66,1.62,6.87c1.1,4.41,2.27,8.46,3.5,12.05-4.41,5.07-2.61,11.24-3.48,16.16,1.75-2.89,5.3-2.37,5.31-.29,1.28,14.48,3.49.59,7.44,14.87,1.67,4,3.11,11.09,4.31,19.65.55,4.29,1.28,8.92,1.85,13.75s1.13,9.85,1.6,14.86.86,10,1.18,14.85.8,9.42,1.06,13.66a151.59,151.59,0,0,1,.32,19.3,14.86,14.86,0,0,1,4.48,5.61,30.92,30.92,0,0,1,2.1,6.42c1,4.38,1.73,8.82,4.78,12.21l-1.83-.43c1.1,1.93,2.13,6.39,3.13,12.14.5,2.88,1,6.08,1.49,9.44s1.14,6.87,1.72,10.4c1.16,7.06,2.32,14.16,3.5,20.07.59,2.95,1.18,5.6,1.78,7.8a24.21,24.21,0,0,0,1.9,5l.66-1.53c6.54,7.18-1.41,8-2,15.2,7.61-2.91,13.94,3,15.25,5.52l-1.74.36c2.42,3.73,11.56,11.07,14.64,17.37l-4.34.95c6.21,4.24,7.37,15.19,9,19,.49,4.81-.19,11.33.49,17.88.14,1.48.34,3,.61,4.44l15.22,22.33,7-1.83c14.34-3.8,33.72-9.17,53.9-15.39,40.36-12.43,83.88-28.21,97-40.36l4.27-1.17-1.44-2.6c1-4-4.39-4-.11-5.11l1,4.73c.14-3.75,3.12-2.14,5.91-1.65a7.83,7.83,0,0,1,1-4.57c-1.83-.13-1.59,1.05-2.34,1.87-2.06-1.31-6.83-2.53-5.59-5.35-.72-3.56,6.75-2.42,5.92-6.54-1.9-10.95-2.72-22-4.3-32.84q-.57-4.07-1.27-8.09t-1.46-8.06a138.68,138.68,0,0,0-3.95-16c1.64-1,1.73-.36,2.69.05a53.79,53.79,0,0,1-4-8.84c-.55-1.45-1.09-2.87-1.72-4.28A33.8,33.8,0,0,0,1643,327c1.54-2.12,4.08-3.22,5.75-4.14-1.67.93-4.57-7-7-15.22-1.19-4.13-2.29-8.32-3-11.55s-.94-5.48-.73-5.67l-7.89,1.3c-1.47-6.44,8.54-3.81,5.36-9.34-11.55,0-.92-10.12-7.24-11,.89-.14.61-3.12,4.12-3.63-6.21.31-2-2.71-4-4.25-1.8-.34-1.72.85-3.42,1.7l-.47-.59-1-1.32-1.45-1.92c1.64-2,5.11-3.13,6.1-1.45,0-2.87-.18-8.41-.61-15.27s-1.18-15-1.66-23.22-1.33-16.37-2.25-23.22c-.5-3.42-.84-6.54-1.32-9.14a34,34,0,0,0-1.56-6.17c-4.39,2.16-.81,5.44-7.85,7.84-4.46-2.63.81-4.88-3.63-5.71,10.59-2.65,1.67-7.35,12.26-11.13l-6.22-.15,3.53-2c-4.08-6.57-5-7.29-4.84-7.91s1.2-1.16,1.31-7.44c-1.64-6.92-10.14-9.51-7.93-13.69-.68.76-3.65,2.12-5.19.6,5.33-.85-4.37-4.61,1-6.06-.87-1.76-.79-7.78-7.93-5.09,1.79-.68,2.91-2.38,4-3.55s2.28-1.81,4-.37c.08-1.81,1-3.64-.69-4.79l-1.87,2.48c-1.53-6,3.91-9.73-3-13.15l-2.75,2.47c-.74-3.6-1.53-6.61,5.64-8.56l2.52,3.54c-.64-6-1.4-9.55-5.66-14.31l-.06,1.8a14.19,14.19,0,0,1-3-3.38,51.83,51.83,0,0,1-2.88-5.32c-1.93-4-3.9-9-5.92-13.85s-4.12-9.82-6.29-13.86-4.23-7.23-6.56-8.65l-5.6,2.95-4.82-5c1,.58,15,1.65,16.53,2.25-.2-2.8-.7-8.34-1.28-15.26-.29-3.54-.61-7.43-.94-11.5s-.4-8.33-.57-12.58C1576,9,1575.87,4.37,1575.8,0h-194c.39,5.34.79,10.66,1.17,15.8C1383.44,21.41,1383.75,26.8,1384.3,31.75Z"/>
  <path class="cls-6" d="M1384.71,1868.69c0,.82,0,1.75.08,2.7A4.11,4.11,0,0,0,1384.71,1868.69Z"/>
  <path class="cls-6" d="M1575.81,1989.63c.33-7,.93-12.45,2-15,3.26-4,9-.48,9.9-.41-2-5-5.94-2.32-5.33-6.54,1.06-1.12,4.43.39,5.22,1.06-.61-1.87,1.4-3.51-1.25-3.75-2.11,2.25-9.1,1-13.69,1.86l.76-5.46,4.43.41c.19-1.2-12.08-3.56-9.45-8.88,2.43-9,1.43-19,3-28.06,2.65.32,4.11,2.34,5.56,4.35.2-1.21-.37-3.12,1.6-4.12-4.82,1.9-2.92-4-5-2.44-5.27-3.71-5.1-7.58-4.62-11.31s1.45-7.32-2-10.58c-4.84-.66-46.31-7.3-88-14.33s-83.55-14.35-89.32-14.89c.38-2.07.76-4.12,1.77-4.67-2.76.28-4.4,4.27-3,6.6l6.16.94c1.76,5.2-3.77.84-3.76,5.77-5.08-.18-5.8-4.79-6-8.82-.89,3.52-4.87,6.79.55,8.73-2.39,3.19-6.16-.92-8.66,3,1.25,3,5.89,7.24,2.62,10.33l-.89-.13c-5.88,7.73,6.61,12.94,1.07,20l-1.65-.91c-3.08,2.44.58,7.84-2.82,12.38,1.1-1.29,4.84-2.25,5.28.62-3.5,5.25-.5,9.12-4.68,12.9l4.77,4c-.13,1.18-.23,2.57-.32,4.16s-.08,3.36-.09,5.31c0,3.89,0,8.43.17,13.41.29,10,.6,21.65,1.57,33.32,0,.5.07,1,.11,1.49h194C1575.75,1996.33,1575.74,1992.82,1575.81,1989.63Z"/>
  <path class="cls-6" d="M728.41,7.85a4.17,4.17,0,0,0,1,2.5C729.12,9.59,728.78,8.72,728.41,7.85Z"/>
  <path class="cls-6" d="M527.37,17.14c.25,1.39,1.49,3.26,0,5,3.83-3.72,4.21,3.38,5.58.93,12.52,4.43,5.71,16.69,14.63,21.2,9.55-2.09,165.12-31.73,176.27-34.89.38,2.08.74,4.15,0,5,2.48-1.27,2.6-5.6.5-7.29l-6.08,1.33c-3.48-4.27,3.22-2.15,1.47-6.78,4.82-1.64,7.11,2.43,8.67,6.15C728,4.62,730,.75,726.44,0H528.93c1.77,6.69,4.06,13.34,5.26,20C531.58,20.52,529.47,18.83,527.37,17.14Z"/>
  <path class="cls-6" d="M1969.31,1186.82c5.45.29,8.1-3.19,10.92-6.31C1974.62,1180.85,1971.15,1182.72,1969.31,1186.82Z"/>
  <path class="cls-6" d="M1980.36,1180.49s0-.06,0-.09a.55.55,0,0,1-.1.11Z"/>
  <path class="cls-6" d="M1981.2,822.85c-4.08,5.08-8,9.91-11.7,14.29-7.34,8.75-13.55,15.71-17.31,19.26a23.07,23.07,0,0,1-2.11,9,55.65,55.65,0,0,1-4.47,7.92c-3.33,5.09-6.92,10-8,15.67l-.81-1.85c-1,2.75-4.44,7.92-9,14.33-2.3,3.21-4.9,6.72-7.65,10.4l-8.42,11.46c-5.73,7.77-11.49,15.59-16.14,22.25-2.33,3.33-4.38,6.37-6,9a44.15,44.15,0,0,0-3.41,6.36l1.83-.94c-2.48,12.19-8.27,6.57-15.27,13,7.47,3.37,6,14.2,4.48,17.71l-1.42-1.07c-1.92,5.55-3,20.15-7,28.74l-3.57-2.67c-.1,9.2-9.55,20.67-12.13,25.7-8.43,9.92-25.24,23-29.13,40.82l-16.61,3.08.23,2s30.48,23.36,66,46.26,75.94,45.44,95.51,44.46l3.62,2.56,1.73-4c4.54-3.29,1.37-8,5-5.4l-4.11,5.77c3.78-3.78,3.92.53,5,3.5a13.57,13.57,0,0,1,5.07-3.92c-.93-1.75-2-.31-3.2-.11.1-3.19-1.46-8.66,2-10.51,3.09-4.33,6.31,3.41,9.91-1.63,1.93-2.59,3.88-5.14,5.85-7.69V799.33c-2,2.62-4.1,5.26-6.17,7.88C1989.61,812.54,1985.35,817.82,1981.2,822.85Z"/>
  <path class="cls-7" d="M352.7,1606.29c-.18.27-.24.56.18.9C352.83,1606.92,352.77,1606.6,352.7,1606.29Z"/>
  <path class="cls-7" d="M223,1408.3c-.1,0-.17,0-.18.07Z"/>
  <path class="cls-7" d="M240.72,1445.53v-.07C240.54,1445.46,240.55,1445.48,240.72,1445.53Z"/>
  <path class="cls-8" d="M424.42,1533.52c2.73.19,4.19-1,2.74-1.89l-6.14-1c-1.94-1.91,3.71.11,3.51-1.53,5,.59,5.93,2.2,6.24,3.55.74-1.08,4.57-1.75-.89-3,2.25-.81,6.15,1,8.48-.08-1.36-1.13-6.13-3-3-3.69l.88.13c5.56-1.91-7.1-5-1.64-6.71l1.65.48c3-.46-.66-2.64,2.65-3.75-1.07.3-4.77.19-5.25-.81,3.41-1.32.39-2.94,4.49-3.69l-4.77-1.89c1.78-6-2-31-2-37.2l.76.35c-1.22-9.66,1.73-28.75-3.78-39.3,5.06-.84,4.19-3,5.76-4.42-2.14.59-5.55-.16-5.26-.81a3.54,3.54,0,0,0,.13-1.82c-.5-1.71-3.71.11-4.88-4-3.78-6.13,4.19-26.55,9-30.9-6.81-3.59-.95-6.15-5.13-9.33l1.65.48c-2.32-3.12,6.41-17.91,4.28-21.47l-1.08.3c-4.07-3.4,3.71-2,6.45-3.86-8.07-.78-12.31-3.8-12.79-4.8l1.75.28c-1.17-1.57-7.73-5.64-8.5-8.06l4.39.67c-4.47-2.53-2-5.85-2.31-7.28,2.24-2.89,10.54-6.69,5.29-11.65l12.89-1-1.19-.56s-150.7-24.63-183.66-23.42l-4.37-.67.42,1.17c-2.34,1,2.66,2.31-1.7,1.63l.77-1.72c-1.44,1.14-3.65-.09-6.06-.92a4.25,4.25,0,0,1-2.5,1.21c1.65.49,1.84.05,2.82,0,1.45.91,5.45,2.45,3.31,3-.6,1.3-7.12-.86-7.81.65-4.5,7.85-10.67,15.21-10.8,23.73a4,4,0,0,1-2.54-.62c1.56,2.78.57,4.94,2.23,7.5a33.68,33.68,0,0,1-6.63.13c3.7.11,2.28,13.25,1.3,13.33l7.9,1.22c-.22,2.51-9.16-.49-7.52,2.08,11.09,2.4-1.67,3.66,4.18,5.26-.89-.14-1.38.94-4.88.4,6,1.16,1.26,1.35,2.72,2.27,1.66.48,1.84,0,3.71.1l1.93,1.92c-2,.37-5.65,0-6.22-.73-2.75,4-11.31,23.61-8.89,28.6,4.67,0,1.76-1.8,9.06-1.37,3.88,1.75-1.66,1.59,2.53,2.7-10.81-1-2.93,2.31-13.94,1.77l6,1.17-3.81.1c5.62,6.18,2.93,1.63.86,6.16.56,2.8,8.5,5.19,5.71,6.33.78-.16,3.9-.14,5.18.66-5.36-.59,3.59,2.4-1.86,2,.58.78-.41,2.93,7,3.15-3.69-.1-5.46,1.7-8.47.08-.3.65-1.47,1.16.08,1.87l2.16-.6c.75,2.43-5.07,2.91,1.34,5.29l3-.46c.28,1.43.67,2.65-6.63,2.21l-2-1.7c-.12,2.29.17,3.72,3.77,6.13l.28-.65c6.91,3.37,11.19,16.76,19.94,20.19l5.75-.27,4.41,2.5c-1-.36-14.71-2.76-16.19-3.2,0,4.31,1.46,25.93-2.81,29.18-3.31,1.1-8.94-.92-9.83-1.06,1.85,2.13,5.85,1.6,5.15,3.11-1.07.29-4.39-.68-5.15-1,.57.78-1.46,1.16,1.15,1.56,2.15-.59,9.07.71,13.64,1l-.88,2-4.38-.68c-.19.43,11.87,2.75,9.24,4.43-2.36,3.1-1.3,7-2.77,10.19a12.94,12.94,0,0,1-5.55-2.24c-.19.44.39,1.22-1.56,1.38,4.77-.19,2.91,1.83,5,1.46,10.41,3.91.17,5.79,7.17,9,5.58.86,60.13,9.75,107.31,17.38,34.32,5.55,64.74,10.43,69.58,11.08C425.69,1532.79,425.39,1533.44,424.42,1533.52Z"/>
  <path class="cls-7" d="M662,1526.13c-.08-.27-.16-.57-.26-.88C661.59,1525.53,661.55,1525.82,662,1526.13Z"/>
  <path class="cls-7" d="M534.33,1203.75v-.07C534.14,1203.69,534.16,1203.71,534.33,1203.75Z"/>
  <path class="cls-8" d="M724.57,1276.14c2.73,0,4.1-1.3,2.58-2.09l-6.2-.45c-2.09-1.74,3.7-.19,3.37-1.8,5.08.18,6.09,1.7,6.51,3,.65-1.13,4.41-2.1-1.12-2.86,2.17-1,6.2.45,8.44-.75-1.45-1-6.35-2.51-3.29-3.42l.89.06c5.38-2.34-7.49-4.4-2.18-6.52l1.68.35c3-.69-.88-2.56,2.34-3.92-1.05.38-4.74.57-5.3-.38,3.29-1.58.15-2.94,4.17-4l-4.9-1.49c1.29-6.05-4.52-30.49-5-36.65l.78.28c-2-9.46-.61-28.59-7-38.59,5-1.23,3.92-3.35,5.37-4.83-2.08.75-5.54.28-5.3-.39.81-4.71-3.37-.5-5.21-5.4-4.26-5.76,2-26.61,6.45-31.29-7.08-3-1.45-6-5.88-8.83l1.69.35c-2.57-2.91,4.94-18.24,2.52-21.59l-1,.38c-4.33-3,3.54-2.25,6.12-4.33a26.75,26.75,0,0,1-10.9-2.18,5.69,5.69,0,0,1-2.25-1.55l1.77.13c-1.29-1.45-8.16-5-9.12-7.3l4.42.33c-4.66-2.16-2.49-5.64-2.89-7,2-3,10-7.46,4.33-12l12.76-2-1.23-.46s-46.48-3.76-93.59-6.48c-38.15-2.21-76.71-3.73-91.36-2l-4.42-.32.52,1.12c-2.25,1.2,2.84,2.07-1.56,1.76l.63-1.77c-1.35,1.25-3.64.2-6.12-.43a4.24,4.24,0,0,1-2.39,1.4c1.68.35,1.84-.09,2.81-.25,1.52.79,5.62,2,3.54,2.75-.49,1.33-7.16-.28-7.72,1.27-3.86,8.12-9.4,15.9-8.84,24.35a4,4,0,0,1-2.58-.42c1.78,2.63,1,4.84,2.83,7.25a34.08,34.08,0,0,1-6.59.66c2.08-.11,2.88,4,3,7.71.09,2.8-.21,5.31-.63,5.37l8,.58c0,2.5-9.17.25-7.32,2.65,11.24,1.5-1.37,3.77,4.59,4.88-.9-.07-1.3,1-4.83.79,6.11.66,1.36,1.23,2.89,2,1.69.35,1.85-.09,3.7-.19l2.08,1.74c-2,.54-5.62.51-6.25-.22-2.42,4.14-9.36,24.27-6.54,29,4.66-.34,1.61-1.92,8.92-2.08,4,1.42-1.52,1.71,2.74,2.47-10.85-.1-2.73,2.53-13.75,2.87l6.12.67-3.79.41c6.11,5.66,3.05,1.38,1.36,6,.29,1,1.6,1.89,3,2.66,2.34,1.3,4.9,2.29,3.21,3.14.77-.22,3.87-.45,5.22.24-5.39-.16,3.77,2.09-1.69,2.15.64.73-.17,3,7.24,2.57-3.7.19-5.31,2.12-8.44.75-.25.67-1.37,1.27.23,1.84l2.1-.76c1,2.34-4.82,3.29,1.77,5.13l3-.7c.4,1.39.89,2.57-6.43,2.72l-2.16-1.52c.07,2.28.47,3.67,4.25,5.76l.24-.66c7.15,2.78,12.5,15.69,21.5,18.38l5.71-.73,4.6,2.13c-1-.27-14.88-1.55-16.39-1.87.34,4.26,3.56,25.54-.43,29.1-3.21,1.35-9-.2-9.88-.26,2,2,6,1.11,5.38,2.66-1,.38-4.43-.32-5.22-.61.63.73-1.36,1.27,1.28,1.46,2.1-.76,9.09,0,13.67-.15l-.72,2-4.42-.32c-.16.44,12,1.78,9.57,3.64-2.1,3.26-.73,7-1.94,10.31a13.08,13.08,0,0,1-5.7-1.77c-.16.45.48,1.17-1.45,1.49,4.74-.57,3,1.58,5.06,1,10.7,3,.64,5.73,7.88,8.29,9.73.7,167,13.42,178.61,14C725.78,1275.32,725.53,1276,724.57,1276.14Z"/>
  <path class="cls-7" d="M513.61,1168.32a.36.36,0,0,0-.17.08Z"/>
  <path class="cls-7" d="M770.06,1529.64c-.17.23-.36.49-.54.76C769.84,1530.34,770.1,1530.18,770.06,1529.64Z"/>
  <path class="cls-7" d="M918.67,1646.52l-.06,0C918.74,1646.71,918.74,1646.68,918.67,1646.52Z"/>
  <path class="cls-7" d="M903.7,1685.2c.06,0,.1.06.12,0A.43.43,0,0,0,903.7,1685.2Z"/>
  <path class="cls-8" d="M942,1628.36c3.09,1.64,5.49,7.13,6,7.87.29-2.82-2.86-5.35-1.28-5.89,1,.57,2.53,3.65,2.8,4.45.18-1,1.85.26.35-1.92-1.92-1.15-5.73-7.06-8.7-10.55l2-.71,2.52,3.65c.45-.16-6.16-10.51-3.12-9.76,3.89-.44,6-3.87,9.36-5a12.89,12.89,0,0,1,2.18,5.57c.46-.16.62-1.12,2.09.18-3.43-3.32-.67-3.38-2.35-4.61-4.31-10.26,4.12-4.13,1.61-11.4-1.13-1.62-5.68-8.31-12.28-18-25.91-38-83.31-122.49-88.72-130a1.84,1.84,0,0,1,2.09.19c-1.74-2.11-3.6-2.37-3.27-.68l3.54,5.11c-.07,2.73-2.48-2.77-3.54-1.48-3-4.07-2.48-5.83-1.7-7-1.3.21-4.43-2.1-1.56,2.69-2.13-1.07-3.53-5.11-5.89-6.09.11,1.77,2,6.53-.64,4.73L843,1449c-5.22-2.71,1.22,8.62-3.78,5.84l-.79-1.53c-2.41-1.89-1.47,2.31-4.56.67,1,.57,3.42,3.33,3,4.36-3.31-1.55-2.42,1.76-5.79-.69l1.9,4.76c-5.59,2.84-21.28,22.9-25.85,27.18l-.27-.78c-6.23,7.56-22.23,18.64-26.15,29.93-4.1-3.08-5.12-.92-7.2-1.11,1.91,1.14,3.7,4.14,3,4.38-4.23,2.36,1.72,2.93-1,7.48-1.88,7-22.31,15.34-28.8,14.87,2.07,7.42-3.84,4.94-3.29,10.18l-.78-1.53c-.69,3.85-17.52,7.74-18.66,11.75l1,.58c.31,5.31-4-1.33-7.26-2,5,6.4,5.7,11.56,5.3,12.6l-1-1.45c-.34,1.93,1.2,9.5,0,11.74l-2.53-3.65c1.22,5-2.89,5.52-3.74,6.71-3.66.38-12.15-3-12.17,4.23l-9.63-8.64.41,1.25S780,1712.42,803.63,1735.49l2.51,3.64.57-1.12c2.36,1-.15-3.53,2.36.1l-1.79.64c1.83.25,2.45,2.7,3.5,5a4.17,4.17,0,0,1,2.61,1c-.78-1.53-1.23-1.37-2-2-.33-1.69-1.95-5.65,0-4.5,1.36-.47,4.27,5.76,5.85,5.21,8.84-2.17,18.48-2.79,24.81-8.59a4,4,0,0,1,1.29,2.27c1-3.06,3.22-3.83,3.95-6.81a33.89,33.89,0,0,1,4.66,4.71c-2.46-2.75,8.13-10.81,8.86-10.16l-4.54-6.57c2-1.58,6,7,6.69,4-5.88-9.7,3.83-1.33,1-6.67.51.74,1.64.35,3.65,3.26-3.31-5.18.12-1.85-.21-3.54-.79-1.54-1.23-1.38-2.47-2.76l.07-2.73c1.68,1.22,3.93,4.06,3.75,5,4.79-.75,25.06-8.13,27-13.35-3.2-3.4-2.53,0-7.25-5.61-1.39-4,2.31.09.24-3.71,6.73,8.52,3.71.52,10.9,8.88l-3.31-5.18,2.69,2.69c.65-8.36-.82-3.26,3.92-4.89,1.68-2.36-2.08-9.83.75-8.49-.57-.35-2.83-2.71-3.13-4.25,3.25,4.3-.72-4.26,2.76,0,.17-1,2.43-1.74-2.51-7.26,2.46,2.75,5,2.78,5.89,6.08.68-.22,1.86.27,1.3-1.34l-1.91-1.15c1.25-2.23,5.62,1.66,2.94-4.64l-2.41-1.87c.85-1.19,1.47-2.32,6.18,3.27l.16,2.66c1.76-1.5,2.6-2.7,1.88-7l-.67.24c-2.28-7.34,4.56-19.71,1-28.43l-4.16-4-.92-3.8-.28-1.13c.11.26.78,1.33,1.7,2.78,2.42,3.8,6.6,10.18,7.11,11.17,1.39-1.31,5.07-5.18,9.2-9C933.07,1632.67,939,1627.89,942,1628.36Z"/>
  <path class="cls-8" d="M1482,855.71c1.72,0,5.93-.73,4.42.89.17,1.43-6.52,3-6.31,4.64.28,9.1-1.11,18.66,3.26,26a4,4,0,0,1-2.49.79c2.79,1.58,3.08,3.95,5.83,5.29a34.22,34.22,0,0,1-5.57,3.58c3.2-1.84,8.89,10.19,8.1,10.77l7.37-3.08c1.14,2.26-8.06,4.37-5.31,5.71,10.71-3.73.5,4,6.32,2.34-.83.34-.68,1.53-3.94,2.89,5.76-2.16,1.78.51,3.51.53,1.66-.45,1.6-.92,3.21-1.84l2.65.63c-1.54,1.39-4.78,3-5.68,2.63-.26,4.84,2.76,26.21,7.45,29.23,4-2.42.55-2.47,7-5.92,4.24-.53-.57,2.23,3.58,1-9.73,4.82-1.28,3.53-10.95,8.82l5.76-2.16-3.19,2.08c8,2.37,3.35-.13,4,4.85,2,2.12,10,0,8.19,2.45.59-.55,3.25-2.16,4.77-2.14-4.89,2.29,4.31.19-.53,2.71.91.37,1.2,2.74,7.63-1-3.21,1.84-3.77,4.32-7.18,4.5.08.72-.64,1.77,1.05,1.56l1.52-1.64c1.92,1.69-2.79,5.16,3.92,3.84l2.34-2c1,1.08,2,1.92-4.49,5.37l-2.63-.4c1.1,2,2.1,3.11,6.43,3.29l-.09-.7c7.65-.71,18.33,8.55,27.59,6.91l4.76-3.24,5.08-.15c-1,.2-14,5.33-15.48,5.72,2.25,3.71,14.86,21.52,12.93,26.54-2.24,2.69-8.11,3.89-8.94,4.24,2.7.87,5.83-1.69,6,0-.76.82-4.1,1.72-4.94,1.82.9.37-.63,1.76,1.81.74,1.52-1.64,8.1-4.14,12.12-6.32l.28,2.13-4.1,1.71c.06.47,11.57-3.84,10.2-1-.37,3.9,2.55,6.66,3,10.21a12.92,12.92,0,0,1-5.91,1c.06.48,1,.85-.61,2,4-2.66,3.45,0,5-1.35,10.93-2.08,3.19,4.89,10.82,4,9-3.77,155.11-63.41,165.72-68.1a1.85,1.85,0,0,1-.62,2c2.42-1.27,3.06-3,1.35-3.06l-5.74,2.4c-2.66-.63,3.22-1.85,2.18-3.16,4.62-2.13,6.21-1.21,7.19-.21.06-1.32,3-3.89-2.31-2.08,1.49-1.87,5.74-2.4,7.18-4.5-1.75-.26-6.8.61-4.49-1.61l.82-.34c3.73-4.55-8.69-.6-4.93-4.92l1.66-.45c2.35-2-2-1.92.29-4.6-.76.82-4,2.66-4.9,2.05,2.22-2.92-1.21-2.73,1.89-5.52l-5.06.87c-1.61-6.06-18-25.56-21.22-30.93l.82-.1c-6.1-7.66-13.62-25.61-23.86-31.79,3.87-3.37,2-4.82,2.59-6.82-1.51,1.63-4.82,2.76-4.91,2.06-1.43-4.64-3.23,1.07-7.12-2.54-6.43-3.28-10.37-25-8.56-31.25-7.69.47-4-4.79-9.28-5.34l1.66-.44c-3.62-1.48-3.94-18.75-7.63-20.7l-.76.82c-5.26-.79,2.13-3.63,3.47-6.68-7.29,3.54-12.49,3.17-13.43,2.57l1.64-.69c-1.82-.73-9.54-.8-11.48-2.48l4.1-1.71c-5.14.16-4.81-4-5.8-5,.4-3.66,5.47-11.27-1.61-12.79l10.45-7.62-1.31.14s-141.38,57.69-168.84,76l-4.08,1.71,1,.78c-1.46,2.11,3.49.59-.59,2.3l-.25-1.89c-.63,1.74-3.15,1.84-5.65,2.38a4.13,4.13,0,0,1-1.49,2.35C1481.25,856.77,1481.19,856.29,1482,855.71Z"/>
  <path class="cls-7" d="M1553.84,980.58l0-.06C1553.64,980.61,1553.67,980.62,1553.84,980.58Z"/>
  <path class="cls-7" d="M1519.15,957.87a.35.35,0,0,0-.12.15A1.58,1.58,0,0,0,1519.15,957.87Z"/>
  <path class="cls-7" d="M1122.57,892.12c-.11,0-.17,0-.18.07Z"/>
  <path class="cls-7" d="M1140.32,929.35v-.07C1140.13,929.27,1140.15,929.3,1140.32,929.35Z"/>
  <path class="cls-8" d="M1125.89,894.8c.58.79-.41,2.94,7,3.16-3.7-.1-5.46,1.7-8.47.08-.31.65-1.47,1.16.08,1.86l2.15-.59c.76,2.43-5.07,2.91,1.35,5.29l3-.46c.28,1.43.67,2.65-6.63,2.21l-2-1.7c-.12,2.29.18,3.72,3.77,6.13l.29-.65c6.9,3.37,11.18,16.76,19.93,20.19l5.75-.27,4.41,2.5c-1-.36-14.71-2.76-16.18-3.2,0,2.94.67,13.92-.25,21.64-.43,3.61-1.2,6.5-2.56,7.54-3.31,1.1-9-.92-9.83-1.06,1.84,2.13,5.84,1.6,5.15,3.11-1.07.29-4.39-.68-5.16-1,.57.78-1.46,1.16,1.16,1.56,2.15-.59,9.06.71,13.63.95l-.87,2-4.38-.68c-.2.43,11.86,2.75,9.23,4.43-2.35,3.1-1.3,7-2.77,10.19a12.89,12.89,0,0,1-5.54-2.24c-.2.43.39,1.22-1.56,1.38,4.76-.19,2.91,1.83,5,1.46,10.41,3.91.17,5.79,7.17,9,9.64,1.49,165.4,26.92,176.89,28.46-.3.65-.6,1.3-1.57,1.38,2.72.19,4.19-1,2.74-1.89l-6.14-1c-1.95-1.91,3.7.11,3.5-1.53,5.05.59,5.93,2.19,6.24,3.55.75-1.08,4.57-1.75-.88-3,2.24-.81,6.14,1,8.47-.08-1.35-1.13-6.12-3-3-3.7l.89.14c5.55-1.91-7.11-5-1.64-6.72l1.65.49c3-.46-.67-2.64,2.65-3.75-1.08.3-4.78.19-5.25-.81,3.41-1.32.39-2.94,4.49-3.69l-4.77-1.89c1.78-6-2-31-2-37.2l.75.35c-1.21-9.66,1.74-28.75-3.77-39.3,5-.84,4.19-3,5.76-4.42-2.15.59-5.55-.16-5.26-.81,1.19-4.67-3.32-.77-4.75-5.84-2.28-3.7-.28-12.59,2.71-20,2-4.89,4.37-9.15,6.28-10.88-6.81-3.59-1-6.15-5.14-9.33l1.66.48c-2.33-3.13,6.41-17.91,4.28-21.47l-1.08.3c-4.07-3.4,3.71-2,6.45-3.86-8.08-.78-12.31-3.8-12.8-4.8l1.75.27c-1.16-1.56-7.72-5.63-8.49-8l4.38.67a6,6,0,0,1-2-1.78c-1.45-2.14,0-4.39-.25-5.5,2.24-2.89,10.53-6.69,5.29-11.65l12.89-1-1.19-.56s-150.7-24.63-183.67-23.42l-4.37-.67.42,1.17c-2.33,1,2.67,2.31-1.7,1.63l.78-1.72c-1.45,1.14-3.65-.09-6.07-.92a4.19,4.19,0,0,1-2.5,1.21c1.66.49,1.85.05,2.83,0,1.45.91,5.44,2.45,3.3,3-.59,1.3-7.11-.86-7.8.65-4.51,7.85-10.67,15.21-10.8,23.73a4,4,0,0,1-2.54-.62c1.56,2.78.57,4.94,2.22,7.5a33.57,33.57,0,0,1-6.62.13c3.69.11,2.27,13.25,1.29,13.33l7.9,1.22c-.22,2.51-9.16-.49-7.51,2.08,11.09,2.4-1.67,3.66,4.17,5.26-.88-.14-1.37.94-4.87.4,6,1.16,1.26,1.35,2.72,2.27,1.65.48,1.84,0,3.7.1l1.93,1.92c-2,.37-5.64.05-6.21-.73-2.75,4-11.32,23.61-8.9,28.6,4.68,0,1.76-1.8,9.06-1.37,3.89,1.75-1.65,1.59,2.53,2.7-10.81-1-2.93,2.31-13.94,1.77l6,1.17-3.8.1c5.62,6.18,2.93,1.63.86,6.16.56,2.8,8.5,5.19,5.71,6.33.78-.16,3.89-.14,5.18.66-3.35-.37-1.12.66-.3,1.39C1128,894.61,1127.93,895,1125.89,894.8Z"/>
  <path class="cls-7" d="M1507.47,609.3l0,.05C1507.54,609.48,1507.55,609.46,1507.47,609.3Z"/>
  <path class="cls-8" d="M1443.25,415a1.81,1.81,0,0,1,2.08.19c-1.74-2.11-3.6-2.37-3.27-.69l3.54,5.11c-.06,2.74-2.47-2.76-3.54-1.48-3-4.07-2.47-5.82-1.7-7-1.3.21-4.42-2.11-1.55,2.69-2.14-1.07-3.54-5.11-5.9-6.09.11,1.76,2,6.53-.64,4.73l-.5-.74c-5.23-2.7,1.22,8.63-3.79,5.84l-.78-1.53c-2.42-1.88-1.47,2.31-4.57.68,1,.57,3.43,3.33,3,4.36-3.32-1.56-2.43,1.75-5.8-.7l1.9,4.77c-5.59,2.84-21.27,22.89-25.85,27.18l-.27-.79c-6.22,7.57-22.22,18.65-26.15,29.94-4.1-3.08-5.11-.93-7.2-1.11,1.91,1.14,3.7,4.13,3,4.37-4.24,2.37,1.72,2.94-1,7.49-1.87,7-22.31,15.34-28.79,14.86,2.06,7.43-3.85,4.95-3.29,10.19l-.79-1.54c-.69,3.85-17.52,7.75-18.66,11.76l1,.58c.32,5.31-4-1.33-7.26-2,5,6.4,5.7,11.56,5.3,12.6l-1-1.46c-.34,1.93,1.2,9.5,0,11.74l-2.52-3.65c1.22,5-2.89,5.53-3.75,6.72-3.65.37-12.15-3-12.17,4.23l-9.62-8.64.4,1.25s85.77,126.34,109.36,149.4l2.52,3.64.56-1.11c2.36,1-.15-3.53,2.37.1l-1.8.63c1.84.26,2.45,2.71,3.51,5a4.21,4.21,0,0,1,2.61,1c-.79-1.53-1.24-1.37-2-2-.33-1.69-2-5.65,0-4.51,1.35-.46,4.26,5.76,5.84,5.22,8.85-2.17,18.48-2.79,24.81-8.6a4,4,0,0,1,1.29,2.27c1-3,3.22-3.83,4-6.8a34.47,34.47,0,0,1,4.66,4.71c-2.47-2.75,8.12-10.82,8.86-10.16l-4.55-6.58c2-1.57,6,7,6.69,4-5.88-9.71,3.84-1.33,1-6.67.52.74,1.64.34,3.66,3.25-3.31-5.18.12-1.84-.21-3.54-.79-1.53-1.24-1.37-2.48-2.76l.07-2.72c1.69,1.22,3.93,4,3.75,5,4.79-.75,25.07-8.14,27-13.35-3.2-3.41-2.53,0-7.24-5.62-1.4-4,2.3.1.23-3.7,6.73,8.51,3.71.52,10.9,8.88l-3.31-5.19,2.7,2.69c.65-8.35-.83-3.25,3.92-4.89,1.67-2.35-2.09-9.82.74-8.48-.57-.36-2.83-2.71-3.13-4.25,3.26,4.3-.71-4.26,2.76-.05.18-1,2.43-1.74-2.51-7.27,2.47,2.76,5,2.79,5.89,6.09.69-.23,1.86.26,1.31-1.35L1494.9,640c1.25-2.23,5.62,1.66,2.94-4.63l-2.41-1.88c.85-1.19,1.47-2.31,6.18,3.28l.16,2.65c1.76-1.5,2.6-2.7,1.89-7l-.68.24c-2.28-7.34,4.56-19.71,1-28.43l-4.15-4-1.21-4.94c.41,1,8.12,12.58,8.81,14,3.16-3,18-19,23.28-18.16,3.09,1.64,5.49,7.13,6,7.86.29-2.81-2.86-5.34-1.27-5.88,1,.57,2.52,3.65,2.8,4.45.17-1,1.85.25.34-1.92-1.91-1.15-5.72-7.07-8.69-10.55l2-.71,2.52,3.65c.45-.16-6.15-10.52-3.12-9.77,3.89-.44,6-3.87,9.37-5a13,13,0,0,1,2.18,5.57c.45-.16.62-1.12,2.08.18-3.42-3.33-.66-3.38-2.35-4.61-4.31-10.26,4.12-4.13,1.62-11.4-2.84-4.1-27.37-40.18-51.59-75.75l-15.22-22.33C1460.25,439.67,1445.83,418.56,1443.25,415Z"/>
  <path class="cls-7" d="M1492.5,648l.13,0A.69.69,0,0,0,1492.5,648Z"/>
  <path class="cls-7" d="M20.83,1831.77c3.27,3.59,4.43,3.35,5.74,3.42C23.27,1831.85,21.43,1830.69,20.83,1831.77Z"/>
  <path class="cls-7" d="M26.65,1835.27a.36.36,0,0,1,0-.07s0,0-.05,0Z"/>
  <path class="cls-7" d="M67,1543.79l-.52.73C66.8,1544.47,67.05,1544.32,67,1543.79Z"/>
  <path class="cls-7" d="M117.42,1780.3c.06,0,.1.06.12,0Z"/>
  <path class="cls-7" d="M132.05,1742.56l-.05,0C132.12,1742.74,132.13,1742.71,132.05,1742.56Z"/>
  <path class="cls-8" d="M22.09,1830.45l.55-1.08c2.31,1.05-.14-3.5,2.31.18l-1.75.56c1.79.32,2.39,2.76,3.42,5.09a4.25,4.25,0,0,1,2.55,1c-.76-1.54-1.2-1.4-1.92-2.07-.32-1.68-1.9-5.65,0-4.46,1.32-.41,4.17,5.83,5.71,5.34,8.64-1.85,18.06-2.16,24.24-7.69a4,4,0,0,1,1.26,2.29c.94-3,3.15-3.69,3.87-6.6a34,34,0,0,1,4.55,4.81c-2.4-2.81,8-10.43,8.66-9.76l-4.44-6.65c1.94-1.49,5.81,7.1,6.54,4.19-5.75-9.78,3.75-1.19,1-6.56.5.74,1.6.39,3.57,3.33-3.23-5.23.12-1.82-.21-3.5-.77-1.55-1.2-1.4-2.41-2.81l.07-2.7c1.64,1.27,3.83,4.14,3.66,5.08,4.68-.59,24.49-7.23,26.43-12.32-3.13-3.47-2.47-.11-7.08-5.79-1.36-4,2.26.17.23-3.65,6.58,8.63,3.63.64,10.65,9.13l-3.23-5.23,2.63,2.74c.64-8.23-.8-3.24,3.83-4.71,1.64-2.27-2-9.77.73-8.36-.56-.37-2.76-2.77-3.06-4.3,3.18,4.35-.69-4.24,2.7,0,.17-1,2.38-1.64-2.45-7.26,2.41,2.8,4.88,2.91,5.75,6.2.67-.2,1.82.33,1.28-1.28l-1.88-1.2c1.23-2.17,5.5,1.82,2.88-4.49l-2.36-1.93c.84-1.15,1.44-2.24,6,3.44l.15,2.63c1.72-1.43,2.54-2.59,1.84-6.84l-.66.22c-2.23-7.33,4.46-19.33,1-28.07l-4.06-4.07-1.17-4.91c.4,1,7.92,12.69,8.6,14.08,3.09-2.84,17.56-18.21,22.75-17.2,3,1.72,5.36,7.22,5.86,8,.29-2.77-2.79-5.37-1.24-5.86.93.6,2.47,3.69,2.73,4.49.17-.93,1.81.32.34-1.88-1.87-1.2-5.59-7.17-8.5-10.71l2-.64,2.47,3.69c.44-.14-6-10.59-3.05-9.75,3.8-.31,5.85-3.63,9.15-4.69a13.29,13.29,0,0,1,2.13,5.58c.44-.14.61-1.09,2,.25-3.35-3.4-.65-3.37-2.3-4.63-4.21-10.29,4-4,1.58-11.22-5.42-8.11-92.05-140-98.68-149.53a1.78,1.78,0,0,1,2,.25c-1.7-2.14-3.52-2.46-3.2-.78l3.46,5.16c-.07,2.71-2.42-2.81-3.46-1.57-3-4.12-2.42-5.84-1.66-7-1.27.16-4.32-2.23-1.52,2.6-2.09-1.12-3.46-5.16-5.76-6.21.1,1.76,2,6.53-.62,4.66l-.5-.74c-5.11-2.84,1.19,8.57-3.7,5.65l-.77-1.54c-2.36-1.94-1.43,2.24-4.45.52.93.59,3.34,3.4,2.95,4.41-3.24-1.65-2.37,1.65-5.66-.88l1.85,4.78c-5.46,2.62-20.79,21.94-25.26,26l-.26-.79C17.71,1589.09,6,1597.37,0,1606.36v196.09c8.17,11,15.08,19.68,19.63,24.33Z"/>
  <path class="cls-7" d="M559.38,1936.47c-.09-.29-.19-.62-.3-1A.68.68,0,0,0,559.38,1936.47Z"/>
  <path class="cls-7" d="M361.53,1833.3a.17.17,0,0,1,0-.07C361.34,1833.25,361.35,1833.27,361.53,1833.3Z"/>
  <path class="cls-7" d="M339.1,1795.69a.41.41,0,0,0-.17.1A1,1,0,0,0,339.1,1795.69Z"/>
  <path class="cls-8" d="M555.08,1902.13c2.73-.18,4-1.64,2.48-2.42l-6.21-.15c-2.18-1.79,3.69-.41,3.27-2.15,5.08-.08,6.17,1.53,6.65,2.94.6-1.27,4.31-2.52-1.26-3.06,2.12-1.19,6.22.15,8.39-1.28-1.49-1-6.46-2.39-3.45-3.56l.9,0c5.25-2.85-7.7-4.41-2.5-7l1.7.29c2.94-.92-1-2.75,2.14-4.41-1,.47-4.71.88-5.31-.13,3.21-1.91,0-3.23,4-4.62l-5-1.36c1-6.68-6-33.09-6.79-39.8l.79.27c-2.45-10.24-2-31.23-8.84-41.81,4.91-1.62,3.76-3.88,5.14-5.58-2,.94-5.52.6-5.32-.14.58-5.19-3.39-.36-5.47-5.62-4.54-6.06.72-29.2,4.91-34.56-7.21-2.91-1.74-6.49-6.3-9.33l1.7.29c-2.71-3,4-20.21,1.47-23.75l-1,.47c-4.48-3.08,3.43-2.64,5.9-5.06-8.11.3-12.7-2.35-13.31-3.36l1.77,0c-1.36-1.52-8.39-5-9.47-7.48l4.43.11c-4.76-2.1-2.76-6-3.23-7.52,1.85-3.43,9.59-8.7,3.74-13.31l12.65-2.93-1.26-.43s-89.79-3.08-146.31-1.81c-17.16.38-31.26,1.16-38.83,2.55l-4.43-.11.57,1.2c-2.18,1.43,2.95,2.11-1.47,2l.54-2c-1.28,1.44-3.63.42-6.13-.14a4.19,4.19,0,0,1-2.32,1.66c1.7.29,1.84-.2,2.8-.42,1.56.78,5.71,1.87,3.67,2.81-.42,1.48-7.17.08-7.66,1.8-3.44,9.1-8.6,17.9-7.63,27.11a3.68,3.68,0,0,1-2.59-.32c1.9,2.78,1.2,5.24,3.17,7.77a31.29,31.29,0,0,1-6.55,1.08c3.68-.4,4,14,3,14.18l8,.2c.11,2.73-9.14.77-7.18,3.3,11.31,1-1.18,4.18,4.82,5.07-.89,0-1.24,1.22-4.78,1.13,6.14.39,1.42,1.27,3,2.06,1.71.28,1.84-.2,3.69-.41l2.16,1.79c-2,.69-5.59.86-6.25.09-2.22,4.66-8.16,27.05-5.12,32.08,4.64-.63,1.52-2.19,8.81-2.76,4.08,1.34-1.44,2,2.86,2.55-10.85.48-2.61,2.91-13.59,3.89l6.14.4-3.77.64c6.38,5.87,3.12,1.35,1.66,6.53.91,2.93,9.1,4.39,6.48,6,.76-.28,3.84-.7,5.22,0-5.39.11,3.87,2.08-1.58,2.44.68.76,0,3.22,7.35,2.41-3.68.41-5.19,2.6-8.39,1.29-.22.74-1.3,1.45.32,2l2.06-1c1.07,2.51-4.65,3.86,2,5.51l2.94-.91c.46,1.49,1,2.75-6.29,3.32l-2.24-1.55c.18,2.49.66,4,4.53,6.07l.21-.74c7.28,2.66,13.26,16.47,22.38,18.93l5.66-1.1,4.7,2.07c-1-.24-14.94-.89-16.46-1.16.55,4.65,4.81,27.74,1,31.84-3.14,1.66-9,.28-9.89.25,2.11,2,6,.9,5.51,2.62-1,.47-4.44-.11-5.25-.37.67.75-1.29,1.45,1.35,1.52,2.06-.94,9.08-.52,13.65-.91l-.62,2.22-4.43-.11c-.14.49,12.12,1.29,9.73,3.46-1.93,3.68-.39,7.68-1.42,11.38a12.33,12.33,0,0,1-5.79-1.63c-.14.5.54,1.25-1.37,1.71,4.7-.89,3.12,1.56,5.1.86,10.84,2.75.93,6.23,8.28,8.64,5.82.14,64.44,2.12,113.18,3.69,32.86,1.06,61.23,1.94,65.9,2C556.25,1901.17,556,1901.91,555.08,1902.13Z"/>
  <path class="cls-7" d="M89.49,1909c-4.85-.39-5.54.59-6.55,1.45C87.63,1910.66,89.78,1910.25,89.49,1909Z"/>
  <path class="cls-7" d="M82.84,1910.47l0,0,0,0Z"/>
  <path class="cls-8" d="M267.18,1985.36l-1.1.21c-3.79-3.71,3.86-1.65,6.74-3.3-8-1.43-12-4.77-12.37-5.8l1.72.41c-1-1.64-7.25-6.21-7.83-8.68l4.32,1c-4.25-2.88-1.55-6-1.72-7.41,2.46-2.68,11-5.78,6.2-11.13l12.93,0-1.14-.65S126.7,1913.39,93.76,1911.9l-4.31-1,.33,1.19c-2.41.82,2.47,2.51-1.83,1.48l.91-1.64c-1.53,1-3.63-.39-6-1.41a4.17,4.17,0,0,1-2.58,1c1.6.62,1.83.2,2.81.21,1.38,1,5.23,2.87,3,3.29-.69,1.23-7-1.44-7.82,0-5.12,7.42-11.85,14.22-12.66,22.66a3.94,3.94,0,0,1-2.48-.83c1.33,2.89.18,5,1.62,7.63a35.42,35.42,0,0,1-6.61-.41c3.67.41,1.21,13.32.23,13.32l7.77,1.85c-.41,2.47-9.09-1.23-7.65,1.45,10.86,3.28-2,3.5,3.74,5.55-.87-.2-1.45.83-4.89,0,5.93,1.64,1.15,1.44,2.53,2.47,1.61.61,1.83.2,3.68.41l1.77,2.05c-2.06.21-5.63-.41-6.13-1.23-3.06,3.71-13.16,22.5-11.14,27.64,4.66.41,1.9-1.64,9.13-.62,3.74,2-1.77,1.44,2.31,2.88-5.38-.93-6.13-.4-6.94.17H262.34C264.54,1994.65,268.39,1987.8,267.18,1985.36Z"/>
  <path class="cls-7" d="M800.79,1871.17l-.23.91A.61.61,0,0,0,800.79,1871.17Z"/>
  <path class="cls-8" d="M945.31,1995.68c3.49-1.85,4.24-5.84,7-8.19a12.91,12.91,0,0,1,4,4.43c.37-.31.18-1.28,2-.59-4.4-1.87-1.83-2.94-3.84-3.47-7.69-8.06,2.4-5.4-2.53-11.31-8.06-5.49-137.65-95.58-147.36-101.91a1.87,1.87,0,0,1,2-.6c-2.38-1.34-4.22-.9-3.31.56l5.13,3.5c.91,2.6-3.3-1.68-3.84-.08-4.31-2.71-4.4-4.56-4.08-5.94-1.15.68-4.9-.35-.51,3.1-2.38-.22-5.13-3.5-7.69-3.56.72,1.62,4.2,5.4,1.08,4.69l-.74-.51c-5.87-.62,4.2,7.66-1.49,6.88l-1.28-1.15c-2.93-.88-.56,2.72-4,2.31,1.1.19,4.39,1.87,4.39,3-3.67-.24-1.66,2.54-5.7,1.48l3.48,3.78c-4.24,4.73-11.86,29.35-14.64,35.06l-.53-.64c-3.17,9.4-14.26,25.7-13.94,37.76-5-1.39-5.14,1-7.16,1.61,2.2.37,4.94,2.52,4.39,3-3.14,3.77,2.66,2.12,1.72,7.4.64,6.59-12.71,19.9-19.84,23.72h209.7C945.61,1998,943.68,1995.9,945.31,1995.68Z"/>
  <path class="cls-8" d="M1990.2,1610.42c1.86,1.19,3.61,4.21,3,4.43-4.13,2.2,1.68,3-1,7.37-1.83,6.83-21.8,14.43-28.14,13.76,2,7.4-3.75,4.76-3.22,10l-.76-1.55c-.67,3.79-17.12,7.1-18.24,11l.94.61c.31,5.25-3.9-1.44-7.09-2.22,4.87,6.48,5.56,11.61,5.18,12.62l-1-1.47c-.33,1.9,1.17,9.43,0,11.6l-2.47-3.69c1.19,5-2.82,5.37-3.66,6.52-3.57.25-11.87-3.37-11.89,3.79l-9.41-8.85.4,1.25s54,82.24,87.22,126.88V1606.36a24.26,24.26,0,0,0-2.77,5.4C1993.23,1608.58,1992.23,1610.68,1990.2,1610.42Z"/>
  <path class="cls-7" d="M250.52,156c0-.28-.07-.59-.11-.91C250.2,155.34,250.12,155.63,250.52,156Z"/>
  <path class="cls-7" d="M67.94,53.18a.17.17,0,0,0,0-.07C67.77,53.09,67.78,53.12,67.94,53.18Z"/>
  <path class="cls-8" d="M45.54.46,51.47,2.1l-3.81-.21c5.12,6.59,2.79,1.86.37,6.19.34,2.82,8.06,5.84,5.19,6.73.79-.09,3.89.18,5.11,1.09-5.3-1,3.38,2.67-2,1.85.52.82-.64,2.88,6.73,3.7-3.68-.41-5.58,1.24-8.45-.61-.35.62-1.55,1-.07,1.85l2.2-.41c.56,2.47-5.29,2.48.92,5.35l3-.2c.17,1.44.46,2.67-6.78,1.65L52,27.23c-.3,2.26-.13,3.7,3.27,6.38l.33-.62c6.61,3.91,9.81,17.53,18.26,21.64l5.76.2,4.19,2.84c-.94-.43-14.44-3.93-15.88-4.49-.35,4.27-.6,25.83-5.11,28.71-3.4.83-8.85-1.64-9.72-1.85,1.67,2.27,5.7,2.06,4.89,3.5-1.09.21-4.32-1-5.06-1.44.51.82-1.55,1,1,1.65,2.19-.41,9,1.44,13.51,2l-1,1.85-4.31-1c-.23.42,11.61,3.7,8.85,5.15-2.59,2.88-1.85,6.79-3.57,9.88A13,13,0,0,1,62.07,99c-.23.41.29,1.23-1.66,1.24,4.76.2,2.75,2,4.82,1.85,10.07,4.72-.29,5.76,6.44,9.46,9.49,2.26,162.69,40.16,174,42.62-.35.62-.7,1.24-1.68,1.24,2.71.4,4.26-.63,2.89-1.65l-6.05-1.44c-1.78-2.06,3.69.41,3.62-1.24,5,1,5.73,2.66,5.94,4,.82-1,4.69-1.36-.65-3,2.3-.62,6.05,1.43,8.45.61-1.26-1.24-5.86-3.5-2.69-3.91l.87.2c5.68-1.44-6.68-5.55-1.1-6.79l1.6.61c3.06-.2-.45-2.67,2.94-3.5-1.1.21-4.77-.2-5.17-1.23,3.51-1,.63-2.88,4.77-3.3l-4.6-2.26c2.25-5.77.46-30.87,1-37.05l.72.41c-.44-9.68,4-28.37-.63-39.28,5.1-.42,4.41-2.68,6.09-3.91-2.18.41-5.52-.62-5.18-1.24,1.56-4.53-3.24-1-4.27-6.18-3.28-6.38,6.29-26,11.42-29.9-6.5-4.12-.46-6.18-4.37-9.68l1.61.62c-.71-1.13,0-3.52,1.13-6.31H52.63C51.83.56,51,1.17,45.54.46Z"/>
  <path class="cls-7" d="M53.22,14.81c-.11,0-.17,0-.19.06Z"/>
  <path class="cls-7" d="M631.55,232.54c-.08-.25-.15-.53-.25-.82C631.14,232,631.1,232.24,631.55,232.54Z"/>
  <path class="cls-7" d="M431.6,269.35a.13.13,0,0,1,0-.06C431.41,269.29,431.43,269.32,431.6,269.35Z"/>
  <path class="cls-7" d="M411.4,236.14c-.11,0-.17.05-.18.07Z"/>
  <path class="cls-8" d="M403.89,221c4.57-.23,1.61-1.74,8.88-1.71,4,1.41-1.55,1.54,2.7,2.34-1.59-.05-2.77,0-3.67,0-5.2.35-.71,2.26-10.11,2.31l6.1.76L404,225c6,5.37,3,1.35,1.28,5.6.74,2.54,8.82,4.33,6.12,5.51.77-.19,3.87-.33,5.2.35-5.38-.28,3.74,2-1.72,1.94.64.69-.21,2.72,7.2,2.54-3.69.09-5.33,1.83-8.44.5-.26.61-1.39,1.14.2,1.7l2.11-.65c.92,2.19-4.86,2.92,1.7,4.78l3-.57c.37,1.29.85,2.39-6.47,2.36L412,247.63c0,2.11.42,3.4,4.17,5.42l.25-.61c7.1,2.75,12.27,14.79,21.23,17.49l5.72-.53,4.57,2.07c-1-.27-14.86-1.78-16.36-2.12.15,2.24,1.16,9.56,1.27,16.07v.52c0,4.74-.43,8.95-2.11,10.28-3.24,1.18-9-.39-9.88-.47,2,1.86,5.93,1.17,5.34,2.59-1,.32-4.42-.41-5.21-.69.62.69-1.38,1.14,1.26,1.38,2.1-.65,9.09.19,13.66.18l-.74,1.83-4.42-.41c-.16.41,12,1.93,9.51,3.6-2.14,3-.83,6.43-2.08,9.48a13.82,13.82,0,0,1-5.67-1.78c-.17.41.46,1.09-1.47,1.34,4.74-.41,3,1.53,5,1.09,10.65,3.06.56,5.3,7.76,7.84,9.71.88,166.76,16.36,178.32,17.19-.25.61-.5,1.22-1.47,1.34,2.73,0,4.12-1.1,2.61-1.86l-6.19-.56c-2.07-1.66,3.7-.09,3.39-1.59,5.08.29,6.07,1.72,6.47,2.94.66-1,4.44-1.83-1.08-2.66,2.18-.86,6.19.56,8.44-.5-1.43-1-6.31-2.46-3.24-3.24l.89.09c5.41-2-7.42-4.25-2.08-6.08l1.67.36c3-.56-.84-2.38,2.39-3.56-1.05.33-4.74.41-5.29-.48,3.32-1.38.2-2.71,4.23-3.61L628,318.49c.78-3.15-.64-11.8-2.08-19.75-1.1-6.08-2.22-11.75-2.39-14.22l.78.28c-1.86-8.79-.2-26.42-6.41-35.81,5-1,4-3,5.45-4.34-2.1.65-5.54.13-5.3-.48.88-4.33-3.36-.54-5.13-5.11l-.09-.15c-4-5.59,2.53-24.42,7-28.61-7-2.94-1.36-5.58-5.74-8.29l1.68.36c-2.53-2.75,5.19-16.73,2.83-19.88l-1.06.32c-4.29-2.91,3.57-2,6.17-3.85-8.1-.31-12.53-2.86-13.08-3.75l1.77.16c-1.27-1.38-8.09-4.77-9-7l4.42.4c-4.63-2.1-2.41-5.26-2.79-6.56,2-2.75,10.06-6.65,4.5-10.94l12.78-1.58-1.22-.46s-152-15-184.75-12.23l-4.4-.4.49,1.05c-2.26,1.06,2.82,2-1.58,1.58l.66-1.61c-1.37,1.12-3.65.1-6.11-.54a4.31,4.31,0,0,1-2.42,1.24c1.68.36,1.85-.05,2.82-.17,1.51.77,5.59,2,3.5,2.63-.5,1.21-7.15-.44-7.74,1-4,7.41-9.62,14.47-9.18,22.28a4.3,4.3,0,0,1-2.57-.44c1.74,2.47.9,4.49,2.72,6.76a37.73,37.73,0,0,1-6.6.46c3.69-.09,3.16,12,2.19,12.14l8,.72c-.05,2.3-9.17,0-7.36,2.28,11.22,1.64-1.42,3.44,4.52,4.61-.89-.09-1.31.93-4.83.61,6.09.76,1.34,1.17,2.86,1.94,1.68.36,1.84,0,3.7-.09l2,1.66c-2,.45-5.62.33-6.24-.35-2.48,3.76-9.69,22.16-7,26.63h.07Z"/>
  <path class="cls-7" d="M860.32,163.84c4.4,2.08,5.41,1.38,6.68.91C862.67,162.92,860.5,162.56,860.32,163.84Z"/>
  <path class="cls-7" d="M867.09,164.79l0,0h0Z"/>
  <path class="cls-7" d="M933.88,33.63l0,.06C934,33.78,934,33.75,933.88,33.63Z"/>
  <path class="cls-8" d="M736.64,11.63l-1.28-1.15c.72,3.87-13.71,13.73-13.36,17.91l1.11.2c2.18,4.87-4.22.22-7.53.78,6.95,4.18,9.45,8.77,9.45,9.89l-1.47-1c.37,1.94,4.5,8.49,4.13,11.05L724,46.81c2.92,4.25-.75,6.26-1.13,7.69-3.3,1.7-12.48,1.64-9.93,8.45l-12.11-4.57.83,1s125.37,87.18,155.71,100.18l3.65,2.49.14-1.25c2.56.06-1.39-3.27,2.26-.77L862,161.3c1.82-.44,3.26,1.64,5.08,3.44a4.19,4.19,0,0,1,2.8,0c-1.28-1.16-1.65-.84-2.57-1.19-.91-1.47-3.84-4.59-1.64-4.22,1.11-.94,6.05,3.84,7.34,2.75,7.54-5.29,16.36-9.42,20.25-17.21a3.93,3.93,0,0,1,2,1.66c-.18-3.22,1.66-4.78,1.3-7.85a33.8,33.8,0,0,1,6.05,2.71c-3.29-1.68,3.8-13.15,4.72-12.81l-6.61-4.5c1.31-2.21,8.07,4.37,7.71,1.31-9-7,3.14-2.66-1.45-6.63.74.51,1.66-.28,4.59,1.72-4.95-3.66-.55-1.78-1.46-3.25-1.28-1.16-1.64-.84-3.3-1.69l-.9-2.59c2,.53,5.13,2.37,5.3,3.33,4.23-2.46,20.66-16.87,20.67-22.49-4.21-2-2.39.9-8.79-2.62-2.75-3.28,2.2-.76-1.1-3.56,9.34,5.52,3.67-.88,13.39,4.33l-5-3.66,3.49,1.54c-2.36-8.09-1.93-2.76,1.94-6,.73-2.82-5.39-8.41-2.37-8.26-.78-.19-3.58-1.54-4.39-2.83,4.59,2.84-2.18-3.75,2.58-1.07-.18-1,1.67-2.52-4.94-5.9,3.3,1.68,5.69.78,7.7,3.55.56-.46,1.84-.43.74-1.74L933,67.11c.39-2.55,5.88-.51,1.13-5.44l-2.94-.87c.38-1.43.56-2.72,7,.8L939.21,64c1.12-2.06,1.49-3.5-.7-7.25l-.55.47c-4.75-6-2.7-20.2-9.1-27.1L923.54,28l-2.88-4.2c.72.75,12.08,8.84,13.22,9.88C935.79,29.67,944,9.15,949.31,8c3.48.4,7.68,4.68,8.42,5.19-.73-2.76-4.58-4-3.29-5.07,1.1.19,3.67,2.5,4.21,3.16-.17-1,1.83-.45-.35-1.94-2.21-.38-7.88-4.53-11.91-6.71L948,1.21l3.66,2.5c.18-.15-2-1.89-3.94-3.71H738.06a12.11,12.11,0,0,1-1.94.85C740.69,7.07,734.27,6.91,736.64,11.63Z"/>
  <path class="cls-7" d="M933.68,75.49h-.2C933.59,75.5,933.66,75.51,933.68,75.49Z"/>
</svg>
