<svg xmlns="http://www.w3.org/2000/svg" viewBox="0 0 45.07 82.08">
  <title>arrow</title>
  <g id="Layer_2" data-name="Layer 2">
    <g id="Layer_1-2" data-name="Layer 1">
      <g>
        <path d="M45.12,2.39A78.8,78.8,0,0,0,10.48,34.84a70.35,70.35,0,0,0-7.37,22.5c-1.34,8-3,17.3-2.24,25.41.11,1.19,1.89,1.62,2.21.3C4.76,76,4.11,68.17,5,61c1-8.42,2.87-16.79,6.71-24.41A77.3,77.3,0,0,1,45.54,3.12c.49-.25.06-1-.42-.73Z" transform="translate(-0.69 -1.78)"/>
        <path d="M44,1.81C41.41,1.58,39.54,3,37.51,4.46a44.17,44.17,0,0,1-11,5.31c-6.33,2.26-13,4.08-17.85,9a1,1,0,0,0,.92,1.58c5.5-1.36,10-4.54,14.91-7.17,5.41-2.88,11.78-4.9,17.45-7.36L40.16,4.43c-.85,4.24-6.28,8.06-8.67,11.61-2.71,4-5.12,8.23-6.18,13-.4,1.76,2.34,2.51,2.71.74,1.17-5.6,4.37-10.95,7.89-15.43,2.26-2.86,5.89-5.55,6.58-9.28a1.22,1.22,0,0,0-1.77-1.37c-5.24,2.36-10.89,4.22-16,6.81-5.31,2.72-9.85,6.32-15.68,8L10,20.09c4.7-5.07,11.38-6.87,17.6-9.4a52.31,52.31,0,0,0,7.93-3.86c2.68-1.64,5-4.65,8.46-4.46.37,0,.36-.53,0-.56Z" transform="translate(-0.69 -1.78)"/>
      </g>
    </g>
  </g>
</svg>
