<svg id="Ñëîé_1" data-name="Ñëîé 1" xmlns="http://www.w3.org/2000/svg" viewBox="0 0 2600 2000">
  <defs>
    <style>
      .cls-1 {
        fill: #fff;
      }

      .cls-2 {
        fill: #ea6555;
        opacity: 0.5;
      }
    </style>
  </defs>
  <title>geometric_bg_5</title>
  <rect class="cls-1" width="2600" height="2000"/>
  <rect class="cls-2" x="-54.07" y="-72.92" width="2733.83" height="2145.83"/>
  <path class="cls-1" d="M1668.86,388.21,1821,236.13q-1.44-2.82-3-5.53l-154.6,154.6C1665.14,386.25,1667,387.26,1668.86,388.21Z"/>
  <path class="cls-1" d="M1684.91,394.86,1827.6,252.17q-1-3.18-2.26-6.29L1678.61,392.6Q1681.72,393.83,1684.91,394.86Z"/>
  <path class="cls-1" d="M1654.72,379.66,1812.4,222c-1.18-1.66-2.41-3.29-3.67-4.88L1649.84,376Q1652.23,377.9,1654.72,379.66Z"/>
  <path class="cls-1" d="M1818,344l-41.21,41.21A113.71,113.71,0,0,0,1818,344Z"/>
  <path class="cls-1" d="M1752,395.88l76.64-76.64a113.31,113.31,0,0,0,2.68-11.23l-90.55,90.55Q1746.47,397.5,1752,395.88Z"/>
  <path class="cls-1" d="M1703.26,399.2l128.67-128.67q-.54-3.66-1.32-7.23L1696,397.88C1698.42,398.39,1700.83,398.84,1703.26,399.2Z"/>
  <path class="cls-1" d="M1720.07,400.45c1.59,0,3.17-.05,4.75-.11l108.25-108.26c.07-1.57.11-3.15.11-4.74,0-1.29,0-2.57-.07-3.84L1716.23,400.37C1717.51,400.42,1718.79,400.45,1720.07,400.45Z"/>
  <path class="cls-1" d="M1642.27,369.42l159.89-159.89c-1.39-1.46-2.81-2.89-4.28-4.27L1638,365.15C1639.38,366.61,1640.8,368,1642.27,369.42Z"/>
  <path class="cls-1" d="M1631.42,357.58l158.89-158.89q-2.38-1.91-4.88-3.67L1627.75,352.69C1628.93,354.36,1630.16,356,1631.42,357.58Z"/>
  <path class="cls-1" d="M1607,287.34c0,1.29,0,2.57.07,3.84l116.88-116.87c-1.28,0-2.56-.07-3.85-.07-1.58,0-3.16,0-4.74.1L1607.08,282.6C1607,284.17,1607,285.75,1607,287.34Z"/>
  <path class="cls-1" d="M1622.18,230.66l41.21-41.21A113.63,113.63,0,0,0,1622.18,230.66Z"/>
  <path class="cls-1" d="M1608.86,266.67l90.55-90.54a112.61,112.61,0,0,0-11.23,2.67l-76.64,76.65A109.75,109.75,0,0,0,1608.86,266.67Z"/>
  <path class="cls-1" d="M1609.54,311.38l134.57-134.57q-3.57-.78-7.22-1.33L1608.22,304.15Q1608.76,307.81,1609.54,311.38Z"/>
  <path class="cls-1" d="M1622.22,344.09l154.6-154.6q-2.71-1.59-5.54-3L1619.2,338.55C1620.16,340.43,1621.16,342.27,1622.22,344.09Z"/>
  <path class="cls-1" d="M1614.81,328.8l146.73-146.72q-3.11-1.23-6.3-2.26L1612.55,322.51Q1613.6,325.69,1614.81,328.8Z"/>
  <polygon points="1738.47 1259.63 1665.39 1186.55 1592.31 1259.63 1519.23 1186.55 1446.16 1259.63 1373.08 1186.55 1307.07 1252.56 1292.93 1238.41 1373.08 1158.26 1446.16 1231.34 1519.23 1158.26 1592.31 1231.34 1665.39 1158.26 1738.47 1231.34 1811.55 1158.26 1891.69 1238.41 1877.55 1252.56 1811.55 1186.55 1738.47 1259.63"/>
  <polygon points="1446.16 1174.53 1373.08 1101.45 1307.07 1167.46 1292.93 1153.31 1373.08 1073.17 1446.16 1146.24 1519.23 1073.16 1599.38 1153.31 1585.24 1167.46 1519.23 1101.45 1446.16 1174.53"/>
  <path d="M2405.61,649.72,2350.85,595l54.76-54.76L2460.37,595ZM2365,595l40.62,40.62L2446.23,595l-40.62-40.62Z"/>
  <rect class="cls-1" x="2371.89" y="722.22" width="67.45" height="67.45" transform="translate(170.06 1922.43) rotate(-45)"/>
  <path d="M1617.24,1823.89a38,38,0,1,1,38-38A38,38,0,0,1,1617.24,1823.89Zm0-66a28,28,0,1,0,28,28A28,28,0,0,0,1617.24,1757.89Z"/>
  <circle cx="1952.75" cy="1785.89" r="33" transform="translate(-234.02 3276.09) rotate(-76.72)"/>
  <path class="cls-1" d="M2112.37,1823.89a38,38,0,1,1,38-38A38,38,0,0,1,2112.37,1823.89Zm0-66a28,28,0,1,0,28,28A28,28,0,0,0,2112.37,1757.89Z"/>
  <rect x="91.91" y="176.47" width="89.1" height="20" transform="translate(-91.89 151.1) rotate(-45)"/>
  <rect x="126.45" y="141.92" width="20" height="89.1" transform="translate(-91.89 151.1) rotate(-45)"/>
  <circle class="cls-1" cx="279.36" cy="623.89" r="33" transform="translate(-329.26 312.66) rotate(-38.79)"/>
  <circle cx="279.36" cy="762.38" r="33" transform="translate(-524.69 875.38) rotate(-77.88)"/>
  <circle cx="279.36" cy="900.87" r="33" transform="translate(-502.79 373.76) rotate(-38.79)"/>
  <path d="M1266.27,612.67a229,229,0,1,1,0-458v10c-120.76,0-219,98.24-219,219s98.24,219,219,219,219-98.25,219-219h10a229,229,0,0,1-229,229Z"/>
  <path d="M918.91,803a6.47,6.47,0,1,1-6.47-6.46A6.47,6.47,0,0,1,918.91,803Z"/>
  <path d="M964.33,803a6.46,6.46,0,1,1-6.46-6.46A6.47,6.47,0,0,1,964.33,803Z"/>
  <path d="M1009.76,803a6.46,6.46,0,1,1-6.46-6.46A6.47,6.47,0,0,1,1009.76,803Z"/>
  <path d="M1055.19,803a6.46,6.46,0,1,1-6.46-6.46A6.47,6.47,0,0,1,1055.19,803Z"/>
  <path d="M1100.62,803a6.47,6.47,0,1,1-6.46-6.46A6.47,6.47,0,0,1,1100.62,803Z"/>
  <path d="M873.48,803a6.47,6.47,0,1,1-6.47-6.46A6.47,6.47,0,0,1,873.48,803Z"/>
  <path d="M828.05,803a6.47,6.47,0,1,1-6.47-6.46A6.47,6.47,0,0,1,828.05,803Z"/>
  <circle cx="912.44" cy="855.34" r="6.46"/>
  <circle cx="957.87" cy="855.34" r="6.46"/>
  <circle cx="1003.3" cy="855.34" r="6.46"/>
  <circle cx="1048.73" cy="855.34" r="6.46"/>
  <circle cx="1094.16" cy="855.34" r="6.46"/>
  <circle cx="867.01" cy="855.34" r="6.46"/>
  <circle cx="821.58" cy="855.34" r="6.46"/>
  <circle cx="912.44" cy="907.69" r="6.46"/>
  <circle cx="957.87" cy="907.69" r="6.46"/>
  <circle cx="1003.3" cy="907.69" r="6.46"/>
  <circle cx="1048.73" cy="907.69" r="6.46"/>
  <circle cx="1094.16" cy="907.69" r="6.46"/>
  <circle cx="867.01" cy="907.69" r="6.46"/>
  <circle cx="821.58" cy="907.69" r="6.46"/>
  <path d="M918.91,960a6.47,6.47,0,1,1-6.47-6.47A6.47,6.47,0,0,1,918.91,960Z"/>
  <path d="M964.33,960a6.46,6.46,0,1,1-6.46-6.47A6.46,6.46,0,0,1,964.33,960Z"/>
  <path d="M1009.76,960a6.46,6.46,0,1,1-6.46-6.47A6.46,6.46,0,0,1,1009.76,960Z"/>
  <path d="M1055.19,960a6.46,6.46,0,1,1-6.46-6.47A6.46,6.46,0,0,1,1055.19,960Z"/>
  <path d="M1100.62,960a6.47,6.47,0,1,1-6.46-6.47A6.46,6.46,0,0,1,1100.62,960Z"/>
  <path d="M873.48,960a6.47,6.47,0,1,1-6.47-6.47A6.47,6.47,0,0,1,873.48,960Z"/>
  <path d="M828.05,960a6.47,6.47,0,1,1-6.47-6.47A6.47,6.47,0,0,1,828.05,960Z"/>
  <circle cx="912.44" cy="1012.39" r="6.46"/>
  <circle cx="957.87" cy="1012.39" r="6.46"/>
  <circle cx="1003.3" cy="1012.39" r="6.46"/>
  <circle cx="1048.73" cy="1012.39" r="6.46"/>
  <circle cx="1094.16" cy="1012.39" r="6.46"/>
  <circle cx="867.01" cy="1012.39" r="6.46"/>
  <circle cx="821.58" cy="1012.39" r="6.46"/>
  <circle cx="912.44" cy="1064.73" r="6.46"/>
  <circle cx="957.87" cy="1064.73" r="6.46"/>
  <circle cx="1003.3" cy="1064.73" r="6.46"/>
  <circle cx="1048.73" cy="1064.73" r="6.46"/>
  <circle cx="1094.16" cy="1064.73" r="6.46"/>
  <circle cx="867.01" cy="1064.73" r="6.46"/>
  <circle cx="821.58" cy="1064.73" r="6.46"/>
  <circle cx="1884.62" cy="864.44" r="6.46"/>
  <circle cx="1884.62" cy="915" r="6.46"/>
  <circle cx="1884.62" cy="965.56" r="6.46"/>
  <rect x="1516.26" y="761.46" width="89.1" height="20" transform="translate(-88.35 1329.61) rotate(-45)"/>
  <rect x="1550.81" y="726.91" width="20" height="89.1" transform="translate(-88.35 1329.61) rotate(-45)"/>
  <path d="M2135,1045v-20a50,50,0,0,0,0-100V905a70,70,0,0,1,0,140Z"/>
  <polygon class="cls-1" points="538.38 1213.88 473.14 1148.63 473.14 1140.08 546.93 1213.88 538.38 1213.88"/>
  <polygon class="cls-1" points="561.08 1213.88 473.14 1125.94 473.14 1117.39 569.63 1213.88 561.08 1213.88"/>
  <polygon class="cls-1" points="583.77 1213.88 473.14 1103.25 473.14 1094.7 592.32 1213.88 583.77 1213.88"/>
  <polygon class="cls-1" points="515.69 1213.88 473.14 1171.33 473.14 1162.78 524.24 1213.88 515.69 1213.88"/>
  <polygon class="cls-1" points="493 1213.88 473.14 1194.02 473.14 1185.47 501.55 1213.88 493 1213.88"/>
  <polygon class="cls-1" points="473.14 1213.88 473.14 1208.16 478.86 1213.88 473.14 1213.88"/>
  <polygon class="cls-1" points="610.74 1213.88 606.46 1213.88 473.14 1080.56 473.14 1076.28 477.42 1076.28 610.74 1209.6 610.74 1213.88"/>
  <polygon class="cls-1" points="610.74 1104.69 582.33 1076.28 590.88 1076.28 610.74 1096.14 610.74 1104.69"/>
  <polygon class="cls-1" points="610.74 1195.46 491.56 1076.28 500.11 1076.28 610.74 1186.91 610.74 1195.46"/>
  <polygon class="cls-1" points="610.74 1127.38 559.64 1076.28 568.19 1076.28 610.74 1118.83 610.74 1127.38"/>
  <polygon class="cls-1" points="610.74 1081.99 605.02 1076.28 610.74 1076.28 610.74 1081.99"/>
  <polygon class="cls-1" points="610.74 1172.77 514.25 1076.28 522.8 1076.28 610.74 1164.21 610.74 1172.77"/>
  <polygon class="cls-1" points="610.74 1150.07 536.94 1076.28 545.5 1076.28 610.74 1141.52 610.74 1150.07"/>
  <rect class="cls-1" x="1122.75" y="1408.2" width="89.1" height="20" transform="translate(-660.93 1240.78) rotate(-45)"/>
  <rect class="cls-1" x="1157.29" y="1373.65" width="20" height="89.1" transform="translate(-660.93 1240.78) rotate(-45)"/>
  <circle class="cls-1" cx="571.77" cy="394.68" r="6.46"/>
  <circle class="cls-1" cx="571.77" cy="445.24" r="6.46"/>
  <circle class="cls-1" cx="571.77" cy="495.8" r="6.46"/>
  <polygon points="1592.31 1174.53 1519.23 1101.45 1446.16 1174.53 1373.08 1101.45 1307.07 1167.46 1292.93 1153.31 1373.08 1073.17 1446.16 1146.24 1519.23 1073.16 1592.31 1146.24 1665.39 1073.17 1738.47 1146.24 1811.55 1073.17 1891.69 1153.31 1877.55 1167.46 1811.55 1101.45 1738.47 1174.53 1665.39 1101.45 1592.31 1174.53"/>
  <polygon points="762.9 1835.27 725.76 1798.13 759.36 1764.53 725.76 1730.93 759.36 1697.33 725.76 1663.73 759.36 1630.13 725.76 1596.54 762.9 1559.4 769.97 1566.47 739.91 1596.54 773.5 1630.13 739.91 1663.73 773.5 1697.33 739.91 1730.93 773.5 1764.53 739.91 1798.13 769.97 1828.19 762.9 1835.27"/>
  <polygon points="723.77 1835.27 686.64 1798.13 720.24 1764.53 686.64 1730.93 720.24 1697.33 686.64 1663.73 720.24 1630.13 686.64 1596.54 723.77 1559.4 730.84 1566.47 700.78 1596.54 734.38 1630.13 700.78 1663.73 734.38 1697.33 700.78 1730.93 734.38 1764.53 700.78 1798.13 730.84 1828.19 723.77 1835.27"/>
  <path class="cls-1" d="M168,1923.86a92.13,92.13,0,1,1,92.13-92.13A92.24,92.24,0,0,1,168,1923.86Zm0-164.26a72.13,72.13,0,1,0,72.13,72.13A72.22,72.22,0,0,0,168,1759.6Z"/>
  <circle cx="2044.53" cy="1334.57" r="6.46"/>
  <path d="M2095.93,1334.57a6.47,6.47,0,1,1-6.47-6.46A6.47,6.47,0,0,1,2095.93,1334.57Z"/>
  <circle cx="2134.39" cy="1334.57" r="6.46"/>
  <circle cx="2179.33" cy="1334.57" r="6.46"/>
  <circle cx="2224.26" cy="1334.57" r="6.46"/>
  <circle cx="1999.6" cy="1334.57" r="6.46"/>
  <circle cx="1954.67" cy="1334.57" r="6.46"/>
  <circle cx="1730.01" cy="1334.57" r="6.46"/>
  <path d="M1781.41,1334.57a6.47,6.47,0,1,1-6.47-6.46A6.47,6.47,0,0,1,1781.41,1334.57Z"/>
  <circle cx="1819.87" cy="1334.57" r="6.46"/>
  <circle cx="1864.8" cy="1334.57" r="6.46"/>
  <circle cx="1909.74" cy="1334.57" r="6.46"/>
  <circle cx="1685.08" cy="1334.57" r="6.46"/>
  <circle cx="1640.15" cy="1334.57" r="6.46"/>
  <circle cx="2044.53" cy="1394.49" r="6.46"/>
  <path d="M2095.93,1394.49a6.47,6.47,0,1,1-6.47-6.46A6.47,6.47,0,0,1,2095.93,1394.49Z"/>
  <circle cx="2134.39" cy="1394.49" r="6.46"/>
  <circle cx="2179.33" cy="1394.49" r="6.46"/>
  <circle cx="2224.26" cy="1394.49" r="6.46"/>
  <circle cx="1999.6" cy="1394.49" r="6.46"/>
  <circle cx="1954.67" cy="1394.49" r="6.46"/>
  <circle cx="1730.01" cy="1394.49" r="6.46"/>
  <path d="M1781.41,1394.49a6.47,6.47,0,1,1-6.47-6.46A6.47,6.47,0,0,1,1781.41,1394.49Z"/>
  <circle cx="1819.87" cy="1394.49" r="6.46"/>
  <circle cx="1864.8" cy="1394.49" r="6.46"/>
  <circle cx="1909.74" cy="1394.49" r="6.46"/>
  <circle cx="1685.08" cy="1394.49" r="6.46"/>
  <circle cx="1640.15" cy="1394.49" r="6.46"/>
  <circle cx="2044.53" cy="1454.41" r="6.46"/>
  <path d="M2095.93,1454.41a6.47,6.47,0,1,1-6.47-6.47A6.47,6.47,0,0,1,2095.93,1454.41Z"/>
  <circle cx="2134.39" cy="1454.41" r="6.46"/>
  <circle cx="2179.33" cy="1454.41" r="6.46"/>
  <circle cx="2224.26" cy="1454.41" r="6.46"/>
  <circle cx="1999.6" cy="1454.41" r="6.46"/>
  <circle cx="1954.67" cy="1454.41" r="6.46"/>
  <circle cx="1730.01" cy="1454.41" r="6.46"/>
  <path d="M1781.41,1454.41a6.47,6.47,0,1,1-6.47-6.47A6.47,6.47,0,0,1,1781.41,1454.41Z"/>
  <circle cx="1819.87" cy="1454.41" r="6.46"/>
  <circle cx="1864.8" cy="1454.41" r="6.46"/>
  <circle cx="1909.74" cy="1454.41" r="6.46"/>
  <circle cx="1685.08" cy="1454.41" r="6.46"/>
  <circle cx="1640.15" cy="1454.41" r="6.46"/>
  <circle cx="2044.53" cy="1514.33" r="6.46"/>
  <path d="M2095.93,1514.33a6.47,6.47,0,1,1-6.47-6.47A6.47,6.47,0,0,1,2095.93,1514.33Z"/>
  <circle cx="2134.39" cy="1514.33" r="6.46"/>
  <circle cx="2179.33" cy="1514.33" r="6.46"/>
  <circle cx="2224.26" cy="1514.33" r="6.46"/>
  <circle cx="1999.6" cy="1514.33" r="6.46"/>
  <circle cx="1954.67" cy="1514.33" r="6.46"/>
  <circle cx="1730.01" cy="1514.33" r="6.46"/>
  <path d="M1781.41,1514.33a6.47,6.47,0,1,1-6.47-6.47A6.47,6.47,0,0,1,1781.41,1514.33Z"/>
  <circle cx="1819.87" cy="1514.33" r="6.46"/>
  <circle cx="1864.8" cy="1514.33" r="6.46"/>
  <circle cx="1909.74" cy="1514.33" r="6.46"/>
  <circle cx="1685.08" cy="1514.33" r="6.46"/>
  <circle cx="1640.15" cy="1514.33" r="6.46"/>
  <circle cx="2044.53" cy="1574.24" r="6.46"/>
  <path d="M2095.93,1574.24a6.47,6.47,0,1,1-6.47-6.46A6.47,6.47,0,0,1,2095.93,1574.24Z"/>
  <circle cx="2134.39" cy="1574.24" r="6.46"/>
  <circle cx="2179.33" cy="1574.24" r="6.46"/>
  <circle cx="2224.26" cy="1574.24" r="6.46"/>
  <circle cx="1999.6" cy="1574.24" r="6.46"/>
  <circle cx="1954.67" cy="1574.24" r="6.46"/>
  <circle cx="1730.01" cy="1574.24" r="6.46"/>
  <path d="M1781.41,1574.24a6.47,6.47,0,1,1-6.47-6.46A6.47,6.47,0,0,1,1781.41,1574.24Z"/>
  <circle cx="1819.87" cy="1574.24" r="6.46"/>
  <circle cx="1864.8" cy="1574.24" r="6.46"/>
  <circle cx="1909.74" cy="1574.24" r="6.46"/>
  <circle cx="1685.08" cy="1574.24" r="6.46"/>
  <circle cx="1640.15" cy="1574.24" r="6.46"/>
  <circle cx="2044.53" cy="1634.16" r="6.46"/>
  <path d="M2095.93,1634.16a6.47,6.47,0,1,1-6.47-6.46A6.47,6.47,0,0,1,2095.93,1634.16Z"/>
  <circle cx="2134.39" cy="1634.16" r="6.46"/>
  <circle cx="2179.33" cy="1634.16" r="6.46"/>
  <circle cx="2224.26" cy="1634.16" r="6.46"/>
  <circle cx="1999.6" cy="1634.16" r="6.46"/>
  <circle cx="1954.67" cy="1634.16" r="6.46"/>
  <circle cx="1730.01" cy="1634.16" r="6.46"/>
  <path d="M1781.41,1634.16a6.47,6.47,0,1,1-6.47-6.46A6.47,6.47,0,0,1,1781.41,1634.16Z"/>
  <circle cx="1819.87" cy="1634.16" r="6.46"/>
  <circle cx="1864.8" cy="1634.16" r="6.46"/>
  <circle cx="1909.74" cy="1634.16" r="6.46"/>
  <circle cx="1685.08" cy="1634.16" r="6.46"/>
  <circle cx="1640.15" cy="1634.16" r="6.46"/>
  <polygon points="2551.77 434.35 2478.69 361.27 2405.61 434.35 2332.53 361.27 2259.45 434.35 2186.38 361.27 2120.37 427.28 2106.23 413.13 2186.38 332.99 2259.45 406.06 2332.53 332.99 2405.61 406.06 2478.69 332.99 2551.77 406.06 2624.84 332.99 2704.99 413.13 2690.85 427.28 2624.84 361.27 2551.77 434.35"/>
  <path d="M-111,1553.3l329.76-329.77q-3.1-6.1-6.53-12L-123,1546.76Q-117.14,1550.2-111,1553.3Z"/>
  <path d="M-76.26,1567.72l309.41-309.4c-1.51-4.61-3.13-9.17-4.9-13.65L-89.9,1562.82C-85.42,1564.59-80.86,1566.21-76.26,1567.72Z"/>
  <path d="M-141.71,1534.76l341.9-341.9q-3.84-5.4-8-10.58L-152.3,1526.81Q-147.11,1530.92-141.71,1534.76Z"/>
  <path d="M212.27,1457.48l-89.36,89.36A246.43,246.43,0,0,0,212.27,1457.48Z"/>
  <path d="M69.16,1569.92l166.19-166.19a242.23,242.23,0,0,0,5.8-24.34L44.81,1575.73A243.11,243.11,0,0,0,69.16,1569.92Z"/>
  <path d="M-36.46,1577.12l279-279q-1.19-7.92-2.87-15.67L-52.13,1574.26C-47,1575.37-41.74,1576.34-36.46,1577.12Z"/>
  <path d="M0,1579.83c3.45,0,6.87-.09,10.28-.23L245,1344.85c.14-3.41.23-6.83.23-10.28,0-2.79-.06-5.56-.15-8.33L-8.33,1579.67C-5.57,1579.76-2.79,1579.83,0,1579.83Z"/>
  <path d="M-168.72,1512.56,178,1165.86q-4.52-4.77-9.27-9.27L-178,1503.29Q-173.47,1508-168.72,1512.56Z"/>
  <path d="M-192.23,1486.87,152.3,1142.34q-5.19-4.11-10.59-7.95l-341.9,341.89Q-196.35,1481.7-192.23,1486.87Z"/>
  <path d="M-245.25,1334.57c0,2.79.06,5.57.15,8.34L8.33,1089.48c-2.76-.09-5.54-.16-8.33-.16-3.45,0-6.87.09-10.28.23L-245,1324.29C-245.16,1327.7-245.25,1331.13-245.25,1334.57Z"/>
  <path d="M-239.68,1386.7,52.13,1094.89q-7.76-1.68-15.67-2.87l-279,279Q-241.36,1378.95-239.68,1386.7Z"/>
  <path d="M-212.19,1457.62,123,1122.39q-5.9-3.44-12-6.54l-329.76,329.77C-216.66,1449.68-214.47,1453.68-212.19,1457.62Z"/>
  <path d="M-228.25,1424.47,89.9,1106.32c-4.48-1.76-9-3.39-13.64-4.89l-309.41,309.4C-231.64,1415.44-230,1420-228.25,1424.47Z"/>
  <polygon points="2611.22 2217 2817 2011.22 2817 1984.24 2584.24 2217 2611.22 2217"/>
  <polygon points="2539.64 2217 2817 1939.64 2817 1912.67 2512.67 2217 2539.64 2217"/>
  <polygon points="2468.06 2217 2817 1868.06 2817 1841.09 2441.09 2217 2468.06 2217"/>
  <polygon points="2383 2217 2396.49 2217 2817 1796.49 2817 1783 2803.51 1783 2383 2203.51 2383 2217"/>
  <polygon points="2383 1872.6 2472.6 1783 2445.63 1783 2383 1845.63 2383 1872.6"/>
  <polygon points="2383 2158.91 2758.91 1783 2731.94 1783 2383 2131.94 2383 2158.91"/>
  <polygon points="2383 1944.18 2544.18 1783 2517.21 1783 2383 1917.21 2383 1944.18"/>
  <polygon points="2383 1801.03 2401.03 1783 2383 1783 2383 1801.03"/>
  <polygon points="2383 2087.33 2687.33 1783 2660.36 1783 2383 2060.36 2383 2087.33"/>
  <polygon points="2383 2015.76 2615.76 1783 2588.78 1783 2383 1988.79 2383 2015.76"/>
  <path class="cls-1" d="M2331.41,100.54a6.46,6.46,0,1,1-6.47,6.46A6.46,6.46,0,0,1,2331.41,100.54Z"/>
  <circle class="cls-1" cx="2381.97" cy="107" r="6.46"/>
  <circle class="cls-1" cx="2432.54" cy="107" r="6.46"/>
  <circle cx="1205.26" cy="1634.16" r="6.46"/>
  <path d="M1255.82,1627.7a6.46,6.46,0,1,1-6.46,6.46A6.47,6.47,0,0,1,1255.82,1627.7Z"/>
  <circle cx="1306.39" cy="1634.16" r="6.46"/>
  <polygon class="cls-1" points="429.46 137.93 392.33 100.8 425.93 67.2 392.33 33.6 425.93 0 392.33 -33.6 425.93 -67.2 392.33 -100.8 429.46 -137.93 436.54 -130.86 406.47 -100.8 440.07 -67.2 406.47 -33.6 440.07 0 406.47 33.6 440.07 67.2 406.47 100.8 436.54 130.86 429.46 137.93"/>
  <polygon points="390.34 137.93 353.2 100.8 386.8 67.2 353.2 33.6 386.8 0 353.2 -33.6 386.8 -67.2 353.2 -100.8 390.34 -137.93 397.41 -130.86 367.35 -100.8 400.94 -67.2 367.35 -33.6 400.94 0 367.35 33.6 400.94 67.2 367.35 100.8 397.41 130.86 390.34 137.93"/>
  <rect x="447.23" y="1408.2" width="89.1" height="20" transform="translate(-858.78 763.12) rotate(-45)"/>
  <rect x="481.78" y="1373.65" width="20" height="89.1" transform="translate(-858.78 763.12) rotate(-45)"/>
  <path d="M2456.82,1246l-152.08-152.08c1-1.88,2-3.72,3-5.54l154.6,154.6C2460.54,1244,2458.7,1245,2456.82,1246Z"/>
  <path d="M2440.78,1252.6l-142.69-142.69q1-3.2,2.26-6.29l146.72,146.72C2445,1251.16,2442.9,1251.9,2440.78,1252.6Z"/>
  <path d="M2471,1237.4l-157.67-157.68c1.18-1.66,2.4-3.28,3.67-4.88l158.89,158.89C2474.25,1235,2472.63,1236.22,2471,1237.4Z"/>
  <path d="M2307.72,1201.76l41.21,41.21A113.56,113.56,0,0,1,2307.72,1201.76Z"/>
  <path d="M2373.71,1253.61,2297.07,1177a113.08,113.08,0,0,1-2.67-11.22l90.54,90.54A110.57,110.57,0,0,1,2373.71,1253.61Z"/>
  <path d="M2422.42,1256.94l-128.67-128.68c.36-2.43.81-4.84,1.32-7.22l134.58,134.57Q2426.08,1256.39,2422.42,1256.94Z"/>
  <path d="M2405.61,1258.18c-1.59,0-3.17,0-4.74-.1l-108.26-108.26c-.06-1.57-.1-3.15-.1-4.74,0-1.29,0-2.57.07-3.85l116.87,116.88C2408.18,1258.15,2406.9,1258.18,2405.61,1258.18Z"/>
  <path d="M2483.42,1227.16l-159.89-159.89c1.38-1.46,2.81-2.89,4.27-4.28l159.89,159.9C2486.31,1224.35,2484.88,1225.77,2483.42,1227.16Z"/>
  <path d="M2494.26,1215.31l-158.89-158.89c1.6-1.26,3.22-2.49,4.89-3.66l157.67,157.67Q2496.16,1212.92,2494.26,1215.31Z"/>
  <path d="M2518.71,1145.08c0,1.28,0,2.56-.07,3.84l-116.87-116.87c1.27,0,2.55-.08,3.84-.08,1.59,0,3.17,0,4.74.11l108.26,108.26C2518.67,1141.91,2518.71,1143.49,2518.71,1145.08Z"/>
  <path d="M2503.5,1088.4l-41.21-41.22A113.66,113.66,0,0,1,2503.5,1088.4Z"/>
  <path d="M2516.82,1124.41l-90.54-90.55a112.45,112.45,0,0,1,11.22,2.68l76.65,76.64A113.27,113.27,0,0,1,2516.82,1124.41Z"/>
  <path d="M2516.15,1169.12l-134.58-134.58c2.38-.51,4.79-1,7.23-1.32l128.67,128.67C2517.11,1164.33,2516.66,1166.73,2516.15,1169.12Z"/>
  <path d="M2503.47,1201.82l-154.61-154.6c1.82-1,3.66-2.06,5.54-3l152.08,152.08C2505.53,1198.16,2504.52,1200,2503.47,1201.82Z"/>
  <path d="M2510.87,1186.54l-146.72-146.73q3.1-1.21,6.29-2.25l142.69,142.69Q2512.1,1183.43,2510.87,1186.54Z"/>
  <polygon points="909.53 208.23 974.78 142.99 974.78 134.43 900.98 208.23 909.53 208.23"/>
  <polygon points="886.84 208.23 974.78 120.29 974.78 111.74 878.29 208.23 886.84 208.23"/>
  <polygon points="864.15 208.23 974.78 97.6 974.78 89.05 855.6 208.23 864.15 208.23"/>
  <polygon points="932.23 208.23 974.78 165.68 974.78 157.13 923.68 208.23 932.23 208.23"/>
  <polygon points="954.92 208.23 974.78 188.37 974.78 179.82 946.37 208.23 954.92 208.23"/>
  <polygon points="974.78 208.23 974.78 202.51 969.06 208.23 974.78 208.23"/>
  <polygon points="837.18 208.23 841.46 208.23 974.78 74.91 974.78 70.63 970.5 70.63 837.18 203.95 837.18 208.23"/>
  <polygon points="837.18 99.04 865.59 70.63 857.04 70.63 837.18 90.49 837.18 99.04"/>
  <polygon points="837.18 189.81 956.36 70.63 947.81 70.63 837.18 181.26 837.18 189.81"/>
  <polygon points="837.18 121.73 888.28 70.63 879.73 70.63 837.18 113.18 837.18 121.73"/>
  <polygon points="837.18 76.35 842.9 70.63 837.18 70.63 837.18 76.35"/>
  <polygon points="837.18 167.12 933.67 70.63 925.12 70.63 837.18 158.57 837.18 167.12"/>
  <polygon points="837.18 144.43 910.97 70.63 902.42 70.63 837.18 135.87 837.18 144.43"/>
  <circle class="cls-1" cx="651.09" cy="394.68" r="6.46"/>
  <circle class="cls-1" cx="651.09" cy="445.24" r="6.46"/>
  <circle class="cls-1" cx="651.09" cy="495.8" r="6.46"/>
  <circle class="cls-1" cx="730.4" cy="394.68" r="6.46"/>
  <circle class="cls-1" cx="730.4" cy="445.24" r="6.46"/>
  <circle class="cls-1" cx="730.4" cy="495.8" r="6.46"/>
</svg>
