<svg id="Layer_1" data-name="Layer 1" xmlns="http://www.w3.org/2000/svg" viewBox="0 0 1600 900">
  <defs>
    <style>
      .cls-1 {
        fill: #eb6454;
      }
    </style>
  </defs>
  <title>geometric_bg_1</title>
  <g>
    <rect x="126.08" y="239.2" width="11.47" height="53.5"/>
    <rect x="105.06" y="260.22" width="53.5" height="11.47"/>
    <polygon points="206.13 7.4 206.13 38.69 237.42 38.69 237.42 69.98 268.71 69.98 268.71 101.28 294.27 101.28 294.27 112.74 257.25 112.74 257.25 81.45 225.96 81.45 225.96 50.16 194.66 50.16 194.66 18.86 163.37 18.86 163.37 -12.43 132.07 -12.43 132.07 -49.46 143.54 -49.46 143.54 -23.9 174.83 -23.9 174.83 7.4 206.13 7.4"/>
    <path d="M1203.55,50.73a32.1,32.1,0,1,1,32.1-32.1A32.14,32.14,0,0,1,1203.55,50.73Zm0-52.74a20.64,20.64,0,1,0,20.64,20.64A20.66,20.66,0,0,0,1203.55-2Z"/>
    <path class="cls-1" d="M222.77,558.36a32.1,32.1,0,1,1,32.1-32.1A32.14,32.14,0,0,1,222.77,558.36Zm0-52.74a20.64,20.64,0,1,0,20.64,20.64A20.66,20.66,0,0,0,222.77,505.62Z"/>
    <circle cx="409.62" cy="355.96" r="26.37"/>
    <rect class="cls-1" x="1380.59" y="157.27" width="11.47" height="53.5"/>
    <rect class="cls-1" x="1359.57" y="178.29" width="53.5" height="11.47"/>
    <path d="M1489.13,638.39V626.92a20.64,20.64,0,0,0,0-41.27V574.18a32.11,32.11,0,0,1,0,64.21Z"/>
    <path d="M1158.26,815a26.37,26.37,0,1,0,0-52.74Z"/>
    <path class="cls-1" d="M558.35,72.94a26.37,26.37,0,0,1-37.29,37.29Z"/>
    <path class="cls-1" d="M710.33,645.14a32,32,0,0,1-22.7-9.38l8.1-8.11a20.64,20.64,0,1,0,29.19-29.19l8.11-8.1a32.08,32.08,0,0,1-22.7,54.78Z"/>
    <polygon points="468.44 608.12 468.44 639.41 499.74 639.41 499.74 670.7 531.03 670.7 531.03 707.73 519.57 707.73 519.57 682.17 488.27 682.17 488.27 650.88 456.98 650.88 456.98 619.58 425.69 619.58 425.69 582.56 437.15 582.56 437.15 608.12 468.44 608.12"/>
    <polygon points="733.54 302.98 696.51 302.98 696.51 291.52 722.08 291.52 722.08 265.96 733.54 265.96 733.54 302.98"/>
    <polygon points="688.42 257.86 651.4 257.86 651.4 246.4 676.96 246.4 676.96 220.84 688.42 220.84 688.42 257.86"/>
    <polygon points="778.66 348.1 741.63 348.1 741.63 336.64 767.2 336.64 767.19 311.07 778.66 311.07 778.66 348.1"/>
    <path d="M709.7,932.38a26.37,26.37,0,0,1,0-52.74Z"/>
    <polygon points="974.88 922.49 937.86 922.49 937.86 911.03 963.42 911.03 963.42 885.47 974.88 885.47 974.88 922.49"/>
    <polygon points="929.76 877.38 892.74 877.38 892.74 865.91 918.3 865.91 918.3 840.35 929.76 840.35 929.76 877.38"/>
    <path class="cls-1" d="M969.94,427.71a26.37,26.37,0,0,0-37.3-37.29Z"/>
    <path d="M1033.59,649.85a32.1,32.1,0,1,1,32.1-32.1A32.14,32.14,0,0,1,1033.59,649.85Zm0-52.74a20.64,20.64,0,1,0,20.64,20.64A20.66,20.66,0,0,0,1033.59,597.11Z"/>
    <polygon class="cls-1" points="1049.98 105.43 1049.98 136.72 1081.27 136.72 1081.27 168.01 1112.57 168.01 1112.57 199.31 1138.13 199.31 1138.13 210.77 1101.1 210.77 1101.1 179.48 1069.81 179.48 1069.81 148.18 1038.52 148.18 1038.52 116.89 1012.96 116.89 1012.96 105.43 1049.98 105.43"/>
    <polygon points="367.87 912.97 330.84 912.97 330.84 901.51 356.4 901.51 356.4 875.95 367.87 875.95 367.87 912.97"/>
    <polygon points="322.75 867.86 285.73 867.86 285.73 856.39 311.29 856.39 311.29 830.83 322.75 830.83 322.75 867.86"/>
    <rect x="120.35" y="703.95" width="11.47" height="53.5" transform="translate(-479.76 303.17) rotate(-45)"/>
    <rect x="99.33" y="724.97" width="53.5" height="11.47" transform="translate(-479.76 303.17) rotate(-45)"/>
    <polygon points="1539.96 37.14 1502.93 37.14 1502.93 25.68 1528.49 25.68 1528.49 0.12 1539.96 0.12 1539.96 37.14"/>
    <polygon class="cls-1" points="1405.65 762.32 1405.65 793.61 1436.94 793.61 1436.94 824.91 1468.23 824.91 1468.23 856.2 1493.79 856.2 1493.79 867.66 1456.77 867.66 1456.77 836.37 1425.47 836.37 1425.47 805.08 1394.18 805.08 1394.18 773.78 1362.89 773.78 1362.89 742.49 1331.59 742.49 1331.59 705.46 1343.06 705.46 1343.06 731.02 1374.35 731.02 1374.35 762.32 1405.65 762.32"/>
    <circle cx="1476.33" cy="348.1" r="26.37"/>
    <rect x="1243.26" y="423.93" width="11.47" height="53.5" transform="translate(47.14 1015.17) rotate(-45)"/>
    <rect x="1222.24" y="444.95" width="53.5" height="11.47" transform="translate(47.14 1015.17) rotate(-45)"/>
  </g>
</svg>
