<svg xmlns="http://www.w3.org/2000/svg" viewBox="0 0 189.61 67.37">
  <title>tab_tag</title>
  <g id="Layer_2" data-name="Layer 2">
    <g id="Ñëîé_1" data-name="Ñëîé 1">
      <path d="M7.76,67c-1.2-.61-1.26-1.85-1.25-3.15,0-2.61,0-5.23,0-7.72-2.65-1-3-.95-4.22.86l-1.85-2c1-4.64.2-9.36.23-14.07,0-6,.1-11.92,0-17.89S.46,11.45.29,5.63C.25,4.05.1,2.48,0,.9,4.71.66,9.25.23,13.79.27c5.45,0,10.89.62,16.34.73,4.51.09,9-.18,13.53-.26C48.83.65,54,.63,59.16.51,64.62.37,70.07,0,75.53,0S86.29.27,91.67.27C99.31.27,107-.06,114.6.09c7,.13,14,.71,21,1.09a5.86,5.86,0,0,0,2.16.06c1.68-.6,2.79.18,3.87,1.22a5,5,0,0,0,.81.73c3,1.84,6.07,3.69,9.15,5.46,3.47,2,7,3.83,10.49,5.81,3.77,2.17,7.42,4.59,11.27,6.61,3.38,1.78,7,3.16,10.45,4.76a8.19,8.19,0,0,1,1.51,1.24c-2.72,1.63-5.75,2-8,4.22,2.66,1.69,5.14,3.3,7.65,4.85,1.34.84,2.72,1.64,4.12,2.38.8.43.7,1,.33,1.77-1.69-.64-2.92.47-4.19,1.26-2.4,1.5-4.67,3.19-7,4.73-4.38,2.84-8.81,5.61-13.21,8.44-5.57,3.59-11.14,7.18-16.68,10.82a13.21,13.21,0,0,0-1.89,1.83c-10.4,0-20.73-.07-31.07-.13-9.25-.06-18.51-.17-27.76-.23-8.67-.05-17.34,0-26-.09-8-.07-16-.28-24-.35-5.32,0-10.64.1-16,.1-3.78,0-7.56-.13-11.34-.14A12.19,12.19,0,0,0,7.76,67Zm142.09-7.89a14.44,14.44,0,0,0,1.69.9c.1,0,.41-.45,1-1.09l-2.63.22c-3.05-.08-6.09-.2-9.14-.22q-15.63-.07-31.27-.08L13.27,58.8c-1.68,0-3.36.13-5,.2l0,.46c.69.07,1.38.19,2.07.21,3,.07,6,.14,9,.16,5.82,0,11.64,0,17.46,0,8.73.06,17.45.18,26.18.24q12,.09,24,.11,25.91,0,51.81,0c3.13,0,6.27,0,9.4,0C148.91,60.2,149.86,60.39,149.85,59.13ZM2.46,54c.73,0,1.23.1,1.73.09,3.86,0,7.72-.12,11.57-.07,5.46.09,10.91.29,16.37.43,4.73.13,9.46.29,14.19.33,5.08,0,10.17,0,15.25,0,2.75,0,5.51.14,8.26.12,5,0,9.89-.25,14.84-.19,6.91.09,13.82.39,20.73.56,2,.05,4.07-.13,6.1,0s4.2.44,6.31.51c6.11.22,12.22.33,18.33.53a9.51,9.51,0,0,0,6.06-1.68c6.22-4.2,12.5-8.3,18.31-13.08,3.24-2.66,6.65-5.13,10.12-7.49,3.29-2.25,6.75-4.25,10.13-6.36a6.35,6.35,0,0,0,.67-.65c-1.11-.66-2-1.24-3-1.76-2.92-1.61-5.9-3.14-8.79-4.81C164.24,17.3,159,13.84,153.44,11c-3.85-2-7.45-4.27-11.1-6.51a16.1,16.1,0,0,0-7.49-2.43c-5.21-.37-10.44-.82-15.66-.9-8.21-.12-16.42.08-24.63.08-5.8,0-11.59.37-17.4,0-4-.24-8.14,0-12.21.08-4.42.12-8.85.4-13.27.49-2.59.06-5.18-.13-7.77-.17-.73,0-1.45.11-2.17.15-3,.16-5.94.51-8.91.43-6.31-.17-12.61-.58-18.92-.86a36,36,0,0,0-3.89,0c-2.3.17-4.6.42-6.9.64a1.34,1.34,0,0,0-1.26,1.3A13.8,13.8,0,0,0,1.8,5.93c.08.93.46,1.85.46,2.78,0,3.84-.08,7.69-.19,11.54-.12,4.07-.43,8.14-.42,12.2,0,5.61.26,11.22.44,16.82C2.14,50.85,2.33,52.42,2.46,54Zm148.74,7.7c-1.59-.19-3-.48-4.34-.5-8.51-.09-17-.13-25.55-.18-6.62-.05-13.25-.12-19.88-.13-6.47,0-13,.07-19.42,0-4.51,0-9-.2-13.52-.23-8.16-.05-16.32-.05-24.48-.07q-16.51,0-33-.06c-1,0-2,.14-2.89.2-.25,1.26.16,1.82,1.14,1.95a14.38,14.38,0,0,0,1.74.1c11,.11,22,.24,33,.31,16.69.09,33.37.11,50.06.2,12.45.06,24.9.22,37.35.25,5.67,0,11.33-.17,17-.25A3.81,3.81,0,0,0,151.2,61.74ZM131,58l.06-.6c-1.4-.07-2.8-.17-4.2-.21-2.76-.07-5.52,0-8.27-.19s-5.33-.61-8-.91a15.78,15.78,0,0,0-2.17-.11c-2.18.06-4.36.23-6.54.21-3,0-6.1-.21-9.15-.25-2,0-3.91.15-5.86.14-1.16,0-2.32-.33-3.48-.31-4.21.06-8.41.21-12.61.3-1.23,0-2.45-.09-3.68-.09s-2.32.07-3.48.08c-2.44,0-4.89,0-7.34,0-.29,0-.58.05-.86,0-2.15-.09-4.3-.22-6.45-.25-1.52,0-3,.21-4.56.15-2.82-.12-5.63-.44-8.45-.54-1.22,0-2.45.35-3.67.33-4.22-.08-8.44-.3-12.66-.37-3.77-.07-7.53,0-11.39,0V57.7C49.18,58.54,90.09,57.74,131,58ZM8.82,64.87A1.81,1.81,0,0,0,9.3,65c5.3.08,10.61.14,15.91.23,4.29.07,8.59.22,12.89.25,8.23,0,16.46,0,24.69,0,7.93.06,15.87.24,23.8.29,8.52.06,17,0,25.57,0q15.53,0,31,0a2.4,2.4,0,0,0,2.38-1.18c-.55,0-1.06-.12-1.56-.12q-16.05-.06-32.11-.12c-6,0-11.94-.11-17.92-.15l-29.52-.16q-10.61,0-21.2-.12L18.59,63.9c-3,0-6,0-8.95,0C9.05,63.88,8.59,63.94,8.82,64.87ZM140.34,58c3.93,0,7.38,0,10.83,0,.55,0,1.09-.51,1.64-.78,2.43,1.43,3.59,1.73,6.67-.74A6.77,6.77,0,0,0,158,56c-3.11-.08-6.22-.17-9.33-.15-1.57,0-3.27.7-4.67.29C142.11,55.55,141.69,56.86,140.34,58Zm44.31-18.06c-6-1-18.71-.2-20.8,1.34a14.89,14.89,0,0,0,1.57.15c5.15-.09,10.3-.25,15.46-.27A7.77,7.77,0,0,0,184.65,39.89Zm-17.49,11.2a45.82,45.82,0,0,0-17.46.5,10.18,10.18,0,0,0,3.07.59c3.71.13,7.43.1,11.14.32A3.31,3.31,0,0,0,167.16,51.09Zm17.32-13c-1-1.6-2.7-1.17-3.78-1.16-4.55,0-9.18-.16-13.94,1.37C168.48,38.85,182.93,38.64,184.48,38.09ZM163.25,54.17c-.07-.17-.14-.35-.2-.53-5.73-.48-11.46-.87-17.19.38a1.3,1.3,0,0,0,.92.51c4.87.15,9.74.3,14.62.37A5.37,5.37,0,0,0,163.25,54.17Zm-1.91-11.32c0,.21,0,.42,0,.63h3c4.76,0,9.53-.11,14.28,0,1,0,1.35-.31,2.09-1.31C174,42.66,167.63,41.8,161.34,42.85Zm11.48,4.27a5.46,5.46,0,0,0-1.37-.4c-4.33-.12-8.66-.18-13-.3a5.67,5.67,0,0,0-3.16,1.07C161.47,47.93,167.13,48.28,172.82,47.12Zm4-1.71c-1.62-1-13.47-1.36-16.87-.87a3.37,3.37,0,0,0-1,.55,4.88,4.88,0,0,0,2,.3l7.37.18c2.25.06,4.5.15,6.74.16A9.69,9.69,0,0,0,176.81,45.41Zm-6.31,3.92,0-.52c-5.86.4-11.74-.68-17.59.55,4.9.23,9.79.35,14.68.4A18.91,18.91,0,0,0,170.5,49.33ZM180.88,36c0-.24,0-.48.05-.71-2.41-.6-4.91-.42-7.37-.52a3.88,3.88,0,0,0-3,1.23Zm-7.3-2.28h3.88l-1.8-1.28ZM132.46,58l2.56-.15A1.67,1.67,0,0,0,132.46,58Zm22.41,1.65c-.63-.31-1.36-.66-1.14.55Z"/>
    </g>
  </g>
</svg>
